Recluse_Font_0.sfdir
StartChar: exclam
Encoding: 33 33 4
Width: 475
GlyphClass: 1
Flags: W
LayerCount: 2
Fore
SplineSet
373 1149 m 0,0,1
 373 896 373 896 336 686 c 0,2,3
 321 607 321 607 297 449 c 0,4,5
 293 410 293 410 244 410 c 0,6,7
 216 410 216 410 205 414 c 0,8,9
 189 419 189 419 184 444 c 0,10,11
 123 744 123 744 123 827 c 2,12,-1
 123 1366 l 2,13,14
 123 1405 123 1405 135 1405 c 0,15,16
 153 1405 153 1405 190 1400 c 128,-1,17
 227 1395 227 1395 246 1395 c 256,18,19
 265 1395 265 1395 302.5 1400 c 128,-1,20
 340 1405 340 1405 358 1405 c 0,21,22
 371 1405 371 1405 371 1367.5 c 128,-1,23
 371 1330 371 1330 372 1257.5 c 128,-1,24
 373 1185 373 1185 373 1149 c 0,0,1
377 117 m 0,25,26
 377 57 377 57 341 15 c 128,-1,27
 305 -27 305 -27 246 -27 c 256,28,29
 187 -27 187 -27 151 17 c 0,30,31
 117 57 117 57 117 117 c 0,32,33
 117 176 117 176 152 216 c 128,-1,34
 187 256 187 256 246 256 c 0,35,36
 304 256 304 256 340.5 216 c 128,-1,37
 377 176 377 176 377 117 c 0,25,26
EndSplineSet
EndChar
StartChar: quotedbl
Encoding: 34 34 5
Width: 621
GlyphClass: 1
Flags: W
LayerCount: 2
Fore
SplineSet
553 1382 m 2,0,-1
 553 1282 l 2,1,2
 553 1107 553 1107 506 977 c 0,3,4
 499 958 499 958 459 958 c 0,5,6
 407 958 407 958 401 973 c 0,7,8
 398 982 398 982 381.5 1058.5 c 128,-1,9
 365 1135 365 1135 365 1145 c 2,10,-1
 365 1382 l 2,11,12
 365 1389 365 1389 371 1401 c 1,13,14
 396 1407 396 1407 461 1407 c 0,15,16
 485 1407 485 1407 547 1401 c 1,17,18
 553 1389 553 1389 553 1382 c 2,0,-1
258 1145 m 0,19,20
 258 1136 258 1136 241 1059 c 128,-1,21
 224 982 224 982 221 973 c 0,22,23
 216 958 216 958 164 958 c 0,24,25
 123 958 123 958 117 977 c 0,26,27
 70 1106 70 1106 70 1262 c 2,28,-1
 70 1387 l 2,29,30
 70 1407 70 1407 162 1407 c 0,31,32
 229 1407 229 1407 242 1402 c 0,33,34
 260 1395 260 1395 260 1365 c 0,35,36
 260 1357 260 1357 258 1320.5 c 128,-1,37
 256 1284 256 1284 256 1253 c 0,38,39
 256 1235 256 1235 257 1199 c 128,-1,40
 258 1163 258 1163 258 1145 c 0,19,20
EndSplineSet
EndChar
StartChar: numbersign
Encoding: 35 35 6
Width: 1360
GlyphClass: 1
Flags: W
LayerCount: 2
Fore
SplineSet
1308 922 m 0,0,1
 1308 894 1308 894 1299 849 c 0,2,3
 1287 793 1287 793 1272 793 c 0,4,5
 1269 794 1269 794 1264 795 c 0,6,7
 1223 801 1223 801 991 809 c 1,8,9
 968 714 968 714 918 526 c 1,10,11
 1127 530 1127 530 1223 530 c 0,12,13
 1244 530 1244 530 1244 513 c 0,14,15
 1244 454 1244 454 1227 391 c 0,16,17
 1222 373 1222 373 1209 373 c 2,18,19
 1209 373 1209 373 1200 375 c 0,20,21
 1159 381 1159 381 877 389 c 1,22,23
 852 290 852 290 802 82 c 0,24,25
 792 27 792 27 764 -78 c 0,26,27
 756 -102 756 -102 737 -102 c 0,28,29
 731 -102 731 -102 723 -98 c 0,30,31
 709 -90 709 -90 680 -74 c 0,32,33
 659 -66 659 -66 638 -59 c 0,34,35
 612 -49 612 -49 612 -32 c 0,36,37
 612 -12 612 -12 729 391 c 1,38,-1
 649 391 l 2,39,40
 529 391 529 391 477 389 c 1,41,42
 443 235 443 235 365 -70 c 0,43,44
 358 -92 358 -92 340 -92 c 0,45,46
 323 -92 323 -92 268 -63.5 c 128,-1,47
 213 -35 213 -35 213 -22 c 0,48,49
 213 2 213 2 326 385 c 1,50,51
 289 384 289 384 199 379 c 0,52,53
 119 375 119 375 74 375 c 0,54,55
 51 375 51 375 51 401 c 0,56,57
 51 413 51 413 57.5 436.5 c 128,-1,58
 64 460 64 460 66 469 c 0,59,60
 66 486 66 486 70 516 c 0,61,62
 75 535 75 535 96 535 c 0,63,64
 147 535 147 535 234 531 c 0,65,66
 335 527 335 527 373 526 c 1,67,-1
 442 807 l 1,68,69
 397 806 397 806 290 800 c 0,70,71
 191 795 191 795 137 795 c 0,72,73
 118 795 118 795 118 815 c 0,74,75
 118 874 118 874 133 924 c 0,76,77
 139 942 139 942 160 942 c 0,78,79
 218 942 218 942 317 939 c 0,80,81
 433 935 433 935 475 934 c 1,82,-1
 564 1269 l 2,83,84
 574 1318 574 1318 598 1413 c 0,85,86
 605 1435 605 1435 624 1435 c 0,87,88
 635 1435 635 1435 656 1421 c 0,89,90
 683 1403 683 1403 688 1401 c 0,91,92
 707 1396 707 1396 726 1391 c 0,93,94
 750 1383 750 1383 750 1366 c 0,95,96
 750 1336 750 1336 627 932 c 1,97,-1
 877 932 l 1,98,99
 906 1042 906 1042 964 1262 c 0,100,101
 974 1309 974 1309 997 1403 c 0,102,103
 1004 1427 1004 1427 1024 1427 c 0,104,105
 1030 1427 1030 1427 1038 1423 c 0,106,107
 1055 1413 1055 1413 1090 1395 c 0,108,109
 1109 1389 1109 1389 1139 1376 c 0,110,111
 1148 1369 1148 1369 1148 1357 c 0,112,113
 1148 1350 1148 1350 1026 934 c 1,114,115
 1194 938 1194 938 1286 938 c 0,116,117
 1308 938 1308 938 1308 922 c 0,0,1
844 809 m 1,118,119
 800 811 800 811 752 811 c 2,120,-1
 592 811 l 1,121,122
 574 747 574 747 518 524 c 1,123,-1
 772 524 l 1,124,125
 798 619 798 619 844 809 c 1,118,119
EndSplineSet
EndChar
StartChar: dollar
Encoding: 36 36 7
Width: 881
GlyphClass: 1
Flags: W
LayerCount: 2
Fore
SplineSet
837 1102 m 0,0,1
 837 1096 837 1096 834 1087 c 0,2,3
 824 1064 824 1064 805 1018 c 0,4,5
 801 998 801 998 791 958 c 0,6,7
 786 945 786 945 773 945 c 1,8,9
 774 945 774 945 681 995 c 128,-1,10
 588 1045 588 1045 518 1049 c 1,11,12
 510 990 510 990 510 878 c 0,13,14
 510 790 510 790 510 702 c 1,15,16
 662 608 662 608 707 564 c 0,17,18
 803 473 803 473 803 354 c 0,19,20
 803 168 803 168 635 78 c 0,21,22
 546 30 546 30 494 29 c 1,23,24
 496 -56 496 -56 496 -133 c 0,25,26
 496 -162 496 -162 491 -162 c 0,27,28
 482 -162 482 -162 463 -160 c 128,-1,29
 444 -158 444 -158 434 -158 c 0,30,31
 425 -158 425 -158 406.5 -160.5 c 128,-1,32
 388 -163 388 -163 380 -163 c 0,33,34
 371 -163 371 -163 371 -135 c 0,35,36
 371 -68 371 -68 373 8 c 1,37,38
 208 8 208 8 115 39 c 0,39,40
 98 45 98 45 96 63 c 0,41,42
 95 90 95 90 90 143 c 0,43,44
 89 154 89 154 80 188 c 0,45,46
 73 216 73 216 73 231 c 0,47,48
 73 248 73 248 89 248 c 0,49,50
 95 248 95 248 98 248 c 0,51,52
 116 241 116 241 148 228 c 0,53,54
 227 197 227 197 307 197 c 1,55,-1
 322 196 l 2,56,57
 348 196 348 196 375 199 c 1,58,59
 378 313 378 313 383 541 c 1,60,61
 231 639 231 639 185 683 c 0,62,63
 86 779 86 779 86 895 c 0,64,65
 86 1024 86 1024 177 1112 c 0,66,67
 260 1192 260 1192 393 1219 c 1,68,69
 394 1235 394 1235 394 1355 c 0,70,71
 394 1368 394 1368 403 1368 c 2,72,-1
 514 1368 l 2,73,74
 527 1368 527 1368 524 1223 c 1,75,76
 576 1221 576 1221 698 1181 c 0,77,78
 837 1136 837 1136 837 1102 c 0,0,1
395 1034 m 1,79,80
 350 1024 350 1024 315 989 c 0,81,82
 276 951 276 951 276 907 c 0,83,84
 276 830 276 830 391 762 c 1,85,86
 395 925 395 925 395 1034 c 1,79,80
606 319 m 0,87,88
 606 403 606 403 504 465 c 1,89,-1
 498 217 l 1,90,91
 606 250 606 250 606 319 c 0,87,88
EndSplineSet
EndChar
StartChar: percent
Encoding: 37 37 8
Width: 1507
GlyphClass: 1
Flags: W
LayerCount: 2
Fore
SplineSet
1460 373 m 256,0,1
 1460 225 1460 225 1376 112 c 0,2,3
 1284 -12 1284 -12 1141 -12 c 0,4,5
 997 -12 997 -12 904 112 c 0,6,7
 819 225 819 225 819 373 c 256,8,9
 819 521 819 521 904 635 c 0,10,11
 998 760 998 760 1141 760 c 256,12,13
 1284 760 1284 760 1376 635 c 0,14,15
 1460 521 1460 521 1460 373 c 256,0,1
1058 1198 m 0,16,17
 1058 1189 1058 1189 1051 1174 c 0,18,19
 961 986 961 986 786 608 c 0,20,21
 706 430 706 430 545 -2 c 0,22,23
 534 -30 534 -30 525 -30 c 0,24,25
 511 -30 511 -30 473.5 -6 c 128,-1,26
 436 18 436 18 436 30 c 0,27,28
 436 40 436 40 446 59 c 0,29,30
 504 166 504 166 586 344 c 0,31,32
 692 572 692 572 721 631 c 0,33,34
 772 735 772 735 844 925 c 0,35,36
 900 1077 900 1077 956 1229 c 0,37,38
 966 1254 966 1254 976 1254 c 0,39,40
 989 1254 989 1254 1023.5 1232 c 128,-1,41
 1058 1210 1058 1210 1058 1198 c 0,16,17
688 860 m 0,42,43
 688 712 688 712 604 599 c 0,44,45
 512 475 512 475 369 475 c 0,46,47
 225 475 225 475 132 599 c 0,48,49
 47 712 47 712 47 860 c 0,50,51
 47 1009 47 1009 132 1122 c 0,52,53
 225 1247 225 1247 369 1247 c 0,54,55
 512 1247 512 1247 604 1122 c 0,56,57
 688 1009 688 1009 688 860 c 0,42,43
1294 373 m 256,58,59
 1294 454 1294 454 1259 517 c 0,60,61
 1216 594 1216 594 1141 594 c 0,62,63
 1065 594 1065 594 1022 517 c 0,64,65
 985 454 985 454 985 373 c 0,66,67
 985 296 985 296 1024 231 c 0,68,69
 1069 154 1069 154 1141 154 c 0,70,71
 1215 154 1215 154 1258 229 c 0,72,73
 1294 292 1294 292 1294 373 c 256,58,59
522 860 m 0,74,75
 522 941 522 941 487 1005 c 0,76,77
 444 1081 444 1081 369 1081 c 256,78,79
 294 1081 294 1081 250 1004 c 0,80,81
 213 940 213 940 213 860 c 0,82,83
 213 785 213 785 252 718 c 0,84,85
 298 641 298 641 369 641 c 0,86,87
 443 641 443 641 486 717 c 0,88,89
 522 780 522 780 522 860 c 0,74,75
EndSplineSet
EndChar
StartChar: ampersand
Encoding: 38 38 9
Width: 1409
GlyphClass: 1
Flags: W
LayerCount: 2
Fore
SplineSet
1369 167 m 0,0,1
 1369 156 1369 156 1366.5 133 c 128,-1,2
 1364 110 1364 110 1364 98 c 0,3,4
 1364 89 1364 89 1366 70 c 128,-1,5
 1368 51 1368 51 1368 41 c 0,6,7
 1368 0 1368 0 1321 0 c 0,8,9
 1294 0 1294 0 1241 -2 c 128,-1,10
 1188 -4 1188 -4 1161 -4 c 0,11,12
 1078 -4 1078 -4 979 59 c 0,13,14
 894 115 894 115 834 190 c 1,15,16
 732 74 732 74 651 26 c 0,17,18
 548 -35 548 -35 412 -35 c 0,19,20
 260 -35 260 -35 167 71 c 0,21,22
 78 172 78 172 78 326 c 0,23,24
 78 491 78 491 171 606 c 0,25,26
 244 698 244 698 410 793 c 1,27,28
 352 944 352 944 352 1051 c 0,29,30
 352 1219 352 1219 441 1318 c 0,31,32
 534 1419 534 1419 700 1419 c 0,33,34
 833 1419 833 1419 925 1353 c 0,35,36
 1028 1279 1028 1279 1028 1151 c 0,37,38
 1028 1009 1028 1009 910 900 c 0,39,40
 846 841 846 841 668 739 c 1,41,42
 759 587 759 587 852 479 c 1,43,44
 965 621 965 621 1028 665 c 0,45,46
 1125 733 1125 733 1272 733 c 0,47,48
 1315 733 1315 733 1328 728 c 0,49,50
 1354 718 1354 718 1354 684 c 0,51,52
 1354 595 1354 595 1307 526 c 1,53,54
 1261 522 1261 522 1216 519 c 0,55,56
 1161 513 1161 513 1128 498 c 0,57,58
 1031 452 1031 452 963 354 c 1,59,60
 1044 263 1044 263 1106 231 c 0,61,62
 1176 195 1176 195 1288 195 c 0,63,64
 1338 195 1338 195 1337 195 c 1,65,66
 1369 190 1369 190 1369 167 c 0,0,1
842 1145 m 0,67,68
 842 1204 842 1204 804 1238 c 128,-1,69
 766 1272 766 1272 707 1272 c 0,70,71
 541 1272 541 1272 541 1104 c 0,72,73
 541 1017 541 1017 584 885 c 1,74,75
 706 953 706 953 748 988 c 0,76,77
 842 1063 842 1063 842 1145 c 0,67,68
731 313 m 1,78,79
 561 511 561 511 487 639 c 1,80,81
 297 518 297 518 297 350 c 0,82,83
 297 269 297 269 344 216 c 0,84,85
 393 160 393 160 473 160 c 0,86,87
 596 160 596 160 731 313 c 1,78,79
EndSplineSet
EndChar
StartChar: quotesingle
Encoding: 39 39 10
Width: 352
GlyphClass: 1
Flags: W
LayerCount: 2
Fore
SplineSet
279 1253 m 0,0,1
 279 1118 279 1118 233 946 c 0,2,3
 232 938 232 938 219 928 c 1,4,5
 204 924 204 924 180 924 c 256,6,7
 156 924 156 924 139 928 c 0,8,9
 110 935 110 935 88 1091 c 0,10,11
 70 1215 70 1215 70 1284 c 2,12,-1
 70 1374 l 2,13,14
 70 1403 70 1403 172 1403 c 0,15,16
 247 1403 247 1403 268 1397 c 0,17,18
 279 1394 279 1394 279 1253 c 0,0,1
EndSplineSet
EndChar
StartChar: parenleft
Encoding: 40 40 11
Width: 719
GlyphClass: 1
Flags: W
LayerCount: 2
Fore
SplineSet
725 1292 m 0,0,1
 725 1271 725 1271 694 1253 c 0,2,3
 548 1171 548 1171 477 1073 c 0,4,5
 414 985 414 985 378 834 c 0,6,7
 346 702 346 702 346 575 c 0,8,9
 346 454 346 454 383 307 c 0,10,11
 424 146 424 146 485 59 c 0,12,13
 564 -51 564 -51 692 -127 c 0,14,15
 715 -141 715 -141 715 -152 c 0,16,17
 715 -171 715 -171 685 -253.5 c 128,-1,18
 655 -336 655 -336 646 -336 c 256,19,20
 637 -336 637 -336 612 -324 c 0,21,22
 111 -74 111 -74 111 573 c 0,23,24
 111 859 111 859 238 1090 c 0,25,26
 374 1335 374 1335 621 1450 c 0,27,28
 645 1462 645 1462 652 1462 c 0,29,30
 663 1462 663 1462 694 1384.5 c 128,-1,31
 725 1307 725 1307 725 1292 c 0,0,1
EndSplineSet
EndChar
StartChar: parenright
Encoding: 41 41 12
Width: 719
GlyphClass: 1
Flags: W
LayerCount: 2
Fore
SplineSet
606 573 m 0,0,1
 606 -74 606 -74 104 -324 c 0,2,3
 80 -336 80 -336 71 -336 c 256,4,5
 62 -336 62 -336 32 -253.5 c 128,-1,6
 2 -171 2 -171 2 -152 c 0,7,8
 2 -141 2 -141 25 -127 c 0,9,10
 153 -50 153 -50 231 59 c 0,11,12
 293 147 293 147 334 307 c 0,13,14
 371 454 371 454 371 575 c 0,15,16
 371 702 371 702 339 834 c 0,17,18
 303 985 303 985 240 1073 c 0,19,20
 170 1171 170 1171 23 1253 c 0,21,22
 -8 1271 -8 1271 -8 1292 c 0,23,24
 -8 1307 -8 1307 23 1384.5 c 128,-1,25
 54 1462 54 1462 65 1462 c 0,26,27
 72 1462 72 1462 96 1450 c 0,28,29
 343 1335 343 1335 478 1090 c 0,30,31
 606 859 606 859 606 573 c 0,0,1
EndSplineSet
EndChar
StartChar: asterisk
Encoding: 42 42 13
Width: 729
GlyphClass: 1
Flags: W
LayerCount: 2
Fore
SplineSet
682 1067 m 0,0,1
 682 1045 682 1045 593.5 994.5 c 128,-1,2
 505 944 505 944 505 930 c 0,3,4
 505 914 505 914 543 829.5 c 128,-1,5
 581 745 581 745 581 712 c 0,6,7
 581 698 581 698 563.5 686 c 128,-1,8
 546 674 546 674 531 674 c 0,9,10
 512 674 512 674 445.5 750 c 128,-1,11
 379 826 379 826 366 826 c 0,12,13
 356 826 356 826 291.5 750 c 128,-1,14
 227 674 227 674 211 674 c 0,15,16
 191 674 191 674 174.5 688.5 c 128,-1,17
 158 703 158 703 158 721 c 0,18,19
 158 737 158 737 193 831 c 128,-1,20
 228 925 228 925 228 923 c 1,21,22
 228 943 228 943 133.5 995 c 128,-1,23
 39 1047 39 1047 39 1072 c 0,24,25
 39 1118 39 1118 69 1118 c 0,26,27
 100 1118 100 1118 161.5 1111 c 128,-1,28
 223 1104 223 1104 254 1104 c 0,29,30
 286 1104 286 1104 298 1204 c 0,31,32
 306 1268 306 1268 313 1333 c 1,33,34
 322 1358 322 1358 367 1358 c 0,35,36
 409 1358 409 1358 416 1335 c 1,37,38
 423 1270 423 1270 430 1205 c 0,39,40
 442 1106 442 1106 473 1106 c 0,41,42
 503 1106 503 1106 564 1110 c 128,-1,43
 625 1114 625 1114 655 1114 c 0,44,45
 665 1114 665 1114 673.5 1096.5 c 128,-1,46
 682 1079 682 1079 682 1067 c 0,0,1
EndSplineSet
EndChar
StartChar: plus
Encoding: 43 43 14
Width: 827
GlyphClass: 1
Flags: W
LayerCount: 2
Fore
SplineSet
785 688 m 0,0,1
 785 672 785 672 770 522 c 0,2,3
 767 514 767 514 756 514 c 0,4,5
 707 514 707 514 625 517 c 0,6,7
 526 520 526 520 494 520 c 1,8,9
 494 469 494 469 497 367.5 c 128,-1,10
 500 266 500 266 500 215 c 0,11,12
 500 176 500 176 399 176 c 0,13,14
 333 176 333 176 311 188 c 0,15,16
 302 194 302 194 301 213 c 0,17,18
 299 270 299 270 302 366 c 0,19,20
 305 483 305 483 305 520 c 1,21,22
 278 520 278 520 178 517 c 0,23,24
 100 514 100 514 51 514 c 0,25,26
 34 514 34 514 34 528 c 0,27,28
 34 535 34 535 43 608 c 1,29,30
 43 648 43 648 47 694 c 1,31,32
 54 705 54 705 70 705 c 1,33,34
 41 705 41 705 305 698 c 1,35,36
 305 747 305 747 304 847 c 128,-1,37
 303 947 303 947 303 997 c 0,38,39
 303 1014 303 1014 322 1014 c 0,40,41
 347 1014 347 1014 398.5 1015.5 c 128,-1,42
 450 1017 450 1017 475 1017 c 256,43,44
 500 1017 500 1017 500 989 c 0,45,46
 500 941 500 941 497 844 c 128,-1,47
 494 747 494 747 494 698 c 1,48,49
 539 698 539 698 630 699 c 128,-1,50
 721 700 721 700 766 700 c 0,51,52
 785 700 785 700 785 688 c 0,0,1
EndSplineSet
EndChar
StartChar: comma
Encoding: 44 44 15
Width: 440
GlyphClass: 1
Flags: W
LayerCount: 2
Fore
SplineSet
379 238 m 0,0,1
 379 136 379 136 344 57 c 0,2,3
 322 7 322 7 224 -101 c 0,4,5
 119 -219 119 -219 80 -219 c 0,6,7
 71 -219 71 -219 32 -173 c 128,-1,8
 -7 -127 -7 -127 -7 -115 c 1,9,10
 -7 -117 -7 -117 45.5 -45.5 c 128,-1,11
 98 26 98 26 102 74 c 1,12,13
 102 67 102 67 102 179 c 0,14,15
 102 218 102 218 211 246 c 0,16,17
 298 268 298 268 357 268 c 0,18,19
 379 268 379 268 379 238 c 0,0,1
EndSplineSet
EndChar
StartChar: hyphen
Encoding: 45 45 16
AltUni2: 002010.ffffffff.0 002010.ffffffff.0
Width: 791
GlyphClass: 1
Flags: W
LayerCount: 2
Fore
SplineSet
736 722 m 2,0,-1
 735 713 l 1,1,2
 726 678 726 678 711 610 c 1,3,4
 708 577 708 577 698 514 c 0,5,6
 696 505 696 505 641 502 c 0,7,8
 603 500 603 500 533 502 c 0,9,10
 443 504 443 504 449 504 c 1,11,12
 387 504 387 504 265 492.5 c 128,-1,13
 143 481 143 481 82 481 c 0,14,15
 55 481 55 481 55 514 c 0,16,17
 55 560 55 560 113 705 c 0,18,19
 118 719 118 719 141 719 c 0,20,21
 176 719 176 719 244 716.5 c 128,-1,22
 312 714 312 714 347 714 c 0,23,24
 408 714 408 714 531 726.5 c 128,-1,25
 654 739 654 739 715 739 c 0,26,27
 737 739 737 739 736 722 c 2,0,-1
EndSplineSet
EndChar
StartChar: period
Encoding: 46 46 17
Width: 440
GlyphClass: 1
Flags: W
LayerCount: 2
Fore
SplineSet
373 147 m 256,0,1
 373 81 373 81 328.5 31.5 c 128,-1,2
 284 -18 284 -18 219 -18 c 256,3,4
 154 -18 154 -18 110 33 c 0,5,6
 68 81 68 81 68 147 c 0,7,8
 68 214 68 214 111 261.5 c 128,-1,9
 154 309 154 309 219 309 c 0,10,11
 285 309 285 309 329 261 c 128,-1,12
 373 213 373 213 373 147 c 256,0,1
EndSplineSet
EndChar
StartChar: slash
Encoding: 47 47 18
Width: 586
GlyphClass: 1
Flags: W
LayerCount: 2
Fore
SplineSet
553 1339 m 0,0,1
 553 1334 553 1334 549 1315 c 0,2,3
 486 1078 486 1078 365 604 c 0,4,5
 326 450 326 450 249 129 c 0,6,7
 233 52 233 52 195 -98 c 0,8,9
 188 -118 188 -118 178 -118 c 0,10,11
 46 -65 46 -65 37 -59 c 0,12,13
 33 -57 33 -57 33 -49 c 0,14,15
 33 -39 33 -39 39 -20 c 0,16,17
 107 214 107 214 229 713 c 0,18,19
 281 939 281 939 393 1389 c 0,20,21
 399 1409 399 1409 409 1409 c 0,22,23
 416 1409 416 1409 484.5 1378.5 c 128,-1,24
 553 1348 553 1348 553 1339 c 0,0,1
EndSplineSet
EndChar
StartChar: zero
Encoding: 48 48 19
Width: 1223
GlyphClass: 1
Flags: W
LayerCount: 2
Fore
SplineSet
1165 602 m 256,0,1
 1165 350 1165 350 1016 168 c 0,2,3
 857 -27 857 -27 610 -27 c 0,4,5
 364 -27 364 -27 205 168 c 0,6,7
 55 351 55 351 55 602 c 256,8,9
 55 853 55 853 205 1034 c 0,10,11
 364 1227 364 1227 610 1227 c 0,12,13
 857 1227 857 1227 1016 1035 c 0,14,15
 1165 854 1165 854 1165 602 c 256,0,1
930 602 m 0,16,17
 930 756 930 756 849 868 c 0,18,19
 759 991 759 991 610 991 c 256,20,21
 461 991 461 991 372 868 c 0,22,23
 293 758 293 758 293 602 c 0,24,25
 293 448 293 448 373 335 c 0,26,27
 463 209 463 209 610 209 c 0,28,29
 752 209 752 209 846 338 c 0,30,31
 930 455 930 455 930 602 c 0,16,17
EndSplineSet
EndChar
StartChar: one
Encoding: 49 49 20
Width: 573
GlyphClass: 1
Flags: W
LayerCount: 2
Fore
SplineSet
460 1183 m 0,0,1
 460 1178 460 1178 459 1165 c 0,2,3
 436 984 436 984 436 571 c 0,4,5
 436 483 436 483 438 306 c 128,-1,6
 440 129 440 129 440 41 c 0,7,8
 440 2 440 2 407 2 c 128,-1,9
 374 2 374 2 312 0 c 128,-1,10
 250 -2 250 -2 219 -2 c 256,11,12
 188 -2 188 -2 188 23 c 0,13,14
 188 44 188 44 201 391 c 0,15,16
 207 559 207 559 207 881 c 0,17,18
 207 904 207 904 197 904 c 0,19,20
 173 904 173 904 121.5 888 c 128,-1,21
 70 872 70 872 45 872 c 0,22,23
 22 872 22 872 22 884 c 256,24,25
 22 896 22 896 24.5 920 c 128,-1,26
 27 944 27 944 27 956 c 0,27,28
 27 967 27 967 25 989 c 128,-1,29
 23 1011 23 1011 23 1022 c 0,30,31
 23 1035 23 1035 45 1044 c 0,32,33
 103 1068 103 1068 168 1126 c 0,34,35
 171 1129 171 1129 223 1186 c 0,36,37
 268 1235 268 1235 273 1235 c 1,38,39
 272 1235 272 1235 356 1217 c 0,40,41
 387 1213 387 1213 446 1202 c 0,42,43
 460 1198 460 1198 460 1183 c 0,0,1
EndSplineSet
EndChar
StartChar: two
Encoding: 50 50 21
Width: 993
GlyphClass: 1
Flags: W
LayerCount: 2
Fore
SplineSet
967 184 m 0,0,1
 967 155 967 155 964 94.5 c 128,-1,2
 961 34 961 34 961 4 c 0,3,4
 961 -18 961 -18 928 -18 c 1,5,6
 939 -18 939 -18 833.5 -10 c 128,-1,7
 728 -2 728 -2 520 -2 c 0,8,9
 449 -2 449 -2 305.5 -5 c 128,-1,10
 162 -8 162 -8 90 -8 c 0,11,12
 67 -8 67 -8 61 12 c 2,13,-1
 35 156 l 2,14,15
 35 168 35 168 105 180 c 0,16,17
 183 194 183 194 203 211 c 0,18,19
 342 332 342 332 476 497 c 0,20,21
 649 712 649 712 649 823 c 0,22,23
 649 914 649 914 575 973 c 0,24,25
 506 1028 506 1028 414 1028 c 0,26,27
 325 1028 325 1028 236 993 c 0,28,29
 175 969 175 969 114 929 c 0,30,31
 62 894 62 894 62 894 c 1,32,33
 54 894 54 894 51 895 c 0,34,35
 41 900 41 900 39 930 c 0,36,37
 38 954 38 954 33 999 c 1,38,39
 12 1090 12 1090 12 1073 c 1,40,41
 12 1081 12 1081 27 1092 c 0,42,43
 107 1153 107 1153 233 1192 c 0,44,45
 354 1229 354 1229 461 1229 c 0,46,47
 645 1229 645 1229 764 1143 c 0,48,49
 899 1046 899 1046 899 868 c 0,50,51
 899 674 899 674 547 324 c 1,52,53
 508 278 508 278 424 193 c 1,54,55
 450 191 450 191 489 191 c 0,56,57
 685 191 685 191 938 215 c 1,58,-1
 946 216 l 2,59,60
 967 216 967 216 967 184 c 0,0,1
EndSplineSet
EndChar
StartChar: three
Encoding: 51 51 22
Width: 965
GlyphClass: 1
Flags: W
LayerCount: 2
Fore
SplineSet
913 342 m 0,0,1
 913 158 913 158 775 61 c 0,2,3
 654 -25 654 -25 463 -25 c 0,4,5
 236 -25 236 -25 53 59 c 0,6,7
 34 68 34 68 34 77 c 1,8,9
 34 74 34 74 82 233 c 0,10,11
 88 255 88 255 100 255 c 1,12,13
 278 164 278 164 393 164 c 0,14,15
 666 164 666 164 666 362 c 0,16,17
 666 485 666 485 572 533 c 0,18,19
 505 568 505 568 371 568 c 0,20,21
 343 568 343 568 293 566 c 128,-1,22
 243 564 243 564 222 564 c 0,23,24
 164 564 164 564 164 588 c 0,25,26
 164 724 164 724 194 724 c 0,27,28
 238 724 238 724 326.5 714 c 128,-1,29
 415 704 415 704 459 704 c 0,30,31
 525 704 525 704 566.5 748 c 128,-1,32
 608 792 608 792 608 858 c 0,33,34
 608 1042 608 1042 369 1042 c 0,35,36
 229 1042 229 1042 117 983 c 0,37,38
 113 981 113 981 107 981 c 0,39,40
 82 981 82 981 82 1130 c 0,41,42
 82 1180 82 1180 243 1208 c 0,43,44
 354 1227 354 1227 444 1227 c 0,45,46
 611 1227 611 1227 729 1154 c 0,47,48
 870 1068 870 1068 870 911 c 0,49,50
 870 830 870 830 826 749 c 0,51,52
 778 663 778 663 707 633 c 1,53,54
 913 564 913 564 913 342 c 0,0,1
EndSplineSet
EndChar
StartChar: four
Encoding: 52 52 23
Width: 1024
GlyphClass: 1
Flags: W
LayerCount: 2
Fore
SplineSet
987 272 m 0,0,1
 987 253 987 253 965 254 c 0,2,3
 929 256 929 256 863 256 c 0,4,5
 839 256 839 256 835 253 c 0,6,7
 827 248 827 248 827 225 c 0,8,9
 827 190 827 190 832.5 119.5 c 128,-1,10
 838 49 838 49 838 14 c 0,11,12
 838 -8 838 -8 813 -12 c 0,13,14
 779 -18 779 -18 696 -18 c 0,15,16
 556 -18 556 -18 556 4 c 0,17,18
 556 33 556 33 567 114 c 128,-1,19
 578 195 578 195 578 233 c 0,20,21
 578 256 578 256 561 256 c 0,22,23
 480 256 480 256 318.5 251 c 128,-1,24
 157 246 157 246 76 246 c 0,25,26
 16 246 16 246 16 369 c 0,27,28
 16 466 16 466 35 489 c 0,29,30
 104 568 104 568 233 731 c 1,31,32
 394 957 394 957 483 1092 c 0,33,34
 511 1136 511 1136 569 1223 c 0,35,36
 585 1244 585 1244 600 1244 c 0,37,38
 669 1244 669 1244 811 1192 c 0,39,40
 842 1181 842 1181 842 1155 c 0,41,42
 842 1104 842 1104 834.5 1001.5 c 128,-1,43
 827 899 827 899 827 848 c 0,44,45
 827 802 827 802 826 690 c 0,46,47
 824 589 824 589 825 532 c 2,48,-1
 825 451 l 1,49,50
 851 451 851 451 901.5 455 c 128,-1,51
 952 459 952 459 977 459 c 0,52,53
 985 459 985 459 985 442 c 0,54,55
 985 414 985 414 986 357.5 c 128,-1,56
 987 301 987 301 987 272 c 0,0,1
614 985 m 0,57,58
 614 993 614 993 608 997 c 1,59,60
 599 997 599 997 582 963 c 0,61,62
 572 941 572 941 561 920 c 0,63,64
 388 688 388 688 215 452 c 1,65,66
 220 441 220 441 296 441 c 2,67,-1
 337 441 l 2,68,69
 504 441 504 441 586 446 c 1,70,71
 587 569 587 569 589 692 c 0,72,73
 593 849 593 849 606 932 c 0,74,75
 614 980 614 980 614 985 c 0,57,58
EndSplineSet
EndChar
StartChar: five
Encoding: 53 53 24
Width: 975
GlyphClass: 1
Flags: W
LayerCount: 2
Fore
SplineSet
895 406 m 0,0,1
 895 189 895 189 754 77 c 0,2,3
 625 -27 625 -27 403 -27 c 0,4,5
 332 -27 332 -27 192 -1 c 0,6,7
 18 31 18 31 18 68 c 0,8,9
 18 103 18 103 33 183 c 0,10,11
 50 275 50 275 66 275 c 1,12,13
 52 275 52 275 155.5 220.5 c 128,-1,14
 259 166 259 166 350 166 c 0,15,16
 475 166 475 166 553 216 c 0,17,18
 645 276 645 276 645 393 c 0,19,20
 645 589 645 589 357 589 c 0,21,22
 319 589 319 589 245.5 578 c 128,-1,23
 172 567 172 567 143 567 c 0,24,25
 121 567 121 567 115 580 c 0,26,27
 113 586 113 586 113 598 c 0,28,29
 112 619 112 619 114 657 c 0,30,31
 115 700 115 700 115 716 c 0,32,33
 115 789 115 789 113 935.5 c 128,-1,34
 111 1082 111 1082 111 1155 c 0,35,36
 111 1169 111 1169 133.5 1189.5 c 128,-1,37
 156 1210 156 1210 170 1210 c 0,38,39
 222 1210 222 1210 327 1205.5 c 128,-1,40
 432 1201 432 1201 485 1201 c 0,41,42
 535 1201 535 1201 636.5 1206 c 128,-1,43
 738 1211 738 1211 789 1211 c 0,44,45
 812 1211 812 1211 812 1192 c 0,46,47
 812 1171 812 1171 802.5 1115 c 128,-1,48
 793 1059 793 1059 793 1030 c 0,49,50
 793 1019 793 1019 777.5 1007 c 128,-1,51
 762 995 762 995 750 995 c 0,52,53
 698 995 698 995 594.5 1001 c 128,-1,54
 491 1007 491 1007 439 1007 c 0,55,56
 365 1007 365 1007 309 1004 c 1,57,58
 309 922 309 922 299 752 c 1,59,60
 329 752 329 752 389.5 759 c 128,-1,61
 450 766 450 766 481 766 c 0,62,63
 665 766 665 766 774 681 c 0,64,65
 895 586 895 586 895 406 c 0,0,1
EndSplineSet
EndChar
StartChar: six
Encoding: 54 54 25
Width: 1051
GlyphClass: 1
Flags: W
LayerCount: 2
Fore
SplineSet
997 436 m 0,0,1
 997 224 997 224 874 98.5 c 128,-1,2
 751 -27 751 -27 539 -27 c 0,3,4
 309 -27 309 -27 183 135 c 0,5,6
 68 282 68 282 68 518 c 0,7,8
 68 807 68 807 273 1019 c 128,-1,9
 478 1231 478 1231 766 1231 c 0,10,11
 785 1231 785 1231 793 1210 c 0,12,13
 844 1069 844 1069 844 1067 c 0,14,15
 844 1038 844 1038 807 1038 c 0,16,17
 667 1038 667 1038 557 981 c 0,18,19
 415 907 415 907 360 786 c 0,20,21
 353 770 353 770 353 761 c 0,22,23
 353 749 353 749 363 750 c 0,24,25
 423 773 423 773 482 796 c 0,26,27
 546 817 546 817 608 817 c 0,28,29
 779 817 779 817 888 712 c 128,-1,30
 997 607 997 607 997 436 c 0,0,1
782 432 m 0,31,32
 782 533 782 533 718 598.5 c 128,-1,33
 654 664 654 664 553 664 c 0,34,35
 299 664 299 664 299 459 c 0,36,37
 299 343 299 343 358 255 c 0,38,39
 426 156 426 156 537 156 c 0,40,41
 782 156 782 156 782 432 c 0,31,32
EndSplineSet
EndChar
StartChar: seven
Encoding: 55 55 26
Width: 903
GlyphClass: 1
Flags: W
LayerCount: 2
Fore
SplineSet
874 1107 m 0,0,1
 874 1074 874 1074 872 1063 c 0,2,3
 872 1057 872 1057 831 1004 c 0,4,5
 697 824 697 824 598 530 c 0,6,7
 502 246 502 246 473 39 c 0,8,9
 470 15 470 15 466 7 c 0,10,11
 459 -7 459 -7 440 -12 c 0,12,13
 412 -20 412 -20 322 -20 c 0,14,15
 229 -20 229 -20 207 -12 c 0,16,17
 195 -8 195 -8 195 12 c 0,18,19
 195 136 195 136 296 381 c 0,20,21
 363 543 363 543 484 780 c 0,22,23
 585 978 585 978 585 984 c 0,24,25
 585 999 585 999 559 999 c 0,26,27
 473 999 473 999 300 985 c 128,-1,28
 127 971 127 971 41 971 c 0,29,30
 14 971 14 971 14 989 c 0,31,32
 14 1008 14 1008 20 1039 c 0,33,34
 28 1080 28 1080 29 1090 c 0,35,36
 31 1108 31 1108 31 1200 c 0,37,38
 31 1221 31 1221 59 1221 c 0,39,40
 126 1221 126 1221 287 1208 c 0,41,42
 391 1200 391 1200 836 1200 c 0,43,44
 874 1200 874 1200 874 1107 c 0,0,1
EndSplineSet
EndChar
StartChar: eight
Encoding: 56 56 27
Width: 938
GlyphClass: 1
Flags: W
LayerCount: 2
Fore
SplineSet
899 331 m 0,0,1
 899 164 899 164 771 64 c 0,2,3
 652 -30 652 -30 471 -30 c 0,4,5
 271 -30 271 -30 153 57 c 0,6,7
 16 157 16 157 16 357 c 0,8,9
 16 539 16 539 172 626 c 1,10,11
 121 666 121 666 89 740.5 c 128,-1,12
 57 815 57 815 57 891 c 0,13,14
 57 1060 57 1060 185 1155 c 0,15,16
 300 1239 300 1239 475 1239 c 0,17,18
 633 1239 633 1239 751 1148 c 0,19,20
 881 1050 881 1050 881 897 c 0,21,22
 881 819 881 819 842 740 c 0,23,24
 803 658 803 658 739 615 c 1,25,26
 899 524 899 524 899 331 c 0,0,1
676 885 m 0,27,28
 676 954 676 954 619.5 1004 c 128,-1,29
 563 1054 563 1054 481 1054 c 0,30,31
 386 1054 386 1054 331 1016 c 128,-1,32
 276 978 276 978 276 917 c 0,33,34
 276 838 276 838 391 778 c 0,35,36
 443 750 443 750 585 704 c 1,37,38
 676 780 676 780 676 885 c 0,27,28
660 316 m 0,39,40
 660 407 660 407 540 466 c 1,41,42
 443 504 443 504 345 541 c 1,43,44
 235 466 235 466 235 344 c 0,45,46
 235 260 235 260 291 208 c 0,47,48
 352 151 352 151 463 151 c 0,49,50
 660 151 660 151 660 316 c 0,39,40
EndSplineSet
EndChar
StartChar: nine
Encoding: 57 57 28
Width: 1051
GlyphClass: 1
Flags: W
LayerCount: 2
Fore
SplineSet
983 672 m 0,0,1
 983 365 983 365 772 154 c 128,-1,2
 561 -57 561 -57 254 -57 c 0,3,4
 234 -57 234 -57 227 -39 c 0,5,6
 179 85 179 85 179 113 c 0,7,8
 179 135 179 135 217 135 c 0,9,10
 367 135 367 135 492 199 c 0,11,12
 561 234 561 234 627 308 c 0,13,14
 702 392 702 392 702 460 c 0,15,16
 702 469 702 469 695 469 c 0,17,18
 689 469 689 469 672 459 c 0,19,20
 566 395 566 395 442 395 c 0,21,22
 269 395 269 395 161 503 c 128,-1,23
 53 611 53 611 53 784 c 0,24,25
 53 994 53 994 179 1112 c 0,26,27
 301 1227 301 1227 512 1227 c 0,28,29
 746 1227 746 1227 871 1062 c 0,30,31
 983 913 983 913 983 672 c 0,0,1
752 756 m 0,32,33
 752 872 752 872 693 952 c 0,34,35
 628 1042 628 1042 516 1042 c 0,36,37
 272 1042 272 1042 272 784 c 0,38,39
 272 683 272 683 335.5 616 c 128,-1,40
 399 549 399 549 500 549 c 0,41,42
 602 549 602 549 673 600 c 0,43,44
 752 657 752 657 752 756 c 0,32,33
EndSplineSet
EndChar
StartChar: colon
Encoding: 58 58 29
Width: 410
GlyphClass: 1
Flags: W
LayerCount: 2
Fore
SplineSet
340 666 m 0,0,1
 340 606 340 606 300 565 c 128,-1,2
 260 524 260 524 201 524 c 0,3,4
 144 524 144 524 106 566 c 128,-1,5
 68 608 68 608 68 666 c 0,6,7
 68 725 68 725 106 767 c 128,-1,8
 144 809 144 809 203 809 c 0,9,10
 261 809 261 809 300.5 767 c 128,-1,11
 340 725 340 725 340 666 c 0,0,1
340 131 m 0,12,13
 340 72 340 72 300.5 28 c 128,-1,14
 261 -16 261 -16 203 -16 c 0,15,16
 144 -16 144 -16 106 28 c 128,-1,17
 68 72 68 72 68 131 c 0,18,19
 68 194 68 194 105.5 234 c 128,-1,20
 143 274 143 274 205 274 c 0,21,22
 264 274 264 274 302 232.5 c 128,-1,23
 340 191 340 191 340 131 c 0,12,13
EndSplineSet
EndChar
StartChar: semicolon
Encoding: 59 59 30
Width: 410
GlyphClass: 1
Flags: W
LayerCount: 2
Fore
SplineSet
348 666 m 0,0,1
 348 607 348 607 308.5 563.5 c 128,-1,2
 269 520 269 520 211 520 c 256,3,4
 153 520 153 520 114.5 563 c 128,-1,5
 76 606 76 606 76 666 c 256,6,7
 76 726 76 726 114 767.5 c 128,-1,8
 152 809 152 809 211 809 c 256,9,10
 270 809 270 809 309 767.5 c 128,-1,11
 348 726 348 726 348 666 c 0,0,1
340 203 m 0,12,13
 340 40 340 40 201 -111 c 0,14,15
 130 -187 130 -187 82 -213 c 0,16,17
 71 -219 71 -219 65 -219 c 0,18,19
 57 -219 57 -219 18 -182 c 128,-1,20
 -21 -145 -21 -145 -21 -135 c 0,21,22
 -21 -130 -21 -130 32 -63.5 c 128,-1,23
 85 3 85 3 90 61 c 1,24,25
 90 61 90 61 90 152 c 0,26,27
 90 185 90 185 115 195 c 1,28,29
 148 201 148 201 211 215 c 0,30,31
 216 216 216 216 261 230 c 0,32,33
 294 240 294 240 312 240 c 0,34,35
 340 240 340 240 340 203 c 0,12,13
EndSplineSet
EndChar
StartChar: less
Encoding: 60 60 31
Width: 729
GlyphClass: 1
Flags: W
LayerCount: 2
Fore
SplineSet
688 918 m 0,0,1
 688 911 688 911 678 899 c 0,2,3
 616 821 616 821 479 729 c 0,4,5
 351 642 351 642 248 602 c 0,6,7
 237 599 237 599 224 588 c 1,8,9
 229 581 229 581 246 573 c 0,10,11
 351 524 351 524 473 440 c 0,12,13
 608 347 608 347 672 270 c 0,14,15
 685 254 685 254 685 246 c 0,16,17
 685 245 685 245 655 187 c 128,-1,18
 625 129 625 129 620.5 118 c 128,-1,19
 616 107 616 107 610 107 c 256,20,21
 604 107 604 107 588 121 c 0,22,23
 406 273 406 273 345 318 c 0,24,25
 222 408 222 408 76 477 c 0,26,27
 53 488 53 488 53 512 c 2,28,-1
 53 649 l 2,29,30
 53 674 53 674 80 684 c 0,31,32
 140 706 140 706 332 831 c 0,33,34
 383 865 383 865 465 935 c 0,35,36
 557 1012 557 1012 596 1040 c 0,37,38
 610 1051 610 1051 618 1051 c 0,39,40
 634 1051 634 1051 688 918 c 0,0,1
EndSplineSet
EndChar
StartChar: equal
Encoding: 61 61 32
Width: 893
GlyphClass: 1
Flags: W
LayerCount: 2
Fore
SplineSet
828 839 m 0,0,1
 828 760 828 760 817 686 c 0,2,3
 815 673 815 673 806 673 c 0,4,5
 740 673 740 673 608.5 678.5 c 128,-1,6
 477 684 477 684 412 684 c 0,7,8
 357 684 357 684 247.5 680 c 128,-1,9
 138 676 138 676 84 676 c 0,10,11
 64 676 64 676 64 697 c 0,12,13
 64 803 64 803 74 844 c 0,14,15
 77 860 77 860 94 860 c 0,16,17
 152 860 152 860 269 855 c 128,-1,18
 386 850 386 850 444 850 c 0,19,20
 506 850 506 850 628 853 c 128,-1,21
 750 856 750 856 811 856 c 0,22,23
 828 856 828 856 828 839 c 0,0,1
830 535 m 0,24,25
 830 522 830 522 819 387 c 0,26,27
 816 376 816 376 807 376 c 2,28,-1
 797 377 l 1,29,30
 596 387 596 387 412 387 c 0,31,32
 357 387 357 387 247.5 382 c 128,-1,33
 138 377 138 377 84 377 c 0,34,35
 65 377 65 377 65 392 c 0,36,37
 65 503 65 503 74 539 c 0,38,39
 77 553 77 553 92 553 c 0,40,41
 151 553 151 553 268.5 549 c 128,-1,42
 386 545 386 545 444 545 c 0,43,44
 506 545 506 545 629.5 548 c 128,-1,45
 753 551 753 551 815 551 c 0,46,47
 830 551 830 551 830 535 c 0,24,25
EndSplineSet
EndChar
StartChar: greater
Encoding: 62 62 33
Width: 729
GlyphClass: 1
Flags: W
LayerCount: 2
Fore
SplineSet
678 512 m 2,0,1
 678 488 678 488 655 477 c 0,2,3
 399 352 399 352 143 121 c 0,4,5
 137 114 137 114 121 107 c 1,6,7
 46 237 46 237 46 246 c 0,8,9
 46 291 46 291 240 424 c 0,10,11
 410 541 410 541 485 573 c 0,12,13
 496 577 496 577 507 588 c 1,14,15
 501 594 501 594 483 602 c 0,16,17
 190 728 190 728 53 899 c 0,18,19
 43 911 43 911 43 918 c 0,20,21
 43 922 43 922 72 976.5 c 128,-1,22
 101 1031 101 1031 104.5 1042 c 128,-1,23
 108 1053 108 1053 112 1053 c 0,24,25
 117 1053 117 1053 135 1040 c 0,26,27
 220 967 220 967 399 831 c 1,28,29
 504 763 504 763 523 751 c 0,30,31
 604 702 604 702 651 684 c 0,32,33
 678 674 678 674 678 649 c 2,34,-1
 678 512 l 2,0,1
EndSplineSet
EndChar
StartChar: question
Encoding: 63 63 34
Width: 815
GlyphClass: 1
Flags: W
LayerCount: 2
Fore
SplineSet
772 1020 m 0,0,1
 772 875 772 875 686 763 c 0,2,3
 675 750 675 750 522 599 c 0,4,5
 430 510 430 510 422 424 c 0,6,7
 420 402 420 402 418 380 c 0,8,9
 414 363 414 363 389 354 c 0,10,11
 360 344 360 344 344 344 c 0,12,13
 293 344 293 344 284 347 c 0,14,15
 260 356 260 356 260 395 c 0,16,17
 260 515 260 515 301 586 c 1,18,19
 367 672 367 672 432 759 c 0,20,21
 510 863 510 863 510 958 c 0,22,23
 510 1051 510 1051 456.5 1108 c 128,-1,24
 403 1165 403 1165 311 1165 c 0,25,26
 237 1165 237 1165 146.5 1113 c 128,-1,27
 56 1061 56 1061 60 1061 c 1,28,29
 29 1061 29 1061 29 1253 c 0,30,31
 29 1267 29 1267 59 1288 c 0,32,33
 216 1397 216 1397 389 1397 c 0,34,35
 558 1397 558 1397 665 1293 c 128,-1,36
 772 1189 772 1189 772 1020 c 0,0,1
487 113 m 256,37,38
 487 57 487 57 450 15 c 128,-1,39
 413 -27 413 -27 358 -27 c 0,40,41
 304 -27 304 -27 267.5 15 c 128,-1,42
 231 57 231 57 231 113 c 256,43,44
 231 169 231 169 267 209.5 c 128,-1,45
 303 250 303 250 358 250 c 0,46,47
 414 250 414 250 450.5 209.5 c 128,-1,48
 487 169 487 169 487 113 c 256,37,38
EndSplineSet
EndChar
StartChar: at
Encoding: 64 64 35
Width: 1272
GlyphClass: 1
Flags: W
LayerCount: 2
Fore
SplineSet
1165 752 m 0,0,1
 1165 667 1165 667 1114 511 c 0,2,3
 1055 330 1055 330 993 330 c 0,4,5
 911 330 911 330 899 381 c 0,6,7
 890 420 890 420 881 420 c 1,8,9
 882 420 882 420 822 383 c 128,-1,10
 762 346 762 346 702 346 c 0,11,12
 569 346 569 346 491 444 c 0,13,14
 418 535 418 535 418 672 c 0,15,16
 418 820 418 820 499 917 c 0,17,18
 586 1020 586 1020 731 1020 c 0,19,20
 815 1020 815 1020 889.5 972 c 128,-1,21
 964 924 964 924 965 924 c 0,22,23
 987 924 987 924 987 954 c 0,24,25
 987 1080 987 1080 903 1179 c 0,26,27
 815 1282 815 1282 692 1282 c 0,28,29
 476 1282 476 1282 338 1094 c 0,30,31
 213 924 213 924 213 700 c 0,32,33
 213 469 213 469 336 304 c 0,34,35
 473 121 473 121 696 121 c 0,36,37
 723 121 723 121 723 104 c 2,38,-1
 723 -10 l 2,39,40
 723 -31 723 -31 696 -31 c 0,41,42
 408 -31 408 -31 226 195 c 0,43,44
 57 405 57 405 57 700 c 0,45,46
 57 976 57 976 232 1196 c 0,47,48
 419 1432 419 1432 688 1432 c 0,49,50
 947 1432 947 1432 1069 1209 c 0,51,52
 1165 1034 1165 1034 1165 752 c 0,0,1
961 696 m 0,53,54
 961 770 961 770 909.5 819 c 128,-1,55
 858 868 858 868 784 868 c 0,56,57
 707 868 707 868 656.5 815.5 c 128,-1,58
 606 763 606 763 606 686 c 0,59,60
 606 612 606 612 641 559 c 0,61,62
 681 497 681 497 751 497 c 0,63,64
 837 497 837 497 899 554.5 c 128,-1,65
 961 612 961 612 961 696 c 0,53,54
EndSplineSet
EndChar
StartChar: A
Encoding: 65 65 36
Width: 1350
GlyphClass: 1
Flags: W
LayerCount: 2
Fore
SplineSet
638 1072 m 1024,0,-1
1341 12 m 0,1,2
 1341 0 1341 0 1317 0 c 0,3,4
 1298 0 1298 0 1261.5 3 c 128,-1,5
 1225 6 1225 6 1206 6 c 256,6,7
 1187 6 1187 6 1149 3 c 128,-1,8
 1111 0 1111 0 1092 0 c 0,9,10
 789 0 789 0 852 134 c 0,11,12
 932 305 932 305 932 305 c 1,13,14
 895 307 895 307 739 307 c 2,15,-1
 581 307 l 1,16,17
 552 208 552 208 393 305 c 0,18,19
 335 340 335 340 316 151 c 0,20,21
 302 0 302 0 254 0 c 2,22,-1
 29 0 l 2,23,24
 9 0 9 0 9 14 c 0,25,26
 9 21 9 21 23 59 c 2,27,-1
 268 729 l 2,28,29
 275 748 275 748 456 1196 c 0,30,31
 514 1339 514 1339 532 1389 c 0,32,33
 545 1427 545 1427 558 1427 c 0,34,35
 577 1427 577 1427 614 1422 c 128,-1,36
 651 1417 651 1417 670 1417 c 0,37,38
 688 1417 688 1417 724.5 1422.5 c 128,-1,39
 761 1428 761 1428 778 1428 c 0,40,41
 787 1428 787 1428 803 1391 c 0,42,43
 827 1335 827 1335 1040 788 c 0,44,45
 1341 19 1341 19 1341 12 c 0,1,2
875 564 m 0,46,47
 875 626 875 626 785 824 c 0,48,49
 675 1067 675 1067 677 1082 c 0,50,51
 678 1090 678 1090 676 1062 c 1,52,53
 455 828 455 828 455 565 c 0,54,55
 455 544 455 544 531 525 c 0,56,57
 535 524 535 524 629 524 c 2,58,-1
 732 524 l 2,59,60
 875 524 875 524 875 564 c 0,46,47
EndSplineSet
EndChar
StartChar: B
Encoding: 66 66 37
Width: 1251
GlyphClass: 1
Flags: W
LayerCount: 2
Fore
SplineSet
404 614 m 1024,0,-1
1086 448 m 0,1,2
 1118 177 1118 177 1079 133 c 0,3,4
 968 2 968 2 797 2 c 0,5,6
 733 2 733 2 604.5 5 c 128,-1,7
 476 8 476 8 412 8 c 0,8,9
 365 8 365 8 270.5 4 c 128,-1,10
 176 0 176 0 129 0 c 0,11,12
 104 0 104 0 104 23 c 0,13,14
 104 133 104 133 156 342.5 c 128,-1,15
 208 552 208 552 208 662 c 0,16,17
 208 778 208 778 156 1021.5 c 128,-1,18
 104 1265 104 1265 104 1381 c 0,19,20
 104 1396 104 1396 129 1403 c 0,21,22
 353 1465 353 1465 386 1458 c 0,23,24
 645 1401 645 1401 666 1401 c 0,25,26
 880 1401 880 1401 1001 1323 c 0,27,28
 1038 1299 1038 1299 1038 1060 c 0,29,30
 1038 991 1038 991 1055.5 900.5 c 128,-1,31
 1073 810 1073 810 1016 772 c 0,32,33
 987 753 987 753 987 747 c 256,34,35
 987 741 987 741 1016 725 c 0,36,37
 1104 674 1104 674 1083 610 c 0,38,39
 1071 575 1071 575 1086 448 c 0,1,2
903 1006 m 0,40,41
 903 1147 903 1147 777 1196 c 0,42,43
 701 1225 701 1225 528 1225 c 0,44,45
 360 1225 360 1225 360 1200 c 0,46,47
 360 1167 360 1167 432 1115.5 c 128,-1,48
 504 1064 504 1064 504 1030 c 0,49,50
 504 1007 504 1007 430 944.5 c 128,-1,51
 356 882 356 882 356 858 c 0,52,53
 356 829 356 829 582 829 c 0,54,55
 903 829 903 829 903 1006 c 0,40,41
930 442 m 0,56,57
 930 610 930 610 821 607 c 0,58,59
 678 604 678 604 606 635 c 0,60,61
 447 704 447 704 404 613 c 0,62,63
 358 516 358 516 374 592 c 1,64,-1
 402 426 l 2,65,66
 413 361 413 361 414 314 c 1,67,68
 359 234 359 234 358 223 c 0,69,70
 354 190 354 190 430 192 c 0,71,72
 493 196 493 196 612 203 c 0,73,74
 787 213 787 213 839 244 c 0,75,76
 930 298 930 298 930 442 c 0,56,57
EndSplineSet
EndChar
StartChar: C
Encoding: 67 67 38
Width: 1214
GlyphClass: 1
Flags: W
LayerCount: 2
Fore
SplineSet
1208 217 m 128,-1,1
 1207 219 1207 219 1188 197 c 0,2,3
 993 -29 993 -29 705 -29 c 0,4,5
 405 -29 405 -29 225 190 c 0,6,7
 57 394 57 394 57 700 c 0,8,9
 57 1003 57 1003 228 1212 c 0,10,11
 410 1434 410 1434 709 1434 c 0,12,13
 1024 1434 1024 1434 1178 1229 c 0,14,15
 1202 1197 1202 1197 1194 1194 c 0,16,17
 1082 1154 1082 1154 1082 1154 c 1,18,19
 1108 979 1108 979 1077 1010 c 0,20,21
 1076 1011 1076 1011 1016 1059 c 0,22,23
 907 1146 907 1146 905 1149 c 0,24,25
 795 1302 795 1302 696 1302 c 0,26,27
 532 1302 532 1302 372 1088 c 0,28,29
 221 886 221 886 214 724 c 0,30,31
 211 655 211 655 364 302 c 0,32,33
 497 -5 497 -5 734 158 c 0,34,35
 798 202 798 202 902 258 c 0,36,37
 962 290 962 290 1024 349 c 0,38,39
 1081 403 1081 403 1081 398 c 0,40,41
 1073 269 1073 269 1112 254 c 0,42,0
 1209 215 1209 215 1208 217 c 128,-1,1
EndSplineSet
EndChar
StartChar: D
Encoding: 68 68 39
Width: 1393
GlyphClass: 1
Flags: W
LayerCount: 2
Fore
SplineSet
1239 819 m 0,0,1
 1349 643 1349 643 1175 223 c 0,2,3
 1082 0 1082 0 729 0 c 0,4,5
 677 0 677 0 572.5 4 c 128,-1,6
 468 8 468 8 416 8 c 0,7,8
 369 8 369 8 274.5 4 c 128,-1,9
 180 0 180 0 133 0 c 0,10,11
 108 0 108 0 108 25 c 0,12,13
 108 134 108 134 116.5 354 c 128,-1,14
 125 574 125 574 125 684 c 0,15,16
 125 800 125 800 117 1033 c 128,-1,17
 109 1266 109 1266 109 1382 c 0,18,19
 109 1403 109 1403 135 1403 c 0,20,21
 172 1403 172 1403 245.5 1402 c 128,-1,22
 319 1401 319 1401 356 1401 c 0,23,24
 390 1401 390 1401 460 1402 c 128,-1,25
 530 1403 530 1403 566 1403 c 0,26,27
 913 1403 913 1403 1083 1272 c 0,28,29
 1314 1093 1314 1093 1272 1019 c 0,30,31
 1196 889 1196 889 1239 819 c 0,0,1
978 717 m 0,32,33
 978 1048 978 1048 967 1061 c 0,34,35
 839 1202 839 1202 625 1202 c 0,36,37
 448 1202 448 1202 482 1204 c 1,38,39
 581 1031 581 1031 432 963 c 0,40,41
 362 931 362 931 362 930 c 0,42,43
 197 725 197 725 358 700 c 0,44,45
 702 645 702 645 362 472 c 0,46,47
 332 457 332 457 365 244 c 0,48,49
 371 206 371 206 485 200 c 1,50,51
 469 201 469 201 631 201 c 0,52,53
 746 201 746 201 814 225 c 0,54,55
 893 253 893 253 965 336 c 0,56,57
 978 351 978 351 978 717 c 0,32,33
EndSplineSet
EndChar
StartChar: E
Encoding: 69 69 40
Width: 1102
GlyphClass: 1
Flags: W
LayerCount: 2
Fore
SplineSet
970 288 m 0,0,1
 1002 301 1002 301 1027 249 c 0,2,3
 1048 207 1048 207 1006 207 c 0,4,5
 950 207 950 207 997 157 c 0,6,7
 1013 140 1013 140 971 139 c 0,8,9
 942 139 942 139 933 143 c 0,10,11
 859 177 859 177 607 177 c 0,12,13
 534 177 534 177 359.5 165 c 128,-1,14
 185 153 185 153 112 153 c 0,15,16
 79 153 79 153 79 182 c 0,17,18
 79 497 79 497 92 518 c 0,19,20
 193 693 193 693 154 855 c 0,21,22
 97 1094 97 1094 92 1280 c 0,23,24
 89 1407 89 1407 81 1519 c 2,25,-1
 80 1533 l 2,26,27
 78 1556 78 1556 106 1556 c 0,28,29
 176 1556 176 1556 316 1552 c 128,-1,30
 456 1548 456 1548 526 1548 c 0,31,32
 593 1548 593 1548 726 1552 c 0,33,34
 912 1558 912 1558 927 1556 c 0,35,36
 1012 1544 1012 1544 978 1527 c 0,37,38
 832 1455 832 1455 999 1363 c 0,39,40
 1030 1346 1030 1346 977 1340 c 0,41,42
 947 1337 947 1337 720 1350 c 0,43,44
 547 1359 547 1359 460 1359 c 0,45,46
 378 1359 378 1359 356.5 1337 c 128,-1,47
 335 1315 335 1315 335 1228 c 2,48,-1
 335 1079 l 2,49,50
 335 1018 335 1018 338 1008 c 0,51,52
 352 960 352 960 390 977 c 0,53,54
 409 986 409 986 424 978 c 0,55,56
 529 921 529 921 529 921 c 1,57,58
 810 985 810 985 810 985 c 1,59,60
 920 996 920 996 954 995 c 0,61,62
 1000 993 1000 993 975 977 c 0,63,64
 892 927 892 927 890 886 c 0,65,66
 889 835 889 835 960 780 c 0,67,68
 974 769 974 769 930 762 c 0,69,70
 875 753 875 753 841 769 c 0,71,72
 668 852 668 852 520 807 c 0,73,74
 409 773 409 773 380 771 c 0,75,76
 340 768 340 768 334 729 c 1,77,78
 335 736 335 736 335 652 c 2,79,-1
 335 504 l 2,80,81
 335 390 335 390 367 374 c 0,82,83
 496 312 496 312 490 267 c 1,84,-1
 602 354 l 2,85,86
 607 358 607 358 995 378 c 1,87,-1
 1010 379 l 1,88,89
 888 255 888 255 970 288 c 0,0,1
EndSplineSet
EndChar
StartChar: F
Encoding: 70 70 41
Width: 1092
GlyphClass: 1
Flags: W
LayerCount: 2
Fore
SplineSet
1065 1198 m 0,0,1
 1065 1179 1065 1179 1044 1179 c 0,2,3
 1022 1179 1022 1179 788 1188 c 0,4,5
 606 1195 606 1195 532 1194 c 2,6,-1
 459 1193 l 2,7,8
 389 1192 389 1192 385 1190 c 0,9,10
 365 1182 365 1182 365 1127 c 2,11,-1
 365 886 l 2,12,13
 365 818 365 818 394 818 c 0,14,15
 491 818 491 818 686.5 827 c 128,-1,16
 882 836 882 836 979 836 c 0,17,18
 1000 836 1000 836 1000 820 c 0,19,20
 1000 803 1000 803 997.5 769.5 c 128,-1,21
 995 736 995 736 995 719 c 0,22,23
 995 701 995 701 997 664.5 c 128,-1,24
 999 628 999 628 999 610 c 0,25,26
 999 598 999 598 978 598 c 0,27,28
 909 598 909 598 768.5 602 c 128,-1,29
 628 606 628 606 558 606 c 0,30,31
 429 606 429 606 412 604 c 0,32,33
 367 599 367 599 367 567 c 0,34,35
 367 477 367 477 372 297 c 128,-1,36
 377 117 377 117 377 27 c 0,37,38
 377 -3 377 -3 353 -3 c 0,39,40
 333 -3 333 -3 292.5 227.5 c 128,-1,41
 252 458 252 458 231 458 c 0,42,43
 214 458 214 458 219 233 c 256,44,45
 224 8 224 8 207 0 c 0,46,47
 158 -23 158 -23 147 0 c 0,48,49
 63 170 63 170 166 371 c 0,50,51
 167 373 167 373 180 701 c 0,52,53
 192 1006 192 1006 204 1310 c 1,54,-1
 102 1373 l 2,55,56
 101 1374 101 1374 189 1391 c 0,57,58
 253 1403 253 1403 254 1394 c 0,59,60
 255 1388 255 1388 545 1393 c 0,61,62
 803 1397 803 1397 1006 1413 c 0,63,64
 1044 1416 1044 1416 1049 1380 c 1,65,66
 850 1261 850 1261 609 1274 c 1,67,68
 1065 1250 1065 1250 1065 1198 c 0,0,1
EndSplineSet
EndChar
StartChar: G
Encoding: 71 71 42
Width: 1382
GlyphClass: 1
Flags: W
LayerCount: 2
Fore
SplineSet
1328 49 m 2,0,1
 1330 27 1330 27 1303 27 c 0,2,3
 1288 27 1288 27 1230.5 55.5 c 128,-1,4
 1173 84 1173 84 1157 96 c 1,5,6
 973 -29 973 -29 721 -29 c 0,7,8
 427 -29 427 -29 237 191 c 0,9,10
 57 399 57 399 57 698 c 0,11,12
 57 1004 57 1004 234 1212 c 0,13,14
 421 1432 421 1432 721 1432 c 0,15,16
 875 1432 875 1432 1017.5 1359.5 c 128,-1,17
 1160 1287 1160 1287 1245 1161 c 0,18,19
 1258 1142 1258 1142 1258 1132 c 0,20,21
 1258 1118 1258 1118 1186.5 1039.5 c 128,-1,22
 1115 961 1115 961 1104 961 c 0,23,24
 1096 961 1096 961 1043 1022 c 0,25,26
 989 1085 989 1085 921 1135 c 0,27,28
 696 1304 696 1304 694 1304 c 0,29,30
 623 1304 623 1304 421 1038 c 0,31,32
 196 741 196 741 196 677 c 0,33,34
 196 651 196 651 424 360 c 0,35,36
 698 9 698 9 724 29 c 0,37,38
 896 165 896 165 1069 301 c 1,39,40
 1062 391 1062 391 1052 491 c 0,41,42
 1040 607 1040 607 1040 680 c 0,43,44
 1040 697 1040 697 1062 697 c 0,45,46
 1081 697 1081 697 1119 694.5 c 128,-1,47
 1157 692 1157 692 1176 692 c 256,48,49
 1195 692 1195 692 1234 694 c 128,-1,50
 1273 696 1273 696 1292 696 c 0,51,52
 1313 696 1313 696 1313 664 c 0,53,54
 1313 629 1313 629 1310.5 558.5 c 128,-1,55
 1308 488 1308 488 1308 453 c 0,56,57
 1308 329 1308 329 1327 63 c 2,58,-1
 1328 49 l 2,0,1
EndSplineSet
EndChar
StartChar: H
Encoding: 72 72 43
Width: 1466
GlyphClass: 1
Flags: W
LayerCount: 2
Fore
SplineSet
1365 23 m 0,0,1
 1365 0 1365 0 1335 0 c 0,2,3
 1318 0 1318 0 1282.5 3 c 128,-1,4
 1247 6 1247 6 1229 6 c 0,5,6
 1210 6 1210 6 1171.5 3 c 128,-1,7
 1133 0 1133 0 1114 0 c 0,8,9
 1091 0 1091 0 1091 23 c 0,10,11
 1091 113 1091 113 1096.5 293 c 128,-1,12
 1102 473 1102 473 1102 563 c 0,13,14
 1102 602 1102 602 1079 608 c 0,15,16
 789 685 789 685 709 670 c 0,17,18
 387 608 387 608 387 608 c 2,19,20
 365 602 365 602 365 563 c 0,21,22
 365 475 365 475 370 298 c 128,-1,23
 375 121 375 121 375 33 c 0,24,25
 375 0 375 0 350 0 c 0,26,27
 331 0 331 0 293 3 c 128,-1,28
 255 6 255 6 236 6 c 0,29,30
 218 6 218 6 182.5 3 c 128,-1,31
 147 0 147 0 129 0 c 0,32,33
 104 0 104 0 104 23 c 0,34,35
 104 133 104 133 105 355.5 c 128,-1,36
 106 578 106 578 106 688 c 0,37,38
 106 804 106 804 105 1034.5 c 128,-1,39
 104 1265 104 1265 104 1381 c 0,40,41
 104 1403 104 1403 129 1403 c 0,42,43
 147 1403 147 1403 184 1400 c 128,-1,44
 221 1397 221 1397 240 1397 c 0,45,46
 258 1397 258 1397 296 1400 c 128,-1,47
 334 1403 334 1403 352 1403 c 0,48,49
 365 1403 365 1403 375 1385 c 0,50,51
 462 1222 462 1222 433 1123 c 0,52,53
 360 872 360 872 360 868 c 0,54,55
 360 842 360 842 381 834 c 0,56,57
 701 718 701 718 730 727 c 0,58,59
 1060 819 1060 819 1085 830 c 0,60,61
 1121 847 1121 847 1106 877 c 0,62,63
 980 1143 980 1143 1048 1255 c 0,64,65
 1095 1333 1095 1333 1095 1383 c 0,66,67
 1095 1403 1095 1403 1118 1403 c 0,68,69
 1137 1403 1137 1403 1173.5 1400 c 128,-1,70
 1210 1397 1210 1397 1229 1397 c 0,71,72
 1247 1397 1247 1397 1283 1400 c 128,-1,73
 1319 1403 1319 1403 1337 1403 c 0,74,75
 1363 1403 1363 1403 1363 1381 c 0,76,77
 1363 1265 1363 1265 1363 1025.5 c 128,-1,78
 1363 786 1363 786 1363 670 c 0,79,80
 1363 560 1363 560 1364 346.5 c 128,-1,81
 1365 133 1365 133 1365 23 c 0,0,1
EndSplineSet
EndChar
StartChar: I
Encoding: 73 73 44
Width: 485
GlyphClass: 1
Flags: W
LayerCount: 2
Fore
SplineSet
379 21 m 0,0,1
 379 0 379 0 350 0 c 0,2,3
 332 0 332 0 295 3 c 128,-1,4
 258 6 258 6 240 6 c 0,5,6
 221 6 221 6 184 3 c 128,-1,7
 147 0 147 0 129 0 c 0,8,9
 104 0 104 0 104 23 c 0,10,11
 104 137 104 137 114.5 366.5 c 128,-1,12
 125 596 125 596 125 711 c 0,13,14
 125 822 125 822 114.5 1044.5 c 128,-1,15
 104 1267 104 1267 104 1378 c 0,16,17
 104 1403 104 1403 127 1403 c 0,18,19
 146 1403 146 1403 186 1029 c 128,-1,20
 226 655 226 655 246 655 c 0,21,22
 264 655 264 655 299 1029 c 128,-1,23
 334 1403 334 1403 352 1403 c 0,24,25
 378 1403 378 1403 378 1383 c 0,26,27
 378 1271 378 1271 370 1047 c 128,-1,28
 362 823 362 823 362 711 c 0,29,30
 362 596 362 596 370.5 366 c 128,-1,31
 379 136 379 136 379 21 c 0,0,1
EndSplineSet
EndChar
StartChar: J
Encoding: 74 74 45
Width: 547
GlyphClass: 1
Flags: W
LayerCount: 2
Fore
SplineSet
445 1381 m 0,0,1
 445 1283 445 1283 437.5 1086.5 c 128,-1,2
 430 890 430 890 430 792 c 0,3,4
 430 744 430 744 431 650 c 128,-1,5
 432 556 432 556 432 509 c 0,6,7
 432 290 432 290 392 154 c 0,8,9
 338 -30 338 -30 199 -141 c 0,10,11
 180 -156 180 -156 172 -156 c 0,12,13
 165 -156 165 -156 156 -145 c 0,14,15
 85 -65 85 -65 16 -2 c 0,16,17
 7 6 7 6 7 13 c 0,18,19
 7 21 7 21 18 31 c 0,20,21
 86 90 86 90 110 119 c 0,22,23
 147 167 147 167 166 236 c 0,24,25
 191 328 191 328 191 615 c 2,26,-1
 190 766 l 2,27,28
 190 860 190 860 178 1069 c 0,29,30
 166 1270 166 1270 166 1372 c 0,31,32
 166 1401 166 1401 195 1401 c 0,33,34
 214 1401 214 1401 252 1398 c 128,-1,35
 290 1395 290 1395 309 1395 c 256,36,37
 328 1395 328 1395 365 1398 c 128,-1,38
 402 1401 402 1401 420 1401 c 0,39,40
 445 1401 445 1401 445 1381 c 0,0,1
EndSplineSet
EndChar
StartChar: K
Encoding: 75 75 46
Width: 1221
GlyphClass: 1
Flags: W
LayerCount: 2
Fore
SplineSet
1211 47 m 0,0,1
 1211 0 1211 0 1182 0 c 2,2,-1
 952 0 l 2,3,4
 923 0 923 0 801 213 c 0,5,6
 698 393 698 393 664 473 c 0,7,8
 630 550 630 550 625 559 c 0,9,10
 595 609 595 609 555 612 c 0,11,12
 543 613 543 613 488 613 c 0,13,14
 362 613 362 613 362 582 c 0,15,16
 362 490 362 490 368.5 307 c 128,-1,17
 375 124 375 124 375 33 c 0,18,19
 375 0 375 0 350 0 c 0,20,21
 331 0 331 0 293 3 c 128,-1,22
 255 6 255 6 236 6 c 0,23,24
 218 6 218 6 182.5 3 c 128,-1,25
 147 0 147 0 129 0 c 0,26,27
 104 0 104 0 104 23 c 0,28,29
 104 133 104 133 114.5 353.5 c 128,-1,30
 125 574 125 574 125 684 c 0,31,32
 125 800 125 800 114.5 1032.5 c 128,-1,33
 104 1265 104 1265 104 1381 c 0,34,35
 104 1403 104 1403 129 1403 c 0,36,37
 147 1403 147 1403 184 1400 c 128,-1,38
 221 1397 221 1397 240 1397 c 0,39,40
 258 1397 258 1397 294 1400 c 128,-1,41
 330 1403 330 1403 348 1403 c 0,42,43
 371 1403 371 1403 371 1385 c 0,44,45
 371 1300 371 1300 365.5 1129 c 128,-1,46
 360 958 360 958 360 872 c 0,47,48
 360 833 360 833 365 823 c 0,49,50
 373 805 373 805 406 805 c 0,51,52
 600 805 600 805 690 877 c 0,53,54
 767 941 767 941 836 1112 c 0,55,56
 886 1246 886 1246 936 1380 c 0,57,58
 943 1397 943 1397 967 1403 c 0,59,60
 983 1407 983 1407 1073 1407 c 0,61,62
 1183 1407 1183 1407 1183 1376 c 0,63,64
 1183 1358 1183 1358 1137 1214 c 0,65,66
 1083 1046 1083 1046 997 918 c 0,67,68
 940 831 940 831 846 743 c 0,69,70
 822 722 822 722 822 705 c 0,71,72
 822 687 822 687 903 526 c 0,73,74
 973 387 973 387 1030 303 c 1,75,76
 1093 226 1093 226 1206 66 c 0,77,78
 1211 57 1211 57 1211 47 c 0,0,1
EndSplineSet
EndChar
StartChar: L
Encoding: 76 76 47
Width: 1059
GlyphClass: 1
Flags: W
LayerCount: 2
Fore
SplineSet
1047 217 m 0,0,1
 1047 77 1047 77 1032 18 c 0,2,3
 1025 -11 1025 -11 997 -11 c 0,4,5
 923 -11 923 -11 775 -2.5 c 128,-1,6
 627 6 627 6 553 6 c 0,7,8
 483 6 483 6 344 3 c 128,-1,9
 205 0 205 0 135 0 c 0,10,11
 110 0 110 0 110 25 c 0,12,13
 110 134 110 134 117.5 354 c 128,-1,14
 125 574 125 574 125 684 c 0,15,16
 125 800 125 800 114.5 1031.5 c 128,-1,17
 104 1263 104 1263 104 1379 c 0,18,19
 104 1401 104 1401 129 1401 c 0,20,21
 147 1401 147 1401 184 1398 c 128,-1,22
 221 1395 221 1395 240 1395 c 0,23,24
 258 1395 258 1395 296 1398 c 128,-1,25
 334 1401 334 1401 352 1401 c 0,26,27
 376 1401 376 1401 376 1382 c 0,28,29
 376 1276 376 1276 368 1063 c 128,-1,30
 360 850 360 850 360 743 c 0,31,32
 360 691 360 691 360 585 c 0,33,34
 359 479 359 479 359 427 c 0,35,36
 359 205 359 205 377 205 c 0,37,38
 746 205 746 205 934 223 c 0,39,40
 943 224 943 224 980 230 c 0,41,42
 1010 236 1010 236 1026 236 c 0,43,44
 1047 236 1047 236 1047 217 c 0,0,1
EndSplineSet
EndChar
StartChar: M
Encoding: 77 77 48
Width: 1618
GlyphClass: 1
Flags: W
LayerCount: 2
Fore
SplineSet
1510 25 m 0,0,1
 1510 0 1510 0 1485 0 c 0,2,3
 1467 0 1467 0 1430.5 3 c 128,-1,4
 1394 6 1394 6 1376 6 c 256,5,6
 1358 6 1358 6 1321 3 c 128,-1,7
 1284 0 1284 0 1266 0 c 0,8,9
 1241 0 1241 0 1241 33 c 0,10,11
 1241 160 1241 160 1249 414 c 128,-1,12
 1257 668 1257 668 1257 795 c 0,13,14
 1257 814 1257 814 1249 814 c 0,15,16
 1240 814 1240 814 1235 803 c 0,17,18
 1184 694 1184 694 994 221 c 1,19,20
 963 130 963 130 905 -6 c 0,21,22
 898 -19 898 -19 833 -19 c 0,23,24
 739 -19 739 -19 729 -2 c 0,25,26
 695 79 695 79 632 225 c 0,27,28
 549 423 549 423 377 815 c 0,29,30
 374 822 374 822 364 829 c 1,31,32
 356 823 356 823 356 807 c 0,33,34
 356 678 356 678 360.5 420 c 128,-1,35
 365 162 365 162 365 33 c 0,36,37
 365 0 365 0 340 0 c 0,38,39
 323 0 323 0 288 3 c 128,-1,40
 253 6 253 6 236 6 c 0,41,42
 218 6 218 6 182.5 3 c 128,-1,43
 147 0 147 0 129 0 c 0,44,45
 104 0 104 0 104 19 c 0,46,47
 104 130 104 130 114.5 351.5 c 128,-1,48
 125 573 125 573 125 684 c 0,49,50
 125 799 125 799 114.5 1029.5 c 128,-1,51
 104 1260 104 1260 104 1375 c 0,52,53
 104 1394 104 1394 127 1397 c 0,54,55
 263 1415 263 1415 332 1415 c 0,56,57
 342 1415 342 1415 360 1374 c 0,58,59
 602 842 602 842 776 424 c 0,60,61
 817 326 817 326 825 326 c 0,62,63
 835 326 835 326 868 406 c 0,64,65
 1004 730 1004 730 1245 1368 c 0,66,67
 1260 1407 1260 1407 1278 1407 c 0,68,69
 1312 1407 1312 1407 1380.5 1403 c 128,-1,70
 1449 1399 1449 1399 1483 1399 c 0,71,72
 1508 1399 1508 1399 1508 1375 c 0,73,74
 1508 1260 1508 1260 1500.5 1029.5 c 128,-1,75
 1493 799 1493 799 1493 684 c 0,76,77
 1493 574 1493 574 1501.5 354 c 128,-1,78
 1510 134 1510 134 1510 25 c 0,0,1
EndSplineSet
EndChar
StartChar: N
Encoding: 78 78 49
Width: 1470
GlyphClass: 1
Flags: W
LayerCount: 2
Fore
SplineSet
1362 1381 m 0,0,1
 1362 1266 1362 1266 1354 1034 c 128,-1,2
 1346 802 1346 802 1346 686 c 0,3,4
 1346 577 1346 577 1348 359.5 c 128,-1,5
 1350 142 1350 142 1350 33 c 0,6,7
 1350 0 1350 0 1325 0 c 0,8,9
 1310 0 1310 0 1280 3 c 128,-1,10
 1250 6 1250 6 1235 6 c 0,11,12
 1219 6 1219 6 1186 3 c 128,-1,13
 1153 0 1153 0 1137 0 c 0,14,15
 1119 0 1119 0 1094 33 c 0,16,17
 878 324 878 324 439 901 c 0,18,19
 371 989 371 989 360 999 c 1,20,21
 350 999 350 999 350 958 c 0,22,23
 350 804 350 804 355 495.5 c 128,-1,24
 360 187 360 187 360 33 c 0,25,26
 360 0 360 0 340 0 c 0,27,28
 323 0 323 0 288 3 c 128,-1,29
 253 6 253 6 236 6 c 0,30,31
 218 6 218 6 182.5 3 c 128,-1,32
 147 0 147 0 129 0 c 0,33,34
 104 0 104 0 104 20 c 0,35,36
 104 130 104 130 114.5 351.5 c 128,-1,37
 125 573 125 573 125 684 c 0,38,39
 125 805 125 805 116 1120 c 0,40,41
 114 1202 114 1202 106 1366 c 1,42,-1
 105 1379 l 2,43,44
 104 1394 104 1394 129 1395 c 0,45,46
 194 1396 194 1396 231 1399 c 0,47,48
 245 1400 245 1400 284 1407 c 0,49,50
 317 1413 317 1413 336 1413 c 0,51,52
 345 1413 345 1413 367 1384 c 0,53,54
 597 1068 597 1068 1071 444 c 0,55,56
 1092 418 1092 418 1110 399 c 1,57,58
 1117 441 1117 441 1117 591 c 0,59,60
 1117 721 1117 721 1107.5 981 c 128,-1,61
 1098 1241 1098 1241 1098 1370 c 0,62,63
 1098 1403 1098 1403 1118 1403 c 0,64,65
 1136 1403 1136 1403 1172.5 1400 c 128,-1,66
 1209 1397 1209 1397 1227 1397 c 0,67,68
 1246 1397 1246 1397 1284 1400 c 128,-1,69
 1322 1403 1322 1403 1341 1403 c 0,70,71
 1362 1403 1362 1403 1362 1381 c 0,0,1
EndSplineSet
EndChar
StartChar: O
Encoding: 79 79 50
Width: 1485
GlyphClass: 1
Flags: W
LayerCount: 2
Fore
SplineSet
1425 702 m 256,0,1
 1425 405 1425 405 1235 191 c 0,2,3
 1037 -31 1037 -31 743 -31 c 0,4,5
 448 -31 448 -31 251 190 c 0,6,7
 61 403 61 403 61 702 c 0,8,9
 61 998 61 998 253 1213 c 0,10,11
 451 1436 451 1436 743 1436 c 0,12,13
 1036 1436 1036 1436 1234 1213 c 0,14,15
 1425 999 1425 999 1425 702 c 256,0,1
1184 705 m 0,16,17
 1184 901 1184 901 1062 1046 c 0,18,19
 934 1200 934 1200 741 1200 c 0,20,21
 550 1200 550 1200 423 1044 c 0,22,23
 303 898 303 898 303 702 c 0,24,25
 303 507 303 507 423 361 c 0,26,27
 550 205 550 205 741 205 c 0,28,29
 935 205 935 205 1063 361 c 0,30,31
 1184 507 1184 507 1184 705 c 0,16,17
EndSplineSet
EndChar
StartChar: P
Encoding: 80 80 51
Width: 1278
GlyphClass: 1
Flags: W
LayerCount: 2
Fore
SplineSet
1146 876 m 0,0,1
 1193 600 1193 600 1110 509 c 0,2,3
 979 364 979 364 747 364 c 0,4,5
 690 364 690 364 574.5 368.5 c 128,-1,6
 459 373 459 373 401 373 c 0,7,8
 369 373 369 373 369 332 c 0,9,10
 369 279 369 279 358 161 c 128,-1,11
 347 43 347 43 348 39 c 4,12,13
 357 0 357 0 363 -3 c 0,14,15
 303 28 303 28 252.5 40.5 c 0,16,17
 182 58 182 58 189 45 c 0,18,19
 216 -10 216 -10 200.5 4.5 c 0,20,21
 100 102 100 102 73 102 c 0,22,23
 92 102 92 102 93 114 c 0,24,25
 113 296 113 296 115.5 360 c 0,26,27
 125 688 125 688 125 690 c 0,28,29
 198.018050132 1320.15577512 198.018050132 1320.15577512 102 1360 c 2,30,-1
 249 1299 l 2,31,32
 243 1302 243 1302 249 1383 c 0,33,34
 250 1396 250 1396 289.5 1396 c 0,35,36
 398 1395 398 1395 453 1395 c 0,37,38
 500 1395 500 1395 594 1399 c 128,-1,39
 688 1403 688 1403 735 1403 c 0,40,41
 1129 1403 1129 1403 1098 1253 c 0,42,43
 1089 1210 1089 1210 1146 876 c 0,0,1
897 861 m 0,44,45
 959 1048 959 1048 904 1110 c 0,46,47
 820 1204 820 1204 672 1204 c 0,48,49
 643 1204 643 1204 508 1196 c 128,-1,50
 373 1188 373 1188 369 1180 c 0,51,52
 362 1168 362 1168 362 836 c 0,53,54
 362 794 362 794 364.5 710 c 128,-1,55
 367 626 367 626 367 584 c 0,56,57
 367 575 367 575 389 570 c 0,58,59
 444 559 444 559 694 559 c 0,60,61
 920 559 920 559 912 646 c 0,62,63
 892 848 892 848 897 861 c 0,44,45
EndSplineSet
EndChar
StartChar: Q
Encoding: 81 81 52
Width: 1485
GlyphClass: 1
Flags: W
LayerCount: 2
Fore
SplineSet
1390.5 637.5 m 128,-1,1
 1425 439 1425 439 1266 235 c 0,2,3
 1099 21 1099 21 842 -12 c 1,4,5
 861 -2 861 -2 1001 -187 c 0,6,7
 1053 -255 1053 -255 1022 -256 c 0,8,9
 966 -257 966 -257 911 -258 c 1,10,11
 821 -258 821 -258 821 -258 c 0,12,13
 522.218978102 -258 522.218978102 -258 512 -283 c 0,14,15
 568 -146 568 -146 625 -10 c 1,16,17
 538 7 538 7 299 317 c 4,18,19
 61 625 61 625 61 705 c 0,20,21
 61 998 61 998 254 1213 c 0,22,23
 453 1436 453 1436 743 1436 c 0,24,25
 819 1436 819 1436 1163 1052 c 0,26,0
 1356 836 1356 836 1390.5 637.5 c 128,-1,1
1186 705 m 0,27,28
 914 816 914 816 899 893 c 0,29,30
 838 1196 838 1196 741 1196 c 0,31,32
 601 1196 601 1196 422 1042 c 0,33,34
 235 881 235 881 301 702 c 0,35,36
 407 413 407 413 407 413 c 0,37,38
 905 365 905 365 905 365 c 0,39,40
 1032 269 1032 269 1130.91146881 421.863179074 c 0,41,42
 1287 664 1287 664 1186 705 c 0,27,28
EndSplineSet
EndChar
StartChar: R
Encoding: 82 82 53
Width: 1217
GlyphClass: 1
Flags: W
LayerCount: 2
Fore
SplineSet
1185 8 m 0,0,1
 1185 0 1185 0 1169 0 c 0,2,3
 1150 0 1150 0 1111 3 c 128,-1,4
 1072 6 1072 6 1053 6 c 0,5,6
 1032 6 1032 6 990.5 3 c 128,-1,7
 949 0 949 0 928 0 c 0,8,9
 914 0 914 0 893 25 c 0,10,11
 695 266 695 266 671 380 c 0,12,13
 648 486 648 486 636.5 488.5 c 128,-1,14
 625 491 625 491 547 491 c 0,15,16
 409 491 409 491 383 487 c 0,17,18
 362 484 362 484 362 436 c 0,19,20
 362 366 362 366 368.5 226.5 c 128,-1,21
 375 87 375 87 375 18 c 0,22,23
 375 -3 375 -3 355 -3 c 256,24,25
 335 -3 335 -3 294.5 1.5 c 128,-1,26
 254 6 254 6 233 6 c 0,27,28
 216 6 216 6 181 3 c 128,-1,29
 146 0 146 0 129 0 c 0,30,31
 104 0 104 0 104 23 c 0,32,33
 104 134 104 134 114.5 356.5 c 0,34,35
 127 626 127 626 125 690 c 0,36,37
 102 1364 102 1364 102 1364 c 2,38,-1
 167 1292 l 2,39,40
 202 1253 202 1253 257 1358 c 0,41,42
 289 1418 289 1418 400.5 1404.5 c 0,43,44
 475 1396 475 1396 657 1409 c 0,45,46
 748 1416 748 1416 980 1247 c 4,47,48
 1073 1179 1073 1179 1098 968 c 0,49,50
 1113 846 1113 846 1058 735 c 0,51,52
 1001 620 1001 620 944 565.5 c 128,-1,53
 887 511 887 511 890 506 c 0,54,55
 1057 294 1057 294 1065.5 276 c 0,56,57
 1185 24 1185 24 1185 8 c 0,0,1
911 915 m 0,58,59
 911 1115 911 1115 807 1157 c 0,60,61
 375 1331 375 1331 530 1202 c 0,62,63
 573 1166 573 1166 443 1076 c 0,64,65
 358 1017 358 1017 358 887 c 2,66,-1
 358 696 l 2,67,68
 358 693 358 693 371 692 c 0,69,70
 389 690 389 690 430 687 c 0,71,72
 525 682 525 682 635 682 c 0,73,74
 911 682 911 682 911 915 c 0,58,59
EndSplineSet
EndChar
StartChar: S
Encoding: 83 83 54
Width: 956
GlyphClass: 1
Flags: W
LayerCount: 2
Fore
SplineSet
905 1302 m 1,0,1
 837 1261 837 1261 769 1220 c 1,2,3
 824 1136 824 1136 811 1114 c 0,4,5
 806 1105 806 1105 795 1105 c 1,6,7
 796 1105 796 1105 698.5 1140.5 c 128,-1,8
 601 1176 601 1176 538 1176 c 0,9,10
 354 1176 354 1176 354 1014 c 0,11,12
 354 823 354 823 442 806 c 4,13,14
 684 758 684 758 723 727 c 0,15,16
 852 624 852 624 852 449 c 0,17,18
 852 225 852 225 675 96 c 0,19,20
 516 -20 516 -20 284 -20 c 0,21,22
 176 -20 176 -20 168 4 c 1,23,24
 333 66 333 66 271 101 c 0,25,26
 144 173 144 173 125 205 c 0,27,28
 122 210 122 210 122 222 c 0,29,30
 122 236 122 236 137 236 c 0,31,32
 161 236 161 236 210.5 231 c 128,-1,33
 260 226 260 226 285 226 c 0,34,35
 595 226 595 226 595 426 c 0,36,37
 595 524 595 524 470 596 c 0,38,39
 242 726 242 726 237 731 c 0,40,41
 111 833 111 833 111 1005 c 0,42,43
 111 1191 111 1191 233 1303 c 0,44,45
 352 1411 352 1411 541 1411 c 0,46,47
 621 1411 621 1411 725 1385 c 0,48,49
 846 1354 846 1354 895 1315 c 0,50,51
 900 1311 900 1311 905 1302 c 1,0,1
EndSplineSet
EndChar
StartChar: T
Encoding: 84 84 55
Width: 1051
GlyphClass: 1
Flags: W
LayerCount: 2
Fore
SplineSet
1034 1214 m 0,0,1
 1034 1188 1034 1188 1016 1188 c 0,2,3
 988 1188 988 1188 662 1200 c 1,4,5
 653 895 653 895 653 711 c 0,6,7
 653 596 653 596 661.5 366 c 128,-1,8
 670 136 670 136 670 21 c 0,9,10
 670 180 670 180 678 180 c 0,11,12
 660 180 660 180 616 173.5 c 128,-1,13
 572 167 572 167 542 159 c 0,14,15
 525 154 525 154 488.5 122.5 c 128,-1,16
 452 91 452 91 452 90 c 0,17,18
 395 -19 395 -19 395 25 c 0,19,20
 395 139 395 139 404.5 367.5 c 128,-1,21
 414 596 414 596 414 711 c 0,22,23
 414 889 414 889 403 1200 c 1,24,25
 266 1266 266 1266 124 1266 c 4,26,27
 13 1266 13 1266 13 1194 c 0,28,29
 13 1212 13 1212 22 1246 c 0,30,31
 35 1298 35 1298 35 1298 c 0,32,33
 40 1356 40 1356 49 1395 c 0,34,35
 52.0350877193 1409.16374269 52.0350877193 1409.16374269 66 1408 c 2,36,-1
 78 1407 l 1,37,38
 480 1654 480 1654 608 1572 c 0,39,40
 872 1401 872 1401 872 1401 c 0,41,42
 1027 1411 1027 1411 1001 1411 c 1,43,44
 1027 1411 1027 1411 1030 1393 c 1,45,46
 1028 1404 1028 1404 1028 1296 c 0,47,48
 1028 1283 1028 1283 1031 1255.5 c 128,-1,49
 1034 1228 1034 1228 1034 1214 c 0,0,1
EndSplineSet
EndChar
StartChar: U
Encoding: 85 85 56
Width: 1352
GlyphClass: 1
Flags: W
LayerCount: 2
Fore
SplineSet
1250 1381 m 0,0,1
 1250 1265 1250 1265 1240.5 1033.5 c 128,-1,2
 1231 802 1231 802 1231 686 c 0,3,4
 1231 648 1231 648 1232 572.5 c 128,-1,5
 1233 497 1233 497 1233 460 c 0,6,7
 1233 251 1233 251 1194 170 c 0,8,9
 1134 46 1134 46 961 2 c 0,10,11
 855 -25 855 -25 662 -25 c 0,12,13
 312 -25 312 -25 203 91 c 0,14,15
 119 181 119 181 119 451 c 0,16,17
 119 484 119 484 120 562.5 c 128,-1,18
 121 641 121 641 121 686 c 0,19,20
 121 722 121 722 111 1121 c 0,21,22
 106 1322 106 1322 102 1366 c 0,23,24
 101 1378 101 1378 101 1382 c 0,25,26
 101 1403 101 1403 127 1403 c 0,27,28
 168 1403 168 1403 238 1402 c 0,29,30
 319 1401 319 1401 348 1401 c 0,31,32
 680 1401 680 1401 680 1332 c 4,33,34
 680 1180 680 1180 519 900.5 c 128,-1,35
 358 621 358 621 358 469 c 0,36,37
 358 299 358 299 435 236 c 0,38,39
 501 182 501 182 678 182 c 0,40,41
 839 182 839 182 907 226 c 0,42,43
 993 281 993 281 993 432 c 0,44,45
 993 590 993 590 988 906.5 c 128,-1,46
 983 1223 983 1223 983 1381 c 0,47,48
 983 1397 983 1397 1012 1401 c 0,49,50
 1033 1404 1033 1404 1072 1401 c 0,51,52
 1118 1397 1118 1397 1116 1397 c 1,53,54
 1134 1397 1134 1397 1170.5 1400 c 128,-1,55
 1207 1403 1207 1403 1225 1403 c 0,56,57
 1250 1403 1250 1403 1250 1381 c 0,0,1
EndSplineSet
EndChar
StartChar: V
Encoding: 86 86 57
Width: 1268
GlyphClass: 1
Flags: W
LayerCount: 2
Fore
SplineSet
428 618 m 24,0,1
 367 799 367 799 548 861 c 1048,2,-1
1206 903 m 0,3,4
 1206 856 1206 856 1010 491 c 0,5,6
 762 29 762 29 762 29 c 0,7,8
 747 0 747 0 729 0 c 2,9,-1
 528 0 l 2,10,11
 514 0 514 0 500 29 c 0,12,13
 497 35 497 35 262 477 c 0,14,15
 61 856 61 856 61 891 c 0,16,17
 61 970 61 970 29.3796287887 1153.30092009 c 0,18,19
 -2 1337 -2 1337 72 1366 c 0,20,21
 392.026378676 1489.62389706 392.026378676 1489.62389706 394 1491 c 0,22,23
 285 1415 285 1415 179.25 1398.5 c 0,24,25
 170 1397 170 1397 207 1397 c 0,26,27
 225 1397 225 1397 464.5 1415.5 c 128,-1,28
 704 1434 704 1434 722 1434 c 0,29,30
 340 1434 340 1434 340 1384 c 0,31,32
 340 1303 340 1303 329.5 1140 c 128,-1,33
 319 977 319 977 319 895 c 0,34,35
 319 827 319 827 629 289 c 1,36,37
 711 429 711 429 807 610 c 0,38,39
 946 872 946 872 946 918 c 0,40,41
 946 996 946 996 941 1151 c 128,-1,42
 936 1306 936 1306 936 1383 c 0,43,44
 936 1403 936 1403 958 1403 c 0,45,46
 977 1403 977 1403 1014 1400 c 128,-1,47
 1051 1397 1051 1397 1069 1397 c 256,48,49
 1087 1397 1087 1397 1123.5 1400 c 128,-1,50
 1160 1403 1160 1403 1178 1403 c 0,51,52
 1200 1403 1200 1403 1203 1384 c 1,53,54
 1202 1391 1202 1391 1202 1346 c 0,55,56
 1202 1272 1202 1272 1204 1124.5 c 128,-1,57
 1206 977 1206 977 1206 903 c 0,3,4
EndSplineSet
EndChar
StartChar: W
Encoding: 87 87 58
Width: 1827
GlyphClass: 1
Flags: W
LayerCount: 2
Fore
SplineSet
1767 891 m 0,0,1
 1764 888 1764 888 1567 463 c 0,2,3
 1423 153 1423 153 1362 27 c 0,4,5
 1349 0 1349 0 1335 0 c 2,6,-1
 1155 0 l 2,7,8
 1136 0 1136 0 1124 27 c 0,9,10
 1050 201 1050 201 911 575 c 1,11,12
 951 296 951 296 712 96 c 0,13,14
 658 51 658 51 658 51 c 6,15,-1
 488 84 l 2,16,17
 396.141692437 101.831318527 396.141692437 101.831318527 459 27 c 0,18,19
 442.901670718 46.2146770193 442.901670718 46.2146770193 252 463 c 0,20,21
 61 882 61 882 61 891 c 0,22,23
 61 973 61 973 66 1138 c 128,-1,24
 71 1303 71 1303 71 1385 c 0,25,26
 71 1403 71 1403 96 1403 c 0,27,28
 114 1403 114 1403 150.5 1400 c 128,-1,29
 187 1397 187 1397 205 1397 c 0,30,31
 222 1397 222 1397 256 1399 c 128,-1,32
 290 1401 290 1401 307 1401 c 0,33,34
 328 1401 328 1401 328 1386 c 0,35,36
 328 1305 328 1305 318.5 1141.5 c 128,-1,37
 309 978 309 978 309 897 c 0,38,39
 309 846 309 846 511 435 c 0,40,41
 579 297 579 297 584 299 c 0,42,43
 589 302 589 302 589 306 c 0,44,45
 567 489 567 489 568 491 c 0,46,47
 640 686 640 686 716 934 c 1,48,49
 791 1033 791 1033 791 1035 c 0,50,51
 791 1094 791 1094 787.5 1211.5 c 128,-1,52
 784 1329 784 1329 784 1388 c 0,53,54
 784 1403 784 1403 805 1403 c 0,55,56
 824 1403 824 1403 862 1400 c 128,-1,57
 900 1397 900 1397 920 1397 c 0,58,59
 937 1397 937 1397 971 1400 c 128,-1,60
 1005 1403 1005 1403 1022 1403 c 0,61,62
 1045 1403 1045 1403 1045 1387 c 0,63,64
 1045 1324 1045 1324 1041 1197.5 c 128,-1,65
 1037 1071 1037 1071 1037 1008 c 0,66,67
 1037 905 1037 905 1038 883 c 0,68,69
 1045 775 1045 775 1189 444 c 0,70,71
 1237 333 1237 333 1241 318 c 0,72,73
 1243 312 1243 312 1245 311 c 0,74,75
 1250 309 1250 309 1316 444 c 0,76,77
 1513 847 1513 847 1513 899 c 0,78,79
 1513 981 1513 981 1504 1144 c 128,-1,80
 1495 1307 1495 1307 1495 1388 c 0,81,82
 1495 1403 1495 1403 1503 1403 c 0,83,84
 1523 1403 1523 1403 1562.5 1400 c 128,-1,85
 1602 1397 1602 1397 1622 1397 c 0,86,87
 1640 1397 1640 1397 1677 1400 c 128,-1,88
 1714 1403 1714 1403 1733 1403 c 0,89,90
 1754 1403 1754 1403 1757 1391 c 1,91,92
 1757 1392 1757 1392 1757 1363 c 0,93,94
 1757 1284 1757 1284 1762 1127 c 0,95,96
 1769 894 1769 894 1767 891 c 0,0,1
EndSplineSet
EndChar
StartChar: X
Encoding: 88 88 59
Width: 1174
GlyphClass: 1
Flags: W
LayerCount: 2
Fore
SplineSet
1122 12 m 2,0,1
 1122 0.136645962733 1122 0.136645962733 1100 0 c 2,2,-1
 939 -1 l 2,3,4
 927 -1 927 -1 926 0 c 0,5,6
 909 6 909 6 753.5 249 c 0,7,8
 595 497 595 497 591 494 c 0,9,10
 440 389 440 389 414 237 c 0,11,12
 374 0 374 0 246 0 c 2,13,-1
 80 0 l 2,14,15
 57 0 57 0 57 16 c 2,16,-1
 57 160 l 2,17,18
 57 179 57 179 245 428.5 c 128,-1,19
 433 678 433 678 433 698 c 0,20,21
 433 720 433 720 246 972 c 128,-1,22
 59 1224 59 1224 59 1239 c 2,23,-1
 59 1393 l 2,24,25
 59 1407 59 1407 86 1407 c 0,26,27
 162.476071626 1327.93333268 162.476071626 1327.93333268 183.302186764 1404.5249219 c 0,28,29
 206 1491 206 1491 254 1403 c 0,30,31
 363.307391832 1241.98412365 363.307391832 1241.98412365 350 1437 c 0,32,33
 524 1001 524 1001 575 915 c 0,34,35
 578 910 578 910 592 900 c 1,36,37
 606 907 606 907 765 1157 c 0,38,39
 922 1403 922 1403 936 1403 c 2,40,-1
 1094 1403 l 2,41,42
 1120 1403 1120 1403 1120 1389 c 2,43,-1
 1120 1235 l 2,44,45
 1120 1210 1120 1210 933.5 962 c 128,-1,46
 747 714 747 714 747 701 c 0,47,48
 747 685 747 685 934.5 429.5 c 128,-1,49
 1122 174 1122 174 1122 156 c 2,50,-1
 1122 12 l 2,0,1
EndSplineSet
EndChar
StartChar: Y
Encoding: 89 89 60
Width: 1202
GlyphClass: 1
Flags: W
LayerCount: 2
Fore
SplineSet
1171 1026 m 256,0,1
 1171 969 1171 969 993 724 c 1,2,3
 875 571 875 571 758 418 c 0,4,5
 729 380 729 380 729 340 c 0,6,7
 729 286 729 286 734.5 178.5 c 128,-1,8
 740 71 740 71 740 18 c 0,9,10
 740 0 740 0 715 0 c 2,11,-1
 477 0 l 2,12,13
 457 0 457 0 457 29 c 0,14,15
 457 80 457 80 464 184 c 128,-1,16
 471 288 471 288 471 340 c 0,17,18
 471 388 471 388 446 420 c 0,19,20
 374 513 374 513 231 700 c 1,21,22
 99 881 99 881 55 954 c 0,23,24
 37 984 37 984 37 1012 c 0,25,26
 35 1138 35 1138 35 1376 c 0,27,28
 35 1403 35 1403 59 1403 c 0,29,30
 76 1403 76 1403 109.5 1400 c 128,-1,31
 143 1397 143 1397 160 1397 c 0,32,33
 180 1397 180 1397 220 1400 c 0,34,35
 280 1404 280 1404 281 1403 c 0,36,37
 286 1397 286 1397 299 1387 c 0,38,39
 525 1210 525 1210 525 1210 c 0,40,41
 287 1209 287 1209 287 1051 c 0,42,43
 287 991 287 991 604 629 c 1,44,45
 679 714 679 714 776 840 c 0,46,47
 927 1036 927 1036 911 1049 c 0,48,49
 697 1231 697 1231 636 1219 c 4,50,51
 895 1270 895 1270 895 1376 c 0,52,53
 895 1403 895 1403 918 1403 c 0,54,55
 936 1403 936 1403 973 1400 c 128,-1,56
 1010 1397 1010 1397 1028 1397 c 0,57,58
 1047 1397 1047 1397 1085.5 1400 c 128,-1,59
 1124 1403 1124 1403 1143 1403 c 0,60,61
 1167 1403 1167 1403 1167 1370 c 0,62,63
 1167 1313 1167 1313 1169 1198 c 128,-1,64
 1171 1083 1171 1083 1171 1026 c 256,0,1
EndSplineSet
EndChar
StartChar: Z
Encoding: 90 90 61
Width: 1034
GlyphClass: 1
Flags: W
LayerCount: 2
Fore
SplineSet
381 759 m 24,0,1
 383 751 383 751 246 540 c 0,2,-1
 111 390 l 0,3,4
 75 288 75 288 39 187 c 1024,5,-1
976 229 m 0,6,7
 976 194 976 194 963 122 c 128,-1,8
 950 50 950 50 950 14 c 0,9,10
 950 -8 950 -8 926 -8 c 0,11,12
 866 -8 866 -8 747.5 -4 c 128,-1,13
 629 0 629 0 569 0 c 2,14,-1
 94 0 l 2,15,16
 65 0 65 0 61 20 c 0,17,18
 31 177 31 177 39 187 c 0,19,20
 412.768764684 588.751452949 412.768764684 588.751452949 423 585 c 0,21,22
 243 651 243 651 395.87612924 759 c 0,23,24
 518 845 518 845 543 867 c 0,25,26
 648 961 648 961 648 1179 c 0,27,28
 648 1190 648 1190 623 1190 c 2,29,-1
 90 1190 l 2,30,31
 70 1190 70 1190 70 1210 c 0,32,33
 70 1218 70 1218 84.5 1301 c 128,-1,34
 99 1384 99 1384 102.5 1397.5 c 128,-1,35
 106 1411 106 1411 126 1411 c 0,36,37
 165 1411 165 1411 241.5 1404 c 128,-1,38
 318 1397 318 1397 356 1397 c 2,39,-1
 918 1397 l 2,40,41
 936 1397 936 1397 940 1380 c 0,42,43
 955 1319 955 1319 955 1231 c 0,44,45
 955 1006 955 1006 696 684 c 0,46,47
 508 450 508 450 321 216 c 1,48,49
 326 209 326 209 340 209 c 0,50,51
 664 209 664 209 784 221 c 0,52,53
 804 223 804 223 874 232 c 0,54,55
 931 240 931 240 963 240 c 0,56,57
 976 240 976 240 976 229 c 0,6,7
EndSplineSet
EndChar
StartChar: bracketleft
Encoding: 91 91 62
Width: 735
GlyphClass: 1
Flags: W
LayerCount: 2
Fore
SplineSet
709 -174 m 0,0,1
 709 -195 709 -195 707 -237.5 c 128,-1,2
 705 -280 705 -280 705 -299.5 c 128,-1,3
 705 -319 705 -319 684 -319 c 0,4,5
 638 -319 638 -319 546 -315 c 128,-1,6
 454 -311 454 -311 408 -311 c 0,7,8
 367 -311 367 -311 285 -314 c 128,-1,9
 203 -317 203 -317 162 -317 c 0,10,11
 133 -317 133 -317 133 -279 c 0,12,13
 133 -150 133 -150 142.5 108 c 128,-1,14
 152 366 152 366 152 496 c 0,15,16
 152 642 152 642 139.5 936 c 128,-1,17
 127 1230 127 1230 127 1377 c 0,18,19
 127 1415 127 1415 158 1415 c 0,20,21
 199 1415 199 1415 282.5 1412 c 128,-1,22
 366 1409 366 1409 408 1409 c 0,23,24
 454 1409 454 1409 546 1412 c 128,-1,25
 638 1415 638 1415 684 1415 c 0,26,27
 707 1415 707 1415 707 1395 c 128,-1,28
 707 1375 707 1375 708 1335.5 c 128,-1,29
 709 1296 709 1296 709 1276 c 0,30,31
 709 1253 709 1253 688 1253 c 0,32,33
 647 1253 647 1253 563 1260 c 128,-1,34
 479 1267 479 1267 437 1267 c 0,35,36
 420 1267 420 1267 414 1266 c 0,37,38
 390 1262 390 1262 385 1231 c 0,39,40
 336 951 336 951 336 951 c 0,41,42
 415 556 415 556 402 498 c 0,43,44
 306 87 306 87 306 87 c 4,45,46
 386 -14 386 -14 381 -137 c 0,47,48
 380 -163 380 -163 396 -170 c 0,49,50
 403 -173 403 -173 434 -173 c 0,51,52
 477 -173 477 -173 561.5 -165.5 c 128,-1,53
 646 -158 646 -158 688 -158 c 0,54,55
 709 -158 709 -158 709 -174 c 0,0,1
EndSplineSet
EndChar
StartChar: backslash
Encoding: 92 92 63
Width: 586
GlyphClass: 1
Flags: W
LayerCount: 2
Fore
SplineSet
545 -33 m 0,0,1
 545 -52 545 -52 488 -82 c 0,2,3
 435 -111 435 -111 414 -111 c 2,4,-1
 403 -111 l 1,5,6
 381 -62 381 -62 326 143 c 0,7,8
 304 225 304 225 152 831 c 0,9,10
 109 994 109 994 39 1319 c 1,11,12
 50 1338 50 1338 100 1370 c 128,-1,13
 150 1402 150 1402 169 1401 c 2,14,-1
 180 1401 l 1,15,16
 213 1314 213 1314 378 670 c 0,17,18
 545 20 545 20 545 -33 c 0,0,1
EndSplineSet
EndChar
StartChar: bracketright
Encoding: 93 93 64
Width: 735
GlyphClass: 1
Flags: W
LayerCount: 2
Fore
SplineSet
608 1377 m 0,0,1
 608 1230 608 1230 596 936 c 128,-1,2
 584 642 584 642 584 496 c 0,3,4
 584 366 584 366 593 108 c 128,-1,5
 602 -150 602 -150 602 -279 c 0,6,7
 602 -317 602 -317 573 -317 c 0,8,9
 533 -317 533 -317 451 -314 c 128,-1,10
 369 -311 369 -311 328 -311 c 0,11,12
 282 -311 282 -311 189.5 -315 c 128,-1,13
 97 -319 97 -319 51 -319 c 0,14,15
 31 -319 31 -319 31 -299.5 c 128,-1,16
 31 -280 31 -280 29 -237.5 c 128,-1,17
 27 -195 27 -195 27 -174 c 0,18,19
 27 -158 27 -158 47 -158 c 0,20,21
 89 -158 89 -158 174 -165.5 c 128,-1,22
 259 -173 259 -173 302 -173 c 0,23,24
 320 -173 320 -173 326 -172 c 0,25,26
 371 -165 371 -165 354 -137 c 0,27,28
 214 102 214 102 226 132 c 0,29,30
 369 495 369 495 369 496 c 0,31,32
 238 926 238 926 258 960 c 0,33,34
 336 1089 336 1089 350 1231 c 0,35,36
 352 1252 352 1252 335 1263 c 0,37,38
 329 1267 329 1267 298 1267 c 0,39,40
 256 1267 256 1267 172.5 1260 c 128,-1,41
 89 1253 89 1253 47 1253 c 0,42,43
 27 1253 27 1253 27 1276 c 0,44,45
 27 1296 27 1296 28 1335.5 c 128,-1,46
 29 1375 29 1375 29 1395 c 128,-1,47
 29 1415 29 1415 51 1415 c 0,48,49
 97 1415 97 1415 186.5 1435.5 c 128,-1,50
 276 1456 276 1456 322 1456 c 0,51,52
 363 1456 363 1456 449.5 1435.5 c 128,-1,53
 536 1415 536 1415 578 1415 c 0,54,55
 608 1415 608 1415 608 1377 c 0,0,1
EndSplineSet
EndChar
StartChar: asciicircum
Encoding: 94 94 65
Width: 956
GlyphClass: 1
Flags: W
LayerCount: 2
Fore
SplineSet
912 361 m 1,0,1
 905 358 905 358 840 320 c 0,2,3
 811 303 811 303 798 295 c 0,4,5
 766 274 766 274 762 274 c 0,6,7
 728 274 728 274 468 661 c 1,8,9
 460 654 460 654 330 459 c 0,10,11
 213 283 213 283 185 283 c 1,12,13
 191 285 191 285 106 330 c 0,14,15
 37 367 37 367 39 370 c 0,16,17
 209 629 209 629 256 703 c 1,18,19
 287 718 287 718 379 993 c 0,20,21
 381 999 381 999 392 1012 c 2,22,-1
 466 1101 l 2,23,24
 511 1070 511 1070 550 1012 c 2,25,26
 560.858536585 1000.49512195 560.858536585 1000.49512195 563 993 c 0,27,28
 595 870 595 870 682 713 c 0,29,30
 699 682 699 682 912 361 c 1,0,1
EndSplineSet
EndChar
StartChar: underscore
Encoding: 95 95 66
Width: 891
GlyphClass: 1
Flags: W
LayerCount: 2
Fore
SplineSet
898 -235 m 0,0,1
 898 -363 898 -363 891 -399 c 0,2,3
 888 -416 888 -416 866 -416 c 0,4,5
 789 -416 789 -416 635 -411 c 128,-1,6
 481 -406 481 -406 403 -406 c 0,7,8
 337 -406 337 -406 204.5 -411 c 128,-1,9
 72 -416 72 -416 6 -416 c 0,10,11
 -20 -416 -20 -416 -20 -393 c 0,12,13
 -20 -311 -20 -311 -10 -236 c 0,14,15
 -8 -217 -8 -217 6 -217 c 0,16,17
 78 -217 78 -217 223 -222 c 128,-1,18
 368 -227 368 -227 440 -227 c 0,19,20
 514 -227 514 -227 661.5 -224 c 128,-1,21
 809 -221 809 -221 883 -221 c 0,22,23
 898 -221 898 -221 898 -235 c 0,0,1
EndSplineSet
EndChar
StartChar: grave
Encoding: 96 96 67
Width: 715
GlyphClass: 1
Flags: W
LayerCount: 2
Fore
SplineSet
576 1193 m 0,0,1
 576 1184 576 1184 562 1141.5 c 128,-1,2
 548 1099 548 1099 543 1099 c 0,3,4
 521 1099 521 1099 526 1097 c 1,5,6
 176 1261 176 1261 63 1337 c 0,7,8
 59 1340 59 1340 53 1349 c 1,9,10
 62 1367 62 1367 111.5 1411.5 c 128,-1,11
 161 1456 161 1456 177 1456 c 0,12,13
 201 1456 201 1456 361 1354 c 0,14,15
 508 1261 508 1261 570 1212 c 0,16,17
 578 1206 578 1206 576 1193 c 0,0,1
EndSplineSet
EndChar
StartChar: a
Encoding: 97 97 68
Width: 1135
GlyphClass: 1
Flags: W
LayerCount: 2
Fore
SplineSet
1074 905 m 0,0,1
 1074 901 1074 901 1071 887 c 0,2,3
 1032 658 1032 658 1032 492 c 0,4,5
 1032 482 1032 482 1057 43 c 1,6,-1
 1058 29 l 2,7,8
 1060 -0 1060 -0 1031.5 0 c 0,9,10
 1004 0 1004 0 948.5 -6.5 c 128,-1,11
 893 -13 893 -13 866 -13 c 0,12,13
 847 -13 847 -13 837 57 c 128,-1,14
 827 127 827 127 818 127 c 0,15,16
 812 127 812 127 764 88 c 0,17,18
 705 40 705 40 654 15 c 0,19,20
 575 -25 575 -25 496 -25 c 0,21,22
 302 -25 302 -25 169 130 c 0,23,24
 43 278 43 278 43 475 c 0,25,26
 43 697 43 697 170 842 c 0,27,28
 303 993 303 993 520 993 c 0,29,30
 692 993 692 993 787 887 c 0,31,32
 830 839 830 839 840 829 c 0,33,34
 843 826 843 826 846 826 c 0,35,36
 852 826 852 826 862.39449309 885.532096785 c 0,37,38
 872 938 872 938 891 952 c 0,39,40
 972 1017 972 1017 972 1017 c 4,41,42
 1074 996 1074 996 1074 905 c 0,0,1
819 487 m 0,43,44
 819 608 819 608 746 698 c 0,45,46
 660 804 660 804 549 793 c 256,47,48
 282 767 282 767 349 699 c 0,49,50
 466 580 466 580 412 507 c 0,51,52
 290 345 290 345 349 277 c 0,53,54
 429 184 429 184 549 184 c 0,55,56
 666 184 666 184 745 279 c 0,57,58
 819 368 819 368 819 487 c 0,43,44
EndSplineSet
EndChar
StartChar: b
Encoding: 98 98 69
Width: 1135
GlyphClass: 1
Flags: W
LayerCount: 2
Fore
SplineSet
1094 483 m 0,0,1
 1094 285 1094 285 971 138 c 0,2,3
 840 -18 840 -18 645 -18 c 0,4,5
 515 -18 515 -18 416 48 c 1,6,7
 376 82 376 82 336 115 c 1,8,9
 325 112 325 112 321.491946903 54.8688495575 c 128,-1,10
 317.983893805 -2.26230088496 317.983893805 -2.26230088496 305 -2 c 2,11,-1
 206 0 l 2,12,13
 164 1 164 1 179 104 c 1,14,15
 84 29 84 29 84 29 c 0,16,17
 100 189 100 189 100 641 c 0,18,19
 100 826 100 826 84 1184 c 0,20,21
 74 1412 74 1412 74 1384 c 1,22,23
 84 1392 84 1392 100 1413 c 0,24,25
 176 1513 176 1513 203 1478 c 4,26,27
 246 1421 246 1421 264 1424 c 0,28,29
 300 1430 300 1430 322 1430 c 0,30,31
 338 1430 338 1430 338 1407 c 0,32,33
 338 1373 338 1373 333 1303 c 128,-1,34
 328 1233 328 1233 328 1198 c 0,35,36
 328 1146 328 1146 323.5 1041.5 c 128,-1,37
 319 937 319 937 319 885 c 0,38,39
 319 847 319 847 333 847 c 0,40,41
 340 847 340 847 348 858 c 0,42,43
 458 995 458 995 639 995 c 0,44,45
 846 995 846 995 974 840 c 0,46,47
 1094 694 1094 694 1094 483 c 0,0,1
868 492 m 0,48,49
 868 611 868 611 793 702 c 0,50,51
 713 799 713 799 596 799 c 0,52,53
 282 799 282 799 290 743 c 0,54,55
 319 547 319 547 319 492 c 0,56,57
 319 368 319 368 396 278 c 0,58,59
 476 184 476 184 598 184 c 0,60,61
 716 184 716 184 795 281 c 0,62,63
 868 371 868 371 868 492 c 0,48,49
EndSplineSet
EndChar
StartChar: c
Encoding: 99 99 70
Width: 823
GlyphClass: 1
Flags: W
LayerCount: 2
Fore
SplineSet
788 933 m 128,-1,1
 800 885 800 885 777 809 c 0,2,3
 753 730 753 730 745 733 c 0,4,5
 654 767 654 767 646 761 c 0,6,7
 430 597 430 597 430 597 c 0,8,9
 307 597 307 597 287.5 604 c 128,-1,10
 268 611 268 611 268 487 c 0,11,12
 268 365 268 365 350 276 c 0,13,14
 434 184 434 184 555 184 c 0,15,16
 622 184 622 184 607 205.5 c 128,-1,17
 592 227 592 227 584 227 c 1,18,19
 761 227 761 227 773 166 c 0,20,21
 788 90 788 90 788 61 c 0,22,23
 788 30 788 30 671 0 c 0,24,25
 573 -25 573 -25 526 -25 c 0,26,27
 320 -25 320 -25 178 129 c 0,28,29
 39 279 39 279 39 487 c 0,30,31
 39 699 39 699 175 847 c 0,32,33
 315 999 315 999 524 999 c 0,34,35
 745 999 745 999 752 995 c 4,36,37
 776 981 776 981 788 933 c 128,-1,1
EndSplineSet
EndChar
StartChar: d
Encoding: 100 100 71
Width: 1139
GlyphClass: 1
Flags: WO
LayerCount: 2
Fore
SplineSet
1063 1395 m 0,0,1
 1063 1266 1063 1266 1051.5 1008.5 c 128,-1,2
 1040 751 1040 751 1040 623 c 0,3,4
 1040 246 1040 246 1057 25 c 2,5,-1
 1058 12 l 2,6,7
 1059 2 1059 2 1031 -1 c 0,8,9
 1012 -3 1012 -3 977 -1 c 0,10,11
 935 2 935 2 938 2 c 1,12,13
 923 2 923 2 894 -1 c 128,-1,14
 865 -4 865 -4 850 -4 c 0,15,16
 836 -4 836 -4 833.5 65.5 c 0,17,18
 831 137 831 137 826 136 c 0,19,20
 822 135 822 135 811 123 c 0,21,22
 674 -25 674 -25 496 -25 c 0,23,24
 294 -25 294 -25 164 129 c 0,25,26
 41 274 41 274 41 479 c 0,27,28
 41 521 41 521 249 764 c 4,29,30
 442 989 442 989 504 989 c 0,31,32
 633 989 633 989 724 915 c 0,33,34
 744 899 744 899 809 840 c 1,35,36
 817 843 817 843 817 854 c 2,37,-1
 817 1178 l 2,38,39
 817 1211 817 1211 814 1278 c 0,40,41
 810.445652174 1357.38043478 810.445652174 1357.38043478 811 1379 c 4,42,43
 810 1457 810 1457 827 1403 c 0,44,45
 828.08940217 1399.80248102 828.08940217 1399.80248102 937 1409.5 c 0,46,47
 1010 1416 1010 1416 1046 1416 c 0,48,49
 1063 1416 1063 1416 1063 1395 c 0,0,1
813 485 m 0,50,51
 813 605 813 605 739 696 c 0,52,53
 660 793 660 793 543 793 c 0,54,55
 420 793 420 793 340 697 c 0,56,57
 264 607 264 607 264 481 c 0,58,59
 264 361 264 361 343 272 c 0,60,61
 424 178 424 178 543 178 c 0,62,63
 663 178 663 178 741 273 c 0,64,65
 813 362 813 362 813 485 c 0,50,51
EndSplineSet
EndChar
StartChar: e
Encoding: 101 101 72
Width: 987
GlyphClass: 1
Flags: W
LayerCount: 2
Fore
SplineSet
949 537 m 0,0,1
 949 463 949 463 885 438 c 0,2,3
 842 422 842 422 266 379 c 1,4,5
 279 291 279 291 363 229 c 0,6,7
 443 170 443 170 535 170 c 0,8,9
 693 170 693 170 825 272 c 0,10,11
 841 285 841 285 857 298 c 1,12,13
 865 298 865 298 867.5 296 c 128,-1,14
 870 294 870 294 905 226.5 c 128,-1,15
 940 159 940 159 940 154 c 0,16,17
 940 148 940 148 924 131 c 0,18,19
 777 -25 777 -25 547 -25 c 0,20,21
 315 -25 315 -25 177 113.5 c 128,-1,22
 39 252 39 252 39 483 c 0,23,24
 39 689 39 689 171 842 c 0,25,26
 310 1001 310 1001 512 1001 c 0,27,28
 700 1001 700 1001 826 863 c 0,29,30
 949 729 949 729 949 537 c 0,0,1
711 598 m 0,31,32
 711 681 711 681 645.5 745 c 128,-1,33
 580 809 580 809 498 809 c 0,34,35
 406 809 406 809 334.5 735 c 128,-1,36
 263 661 263 661 263 569 c 0,37,38
 263 548 263 548 299 548 c 0,39,40
 447 548 447 548 653 578 c 0,41,42
 711 586 711 586 711 598 c 0,31,32
EndSplineSet
EndChar
StartChar: f
Encoding: 102 102 73
Width: 602
GlyphClass: 1
Flags: W
LayerCount: 2
Fore
SplineSet
618 1282 m 0,0,1
 618 1270 618 1270 600 1268 c 0,2,3
 551 1263 551 1263 503 1259 c 0,4,5
 446 1251 446 1251 416 1219 c 0,6,7
 367 1166 367 1166 367 950 c 1,8,9
 400 950 400 950 471 948 c 128,-1,10
 542 946 542 946 578 946 c 0,11,12
 602 946 602 946 602 928 c 0,13,14
 602 900 602 900 604 844.5 c 128,-1,15
 606 789 606 789 606 762 c 0,16,17
 606 743 606 743 586 743 c 0,18,19
 551 743 551 743 480 746.5 c 128,-1,20
 409 750 409 750 375 750 c 1,21,-1
 375 451 l 2,22,23
 375 381 375 381 380 239 c 128,-1,24
 385 97 385 97 385 27 c 0,25,26
 385 0 385 0 365 0 c 2,27,-1
 182 0 l 2,28,29
 156 0 156 0 156 31 c 2,30,-1
 156 719 l 2,31,32
 156 746 156 746 95 745 c 0,33,34
 29 744 29 744 25 750 c 0,35,36
 22 753 22 753 22 787 c 0,37,38
 22 809 22 809 20 852.5 c 128,-1,39
 18 896 18 896 18 918 c 0,40,41
 18 939 18 939 145 946 c 1,42,43
 142 1010 142 1010 142 1050 c 0,44,45
 142 1227 142 1227 205 1309 c 0,46,47
 261 1383 261 1383 369 1425 c 0,48,49
 466 1463 466 1463 570 1463 c 0,50,51
 580 1463 580 1463 584 1452 c 0,52,53
 585 1450 585 1450 601.5 1367.5 c 128,-1,54
 618 1285 618 1285 618 1282 c 0,0,1
EndSplineSet
EndChar
StartChar: g
Encoding: 103 103 74
Width: 1065
GlyphClass: 1
Flags: W
LayerCount: 2
Fore
SplineSet
983 932 m 0,0,1
 983 812 983 812 981 571.5 c 128,-1,2
 979 331 979 331 979 211 c 0,3,4
 979 -27 979 -27 877 -140 c 0,5,6
 770 -260 770 -260 535 -260 c 0,7,8
 308 -260 308 -260 168 -174 c 0,9,10
 146 -160 146 -160 146 -150 c 1,11,12
 146 -161 146 -161 176 -2 c 0,13,14
 179 15 179 15 190 15 c 0,15,16
 195 15 195 15 203 10 c 0,17,18
 353 -76 353 -76 504 -76 c 0,19,20
 603 -76 603 -76 668 -32 c 0,21,22
 743 18 743 18 743 113 c 0,23,24
 743 134 743 134 739 207 c 1,25,26
 628 72 628 72 457 72 c 0,27,28
 272 72 272 72 153 205 c 0,29,30
 39 333 39 333 39 520 c 0,31,32
 39 710 39 710 149 843 c 0,33,34
 266 985 266 985 453 985 c 0,35,36
 618 985 618 985 715 858 c 0,37,38
 731 837 731 837 738 837 c 0,39,40
 746 837 746 837 746 855 c 0,41,42
 746 868 746 868 744 896.5 c 128,-1,43
 742 925 742 925 742 939 c 0,44,45
 742 999 742 999 754 999 c 0,46,47
 764 999 764 999 862 980.5 c 128,-1,48
 960 962 960 962 969 958 c 0,49,50
 983 953 983 953 983 932 c 0,0,1
743 520 m 0,51,52
 743 632 743 632 682 710 c 0,53,54
 615 795 615 795 506 795 c 0,55,56
 398 795 398 795 331 709 c 0,57,58
 270 631 270 631 270 520 c 0,59,60
 270 411 270 411 332 332 c 0,61,62
 399 246 399 246 506 246 c 0,63,64
 612 246 612 246 680 332 c 0,65,66
 743 411 743 411 743 520 c 0,51,52
EndSplineSet
EndChar
StartChar: h
Encoding: 104 104 75
Width: 1065
GlyphClass: 1
Flags: W
LayerCount: 2
Fore
SplineSet
975 35 m 0,0,1
 975 -2 975 -2 954 -2 c 0,2,3
 923 -2 923 -2 860 -1 c 128,-1,4
 797 0 797 0 766 0 c 0,5,6
 741 0 741 0 741 33 c 0,7,8
 741 81 741 81 744.5 178 c 128,-1,9
 748 275 748 275 748 324 c 0,10,11
 748 370 748 370 744.5 463.5 c 128,-1,12
 741 557 741 557 741 604 c 0,13,14
 741 784 741 784 571 784 c 0,15,16
 516 784 516 784 427 729 c 0,17,18
 332 670 332 670 332 621 c 2,19,-1
 332 27 l 2,20,21
 332 -2 332 -2 311 -2 c 0,22,23
 280 -2 280 -2 218 -1 c 128,-1,24
 156 0 156 0 125 0 c 0,25,26
 102 0 102 0 102 27 c 2,27,-1
 102 510 l 2,28,29
 102 628 102 628 89 1012 c 0,30,31
 87 1131 87 1131 72 1364 c 0,32,33
 70 1376 70 1376 70 1380 c 0,34,35
 70 1397 70 1397 82 1401 c 0,36,37
 99 1407 99 1407 195 1407 c 0,38,39
 216 1407 216 1407 258 1414.5 c 128,-1,40
 300 1422 300 1422 319 1422 c 0,41,42
 332 1422 332 1422 332 1403 c 0,43,44
 332 1309 332 1309 324.5 1120.5 c 128,-1,45
 317 932 317 932 317 838 c 0,46,47
 317 815 317 815 325 814 c 1,48,49
 376 857 376 857 457 918 c 1,50,51
 555 979 555 979 664 979 c 0,52,53
 852 979 852 979 923 867 c 0,54,55
 974 785 974 785 974 607 c 0,56,57
 974 576 974 576 972.5 511.5 c 128,-1,58
 971 447 971 447 971 416 c 0,59,60
 971 352 971 352 973 225 c 128,-1,61
 975 98 975 98 975 35 c 0,0,1
EndSplineSet
EndChar
StartChar: i
Encoding: 105 105 76
Width: 451
GlyphClass: 1
Flags: W
LayerCount: 2
Fore
SplineSet
362 1196 m 0,0,1
 362 1073 362 1073 225 1073 c 0,2,3
 86 1073 86 1073 86 1196 c 0,4,5
 86 1251 86 1251 129 1287 c 0,6,7
 169 1321 169 1321 225 1321 c 256,8,9
 281 1321 281 1321 321.5 1286 c 128,-1,10
 362 1251 362 1251 362 1196 c 0,0,1
355 925 m 0,11,12
 355 848 355 848 345.5 692.5 c 128,-1,13
 336 537 336 537 336 459 c 0,14,15
 336 386 336 386 339 240.5 c 128,-1,16
 342 95 342 95 342 23 c 0,17,18
 342 2 342 2 324 2 c 2,19,-1
 129 2 l 2,20,21
 108 2 108 2 108 43 c 0,22,23
 108 112 108 112 111.5 250.5 c 128,-1,24
 115 389 115 389 115 459 c 0,25,26
 115 537 115 537 103.5 693 c 128,-1,27
 92 849 92 849 92 927 c 0,28,29
 92 944 92 944 113 944 c 0,30,31
 131 944 131 944 168.5 939 c 128,-1,32
 206 934 206 934 225 934 c 256,33,34
 244 934 244 934 281.5 939 c 128,-1,35
 319 944 319 944 338 944 c 0,36,37
 355 944 355 944 355 925 c 0,11,12
EndSplineSet
EndChar
StartChar: j
Encoding: 106 106 77
Width: 453
GlyphClass: 1
Flags: W
LayerCount: 2
Fore
SplineSet
369 1198 m 0,0,1
 369 1077 369 1077 229 1077 c 0,2,3
 170 1077 170 1077 132 1107 c 0,4,5
 90 1140 90 1140 90 1198 c 0,6,7
 90 1254 90 1254 132 1290 c 0,8,9
 172 1323 172 1323 229 1323 c 256,10,11
 286 1323 286 1323 326 1290 c 0,12,13
 369 1254 369 1254 369 1198 c 0,0,1
356 928 m 0,14,15
 356 862 356 862 350 729.5 c 128,-1,16
 344 597 344 597 344 530 c 0,17,18
 344 457 344 457 346 310.5 c 128,-1,19
 348 164 348 164 348 90 c 0,20,21
 348 -198 348 -198 88 -273 c 0,22,23
 14 -295 14 -295 -20 -295 c 0,24,25
 -36 -295 -36 -295 -40 -274 c 0,26,27
 -44 -260 -44 -260 -42 -232 c 0,28,29
 -39 -194 -39 -194 -39 -199 c 1,30,31
 -39 -186 -39 -186 -42.5 -159.5 c 128,-1,32
 -46 -133 -46 -133 -46 -121 c 0,33,34
 -46 -103 -46 -103 -33 -100 c 0,35,36
 67 -82 67 -82 95 -55 c 0,37,38
 129 -21 129 -21 129 80 c 0,39,40
 129 152 129 152 125 295 c 128,-1,41
 121 438 121 438 121 510 c 0,42,43
 121 652 121 652 98 907 c 2,44,-1
 97 918 l 2,45,46
 97 932 97 932 115 936 c 0,47,48
 121 938 121 938 224 946 c 128,-1,49
 327 954 327 954 340 954 c 0,50,51
 356 954 356 954 356 928 c 0,14,15
EndSplineSet
EndChar
StartChar: k
Encoding: 107 107 78
Width: 1120
GlyphClass: 1
Flags: W
LayerCount: 2
Fore
SplineSet
1085 686 m 0,0,1
 1085 426 1085 426 844 338 c 1,2,3
 844 287 844 287 944 153.5 c 128,-1,4
 1044 20 1044 20 1044 20 c 1,5,6
 1044 5 1044 5 944 0 c 0,7,8
 878 -3 878 -3 845 -3 c 0,9,10
 774 -3 774 -3 756 27 c 0,11,12
 709 107 709 107 608 260 c 0,13,14
 596 278 596 278 391 275 c 2,15,-1
 352 274 l 1,16,-1
 352 27 l 2,17,18
 352 -4 352 -4 330 -4 c 0,19,20
 298 -4 298 -4 235.5 -3 c 128,-1,21
 173 -2 173 -2 141 -2 c 0,22,23
 119 -2 119 -2 119 37 c 2,24,-1
 119 659 l 2,25,26
 119 781 119 781 109.5 1024 c 128,-1,27
 100 1267 100 1267 100 1389 c 0,28,29
 100 1407 100 1407 119 1409 c 0,30,31
 152 1410 152 1410 219 1413 c 0,32,33
 233 1414 233 1414 278 1420 c 0,34,35
 314 1425 314 1425 336 1425 c 0,36,37
 350 1425 350 1425 350 1401 c 0,38,39
 350 1347 350 1347 345 1240 c 128,-1,40
 340 1133 340 1133 340 1079 c 2,41,-1
 340 821 l 2,42,43
 340 800 340 800 349 800 c 1,44,45
 373 820 373 820 421 859 c 0,46,47
 589 989 589 989 741 989 c 0,48,49
 889 989 889 989 983 913 c 0,50,51
 1085 830 1085 830 1085 686 c 0,0,1
844 639 m 0,52,53
 844 782 844 782 659 782 c 0,54,55
 521 782 521 782 348 598 c 1,56,-1
 348 449 l 1,57,58
 429 434 429 434 544 434 c 0,59,60
 660 434 660 434 742 478 c 0,61,62
 844 533 844 533 844 639 c 0,52,53
EndSplineSet
EndChar
StartChar: l
Encoding: 108 108 79
Width: 451
GlyphClass: 1
Flags: W
LayerCount: 2
Fore
SplineSet
355 1387 m 2,0,-1
 354 1374 l 1,1,2
 332 1002 332 1002 332 735 c 0,3,4
 332 616 332 616 336 378.5 c 128,-1,5
 340 141 340 141 340 23 c 0,6,7
 340 0 340 0 324 0 c 2,8,-1
 133 0 l 2,9,10
 115 0 115 0 115 23 c 0,11,12
 115 141 115 141 117 378.5 c 128,-1,13
 119 616 119 616 119 735 c 0,14,15
 119 843 119 843 108.5 1059.5 c 128,-1,16
 98 1276 98 1276 98 1383 c 0,17,18
 98 1403 98 1403 119 1403 c 0,19,20
 137 1403 137 1403 173 1400 c 128,-1,21
 209 1397 209 1397 227 1397 c 0,22,23
 246 1397 246 1397 283 1400 c 128,-1,24
 320 1403 320 1403 338 1403 c 256,25,26
 356 1403 356 1403 355 1387 c 2,0,-1
EndSplineSet
EndChar
StartChar: m
Encoding: 109 109 80
Width: 1718
GlyphClass: 1
Flags: W
LayerCount: 2
Fore
SplineSet
1622 37 m 0,0,1
 1622 -2 1622 -2 1599 -2 c 0,2,3
 1584 -2 1584 -2 1553.5 1 c 128,-1,4
 1523 4 1523 4 1507 4 c 0,5,6
 1490 4 1490 4 1456 2 c 128,-1,7
 1422 0 1422 0 1405 0 c 0,8,9
 1384 0 1384 0 1384 47 c 0,10,11
 1384 93 1384 93 1387.5 184.5 c 128,-1,12
 1391 276 1391 276 1391 322 c 0,13,14
 1391 575 1391 575 1389 604 c 0,15,16
 1381 707 1381 707 1347 746 c 0,17,18
 1308 788 1308 788 1208 788 c 0,19,20
 1145 788 1145 788 1066 728 c 0,21,22
 984 665 984 665 981 604 c 0,23,24
 977 526 977 526 977 319 c 0,25,26
 977 270 977 270 981 172 c 128,-1,27
 985 74 985 74 985 25 c 0,28,29
 985 -2 985 -2 967 -2 c 256,30,31
 949 -2 949 -2 914.5 1 c 128,-1,32
 880 4 880 4 862 4 c 0,33,34
 846 4 846 4 815 2 c 128,-1,35
 784 0 784 0 768 0 c 0,36,37
 748 0 748 0 748 29 c 0,38,39
 748 77 748 77 751 173.5 c 128,-1,40
 754 270 754 270 754 318 c 2,41,-1
 754 559 l 2,42,43
 754 672 754 672 727 720 c 0,44,45
 689 788 689 788 582 788 c 0,46,47
 519 788 519 788 432 735 c 0,48,49
 336 677 336 677 336 618 c 2,50,-1
 336 326 l 2,51,52
 336 276 336 276 337 177 c 128,-1,53
 338 78 338 78 338 29 c 0,54,55
 338 0 338 0 315 0 c 2,56,-1
 129 0 l 2,57,58
 109 0 109 0 109 27 c 0,59,60
 109 108 109 108 110 270.5 c 128,-1,61
 111 433 111 433 111 514 c 0,62,63
 111 697 111 697 72 879 c 0,64,65
 69 892 69 892 69 900 c 0,66,67
 69 913 69 913 78 915 c 0,68,69
 115 919 115 919 186 930 c 1,70,71
 219 940 219 940 285 952 c 2,72,-1
 293 953 l 2,73,74
 305 953 305 953 315.5 882.5 c 128,-1,75
 326 812 326 812 334 812 c 1,76,77
 334 812 334 812 384 856 c 0,78,79
 443 907 443 907 502 937 c 0,80,81
 587 981 587 981 672 981 c 0,82,83
 902 981 902 981 965 793 c 1,84,85
 1027 873 1027 873 1119 925 c 0,86,87
 1217 981 1217 981 1313 981 c 0,88,89
 1498 981 1498 981 1569 873 c 0,90,91
 1620 793 1620 793 1620 620 c 0,92,93
 1620 587 1620 587 1618 518 c 128,-1,94
 1616 449 1616 449 1616 416 c 0,95,96
 1616 353 1616 353 1619 226.5 c 128,-1,97
 1622 100 1622 100 1622 37 c 0,0,1
EndSplineSet
EndChar
StartChar: n
Encoding: 110 110 81
Width: 1071
GlyphClass: 1
Flags: W
LayerCount: 2
Fore
SplineSet
983 20 m 0,0,1
 983 -2 983 -2 963 -2 c 0,2,3
 930 -2 930 -2 864.5 -1 c 128,-1,4
 799 0 799 0 766 0 c 0,5,6
 748 0 748 0 748 29 c 0,7,8
 748 78 748 78 751 178 c 128,-1,9
 754 278 754 278 754 328 c 0,10,11
 754 368 754 368 753 447.5 c 128,-1,12
 752 527 752 527 752 567 c 0,13,14
 752 681 752 681 719 728 c 0,15,16
 679 784 679 784 571 784 c 0,17,18
 521 784 521 784 432 728 c 0,19,20
 338 669 338 669 338 623 c 2,21,-1
 338 23 l 2,22,23
 338 -2 338 -2 319 -2 c 0,24,25
 287 -2 287 -2 223 -1 c 128,-1,26
 159 0 159 0 127 0 c 0,27,28
 106 0 106 0 106 23 c 0,29,30
 106 102 106 102 108.5 260 c 128,-1,31
 111 418 111 418 111 498 c 0,32,33
 111 711 111 711 66 891 c 0,34,35
 63 900 63 900 63 904 c 0,36,37
 63 914 63 914 76 918 c 0,38,39
 83 919 83 919 190.5 936.5 c 128,-1,40
 298 954 298 954 303 954 c 0,41,42
 309 954 309 954 311 938 c 0,43,44
 316 876 316 876 334 813 c 1,45,46
 386 854 386 854 471 915 c 1,47,48
 576 979 576 979 674 979 c 0,49,50
 862 979 862 979 931 870 c 0,51,52
 982 790 982 790 982 611 c 0,53,54
 982 580 982 580 980.5 516 c 128,-1,55
 979 452 979 452 979 420 c 0,56,57
 979 353 979 353 981 220 c 128,-1,58
 983 87 983 87 983 20 c 0,0,1
EndSplineSet
EndChar
StartChar: o
Encoding: 111 111 82
Width: 1047
GlyphClass: 1
Flags: W
LayerCount: 2
Fore
SplineSet
1008 487 m 0,0,1
 1008 278 1008 278 871 130 c 0,2,3
 731 -23 731 -23 524 -23 c 0,4,5
 316 -23 316 -23 176 129 c 0,6,7
 39 276 39 276 39 485 c 256,8,9
 39 694 39 694 176 841 c 0,10,11
 317 991 317 991 524 991 c 0,12,13
 730 991 730 991 870 841 c 0,14,15
 1008 695 1008 695 1008 487 c 0,0,1
797 485 m 0,16,17
 797 607 797 607 722 693 c 0,18,19
 644 784 644 784 524 784 c 256,20,21
 404 784 404 784 325 694 c 0,22,23
 250 607 250 607 250 485 c 0,24,25
 250 365 250 365 326 277 c 0,26,27
 406 184 406 184 524 184 c 0,28,29
 643 184 643 184 722 277 c 0,30,31
 797 365 797 365 797 485 c 0,16,17
EndSplineSet
EndChar
StartChar: p
Encoding: 112 112 83
Width: 1155
GlyphClass: 1
Flags: W
LayerCount: 2
Fore
SplineSet
1102 481 m 256,0,1
 1102 279 1102 279 974 130 c 0,2,3
 840 -27 840 -27 641 -27 c 0,4,5
 517 -27 517 -27 424 50 c 0,6,7
 382 89 382 89 340 129 c 1,8,9
 334 126 334 126 332 113 c 0,10,11
 331 107 331 107 331 1 c 2,12,-1
 330 -281 l 2,13,14
 330 -313 330 -313 307 -313 c 0,15,16
 153 -313 153 -313 125 -309 c 0,17,18
 102 -306 102 -306 102 -283 c 0,19,20
 102 -155 102 -155 104 101 c 128,-1,21
 106 357 106 357 106 485 c 0,22,23
 106 720 106 720 76 926 c 0,24,25
 74 938 74 938 74 942 c 0,26,27
 74 953 74 953 84 956 c 0,28,29
 122 958 122 958 195 967 c 1,30,31
 293 985 293 985 305 985 c 0,32,33
 322 985 322 985 327 925 c 0,34,35
 330 885 330 885 332 846 c 0,36,37
 332 838 332 838 338 830 c 1,38,39
 345 834 345 834 354 844 c 0,40,41
 494 987 494 987 637 987 c 0,42,43
 835 987 835 987 971 832 c 0,44,45
 1102 683 1102 683 1102 481 c 256,0,1
868 485 m 0,46,47
 868 605 868 605 793 696 c 0,48,49
 714 793 714 793 596 793 c 0,50,51
 480 793 480 793 406 693 c 0,52,53
 338 603 338 603 338 483 c 0,54,55
 338 361 338 361 408 271 c 0,56,57
 485 174 485 174 604 174 c 0,58,59
 718 174 718 174 796 275 c 0,60,61
 868 369 868 369 868 485 c 0,46,47
EndSplineSet
EndChar
StartChar: q
Encoding: 113 113 84
Width: 1147
GlyphClass: 1
Flags: W
LayerCount: 2
Fore
SplineSet
1074 947 m 0,0,1
 1074 943 1074 943 1071 928 c 0,2,3
 1034 738 1034 738 1034 356 c 0,4,5
 1034 251 1034 251 1040.5 40 c 128,-1,6
 1047 -171 1047 -171 1047 -276 c 0,7,8
 1047 -301 1047 -301 1026 -301 c 0,9,10
 993 -301 993 -301 927.5 -304.5 c 128,-1,11
 862 -308 862 -308 830 -308 c 0,12,13
 819 -308 819 -308 819 -285 c 2,14,-1
 819 111 l 2,15,16
 819 127 819 127 812 127 c 0,17,18
 803 123 803 123 793 111 c 0,19,20
 679 -25 679 -25 502 -25 c 0,21,22
 310 -25 310 -25 179 135 c 0,23,24
 55 285 55 285 55 481 c 0,25,26
 55 687 55 687 174 835 c 0,27,28
 301 993 301 993 502 993 c 0,29,30
 644 993 644 993 740 920 c 1,31,32
 779 882 779 882 819 844 c 1,33,34
 825 846 825 846 825 978 c 0,35,36
 825 987 825 987 842 987 c 0,37,38
 923 987 923 987 1061 961 c 0,39,40
 1074 958 1074 958 1074 947 c 0,0,1
821 487 m 256,41,42
 821 615 821 615 752 703 c 0,43,44
 677 799 677 799 553 799 c 0,45,46
 434 799 434 799 355 703 c 0,47,48
 281 613 281 613 281 492 c 0,49,50
 281 367 281 367 357 278 c 0,51,52
 437 184 437 184 559 184 c 0,53,54
 684 184 684 184 756 275 c 0,55,56
 821 359 821 359 821 487 c 256,41,42
EndSplineSet
EndChar
StartChar: r
Encoding: 114 114 85
Width: 682
GlyphClass: 1
Flags: W
LayerCount: 2
Fore
SplineSet
674 939 m 0,0,1
 674 829 674 829 659 739 c 0,2,3
 656 716 656 716 639 716 c 0,4,5
 618 716 618 716 575.5 720.5 c 128,-1,6
 533 725 533 725 511 725 c 0,7,8
 385 725 385 725 350 654 c 0,9,10
 329 611 329 611 329 475 c 2,11,-1
 329 365 l 2,12,13
 329 309 329 309 333.5 195 c 128,-1,14
 338 81 338 81 338 25 c 0,15,16
 338 -2 338 -2 315 -2 c 0,17,18
 284 -2 284 -2 221 -1 c 128,-1,19
 158 0 158 0 127 0 c 0,20,21
 104 0 104 0 104 25 c 0,22,23
 104 106 104 106 106.5 269 c 128,-1,24
 109 432 109 432 109 514 c 0,25,26
 109 761 109 761 63 911 c 0,27,28
 61 919 61 919 61 923 c 0,29,30
 61 935 61 935 74 940 c 0,31,32
 111 944 111 944 178 952 c 1,33,34
 286 972 286 972 278 972 c 1,35,36
 294 972 294 972 299 913 c 128,-1,37
 304 854 304 854 317 854 c 0,38,39
 319 854 319 854 322 856 c 0,40,41
 363 882 363 882 404 908 c 0,42,43
 449 935 449 935 496 948 c 0,44,45
 535 960 535 960 596 960 c 0,46,47
 674 960 674 960 674 939 c 0,0,1
EndSplineSet
EndChar
StartChar: s
Encoding: 115 115 86
Width: 612
GlyphClass: 1
Flags: W
LayerCount: 2
Fore
SplineSet
570 308 m 0,0,1
 570 159 570 159 451 69 c 0,2,3
 343 -13 343 -13 188 -13 c 0,4,5
 128 -13 128 -13 120 -10 c 0,6,7
 103 -2 103 -2 103 39 c 0,8,9
 103 61 103 61 97.5 105 c 128,-1,10
 92 149 92 149 92 170 c 0,11,12
 92 183 92 183 110 187 c 0,13,14
 123 190 123 190 147 187 c 0,15,16
 178 184 178 184 177 184 c 1,17,18
 366 184 366 184 366 300 c 0,19,20
 366 355 366 355 283 401 c 0,21,22
 148 475 148 475 128 492 c 0,23,24
 45 563 45 563 45 678 c 0,25,26
 45 828 45 828 158 912 c 0,27,28
 260 987 260 987 416 987 c 0,29,30
 430 987 430 987 436.5 974 c 128,-1,31
 443 961 443 961 461.5 893 c 128,-1,32
 480 825 480 825 480 811 c 0,33,34
 480 800 480 800 461 797 c 0,35,36
 397 788 397 788 332 780 c 1,37,38
 255 759 255 759 255 696 c 0,39,40
 255 651 255 651 336 605 c 0,41,42
 456 538 456 538 488 508 c 0,43,44
 570 430 570 430 570 308 c 0,0,1
EndSplineSet
EndChar
StartChar: t
Encoding: 116 116 87
Width: 700
GlyphClass: 1
Flags: W
LayerCount: 2
Fore
SplineSet
659 184 m 0,0,1
 659 162 659 162 655 124 c 0,2,3
 650 77 650 77 649 63 c 0,4,5
 648 45 648 45 646 41 c 0,6,7
 642 34 642 34 627 27 c 0,8,9
 545 -12 545 -12 369 -12 c 0,10,11
 135 -12 135 -12 135 200 c 0,12,13
 135 285 135 285 139 455.5 c 128,-1,14
 143 626 143 626 143 711 c 0,15,16
 143 752 143 752 102 755 c 0,17,18
 65 755 65 755 29 756 c 1,19,20
 8 761 8 761 8 838 c 0,21,22
 8 867 8 867 12 899 c 0,23,24
 15 923 15 923 44 928 c 1,25,26
 69 928 69 928 93 929 c 0,27,28
 139 931 139 931 139 970 c 0,29,30
 139 1010 139 1010 136.5 1092 c 128,-1,31
 134 1174 134 1174 134 1215 c 0,32,33
 134 1288 134 1288 162 1288 c 0,34,35
 171 1288 171 1288 350 1257 c 0,36,37
 373 1254 373 1254 373 1235 c 0,38,39
 373 1191 373 1191 366.5 1103 c 128,-1,40
 360 1015 360 1015 360 971 c 0,41,42
 360 942 360 942 387 942 c 2,43,-1
 627 942 l 2,44,45
 644 942 644 942 644 930 c 256,46,47
 644 918 644 918 640.5 891.5 c 128,-1,48
 637 865 637 865 637 852 c 0,49,50
 637 837 637 837 638 806 c 128,-1,51
 639 775 639 775 639 760 c 0,52,53
 639 741 639 741 611 741 c 0,54,55
 571 741 571 741 490 746.5 c 128,-1,56
 409 752 409 752 369 752 c 0,57,58
 361 752 361 752 357 695 c 0,59,60
 352 624 352 624 352 496 c 2,61,-1
 352 347 l 2,62,63
 352 261 352 261 368 227 c 0,64,65
 392 175 392 175 467 175 c 0,66,67
 498 175 498 175 558 188.5 c 128,-1,68
 618 202 618 202 647 202 c 0,69,70
 659 202 659 202 659 184 c 0,0,1
EndSplineSet
EndChar
StartChar: u
Encoding: 117 117 88
Width: 1130
GlyphClass: 1
Flags: W
LayerCount: 2
Fore
SplineSet
1028 907 m 0,0,1
 1028 834 1028 834 1022 686.5 c 128,-1,2
 1016 539 1016 539 1016 465 c 0,3,4
 1016 392 1016 392 1020.5 246.5 c 128,-1,5
 1025 101 1025 101 1025 28 c 0,6,7
 1025 8 1025 8 1006 2 c 0,8,9
 998 0 998 0 803 0 c 0,10,11
 791 0 791 0 788.5 75 c 128,-1,12
 786 150 786 150 777 150 c 0,13,14
 772 150 772 150 762 141 c 0,15,16
 595 -4 595 -4 432 -4 c 0,17,18
 211 -4 211 -4 140 156 c 0,19,20
 96 255 96 255 96 512 c 0,21,22
 96 744 96 744 133 905 c 0,23,24
 142 944 142 944 166 944 c 0,25,26
 195 944 195 944 253 943 c 128,-1,27
 311 942 311 942 340 942 c 0,28,29
 360 942 360 942 360 920 c 0,30,31
 360 881 360 881 347 790 c 0,32,33
 333 693 333 693 332 653 c 0,34,35
 329 593 329 593 329 521 c 0,36,37
 329 346 329 346 354 286 c 0,38,39
 397 178 397 178 545 178 c 0,40,41
 608 178 608 178 694 240 c 0,42,43
 785 305 785 305 788 365 c 0,44,45
 793 440 793 440 793 893 c 0,46,47
 793 942 793 942 834 942 c 2,48,-1
 999 942 l 2,49,50
 1028 942 1028 942 1028 907 c 0,0,1
EndSplineSet
EndChar
StartChar: v
Encoding: 118 118 89
Width: 1036
GlyphClass: 1
Flags: W
LayerCount: 2
Fore
SplineSet
965 662 m 0,0,1
 965 521 965 521 956 498 c 0,2,3
 941 453 941 453 794 235 c 0,4,5
 643 12 643 12 614 0 c 0,6,7
 600 -6 600 -6 530 -6 c 0,8,9
 463 -6 463 -6 442 0 c 0,10,11
 414 9 414 9 259 226 c 0,12,13
 108 437 108 437 90 483 c 0,14,15
 66 546 66 546 66 678 c 0,16,17
 66 719 66 719 68 801 c 128,-1,18
 70 883 70 883 70 924 c 0,19,20
 70 946 70 946 92 946 c 0,21,22
 125 946 125 946 190.5 943 c 128,-1,23
 256 940 256 940 289 940 c 0,24,25
 307 940 307 940 307 920 c 0,26,27
 307 888 307 888 303 825.5 c 128,-1,28
 299 763 299 763 299 731 c 0,29,30
 299 639 299 639 309 563 c 0,31,32
 314 525 314 525 410.5 377 c 128,-1,33
 507 229 507 229 530 229 c 0,34,35
 552 229 552 229 639 374 c 0,36,37
 725 516 725 516 731 553 c 0,38,39
 739 603 739 603 739 725 c 0,40,41
 739 758 739 758 732.5 824 c 128,-1,42
 726 890 726 890 726 923 c 0,43,44
 726 938 726 938 741 938 c 0,45,46
 774 938 774 938 838 941.5 c 128,-1,47
 902 945 902 945 934 945 c 0,48,49
 965 945 965 945 965 662 c 0,0,1
EndSplineSet
EndChar
StartChar: w
Encoding: 119 119 90
Width: 1493
GlyphClass: 1
Flags: W
LayerCount: 2
Fore
SplineSet
1444 717 m 0,0,1
 1444 529 1444 529 1423 481 c 0,2,3
 1395 415 1395 415 1275 218 c 0,4,5
 1145 5 1145 5 1118 -2 c 0,6,7
 1110 -4 1110 -4 1038 -4 c 0,8,9
 989 -4 989 -4 981 -2 c 0,10,11
 950 6 950 6 743 342 c 1,12,13
 686 248 686 248 628 153 c 0,14,15
 534 5 534 5 508 -2 c 0,16,17
 500 -4 500 -4 442 -4 c 0,18,19
 383 -4 383 -4 375 -2 c 0,20,21
 344 5 344 5 218 216 c 0,22,23
 99 415 99 415 74 481 c 0,24,25
 51 541 51 541 51 717 c 0,26,27
 51 864 51 864 61 918 c 0,28,29
 66 940 66 940 86 940 c 0,30,31
 116 940 116 940 176 938 c 128,-1,32
 236 936 236 936 266 936 c 0,33,34
 285 936 285 936 285 905 c 0,35,36
 285 883 285 883 283 838.5 c 128,-1,37
 281 794 281 794 281 772 c 0,38,39
 281 598 281 598 291 526 c 0,40,41
 300 463 300 463 448 262 c 0,42,43
 466 238 466 238 469 238 c 256,44,45
 472 238 472 238 487 260 c 0,46,47
 617 449 617 449 635 518 c 0,48,49
 647 566 647 566 647 733 c 0,50,51
 647 767 647 767 643 834 c 128,-1,52
 639 901 639 901 639 934 c 0,53,54
 639 956 639 956 657 956 c 2,55,-1
 848 956 l 2,56,57
 864 956 864 956 864 930 c 0,58,59
 864 898 864 898 861 833.5 c 128,-1,60
 858 769 858 769 858 737 c 0,61,62
 858 560 858 560 864 532.5 c 128,-1,63
 870 505 870 505 958 375.5 c 128,-1,64
 1046 246 1046 246 1059 246 c 0,65,66
 1062 246 1062 246 1077 270 c 0,67,68
 1204 463 1204 463 1214 528 c 0,69,70
 1223 582 1223 582 1223 711 c 0,71,72
 1223 749 1223 749 1217 820.5 c 128,-1,73
 1211 892 1211 892 1211 923 c 0,74,75
 1211 938 1211 938 1231 938 c 0,76,77
 1261 938 1261 938 1320 940 c 128,-1,78
 1379 942 1379 942 1409 942 c 0,79,80
 1431 942 1431 942 1436 922 c 0,81,82
 1444 883 1444 883 1444 717 c 0,0,1
EndSplineSet
EndChar
StartChar: x
Encoding: 120 120 91
Width: 889
GlyphClass: 1
Flags: W
LayerCount: 2
Fore
SplineSet
852 18 m 2,0,1
 852 4 852 4 831 -1 c 0,2,3
 816 -4 816 -4 788 -2 c 0,4,5
 747 0 747 0 752 0 c 1,6,7
 673 0 673 0 657 18 c 0,8,9
 596 109 596 109 471 285 c 0,10,11
 447 317 447 317 444 317 c 0,12,13
 435 317 435 317 332 164 c 0,14,15
 227 8 227 8 205 4 c 128,-1,16
 183 0 183 0 63 0 c 0,17,18
 39 0 39 0 39 18 c 2,19,-1
 39 127 l 2,20,21
 39 138 39 138 172 299 c 128,-1,22
 305 460 305 460 305 476 c 0,23,24
 305 491 305 491 172 651 c 128,-1,25
 39 811 39 811 39 827 c 2,26,-1
 39 934 l 2,27,28
 39 954 39 954 63 954 c 0,29,30
 88 954 88 954 138 950 c 128,-1,31
 188 946 188 946 213 946 c 0,32,33
 227 946 227 946 238 932 c 0,34,35
 297 841 297 841 418 664 c 0,36,37
 442 631 442 631 444 631 c 0,38,39
 447 631 447 631 466 657 c 0,40,41
 524 736 524 736 657 936 c 0,42,43
 667 950 667 950 680 950 c 0,44,45
 705 950 705 950 754 952 c 128,-1,46
 803 954 803 954 827 954 c 0,47,48
 852 954 852 954 852 934 c 2,49,-1
 852 829 l 2,50,51
 852 811 852 811 718.5 651 c 128,-1,52
 585 491 585 491 585 475 c 0,53,54
 585 465 585 465 718.5 304 c 128,-1,55
 852 143 852 143 852 125 c 2,56,-1
 852 18 l 2,0,1
EndSplineSet
EndChar
StartChar: y
Encoding: 121 121 92
Width: 975
GlyphClass: 1
Flags: W
LayerCount: 2
Fore
SplineSet
944 696 m 0,0,1
 944 527 944 527 934 492 c 0,2,3
 921 447 921 447 686.5 99.5 c 128,-1,4
 452 -248 452 -248 408 -289 c 0,5,6
 368 -325 368 -325 150 -325 c 0,7,8
 124 -325 124 -325 116.5 -319.5 c 128,-1,9
 109 -314 109 -314 82.5 -247 c 128,-1,10
 56 -180 56 -180 56 -167 c 0,11,12
 56 -145 56 -145 109 -145 c 0,13,14
 221 -145 221 -145 274 -113 c 0,15,16
 292 -102 292 -102 328.5 -44 c 128,-1,17
 365 14 365 14 365 34 c 0,18,19
 365 61 365 61 220 245 c 0,20,21
 67 440 67 440 49 492 c 0,22,23
 35 533 35 533 35 688 c 0,24,25
 35 726 35 726 36 802.5 c 128,-1,26
 37 879 37 879 37 918 c 0,27,28
 37 940 37 940 61 940 c 0,29,30
 93 940 93 940 155.5 936 c 128,-1,31
 218 932 218 932 250 932 c 0,32,33
 266 932 266 932 266 911 c 0,34,35
 266 883 266 883 263 827 c 128,-1,36
 260 771 260 771 260 743 c 0,37,38
 260 621 260 621 268 561 c 0,39,40
 274 523 274 523 377 372 c 128,-1,41
 480 221 480 221 504 221 c 0,42,43
 521 221 521 221 612 369.5 c 128,-1,44
 703 518 703 518 709 553 c 0,45,46
 717 603 717 603 717 735 c 0,47,48
 717 764 717 764 711 820.5 c 128,-1,49
 705 877 705 877 705 905 c 0,50,51
 705 930 705 930 721 930 c 0,52,53
 753 930 753 930 817.5 934.5 c 128,-1,54
 882 939 882 939 914 939 c 0,55,56
 944 939 944 939 944 696 c 0,0,1
EndSplineSet
EndChar
StartChar: z
Encoding: 122 122 93
Width: 862
GlyphClass: 1
Flags: W
LayerCount: 2
Fore
SplineSet
844 190 m 0,0,1
 844 185 844 185 829 119 c 0,2,3
 813 48 813 48 811 31 c 0,4,5
 807 -4 807 -4 793 -4 c 0,6,7
 758 -4 758 -4 699 0 c 0,8,9
 632 5 632 5 606 6 c 0,10,11
 539 8 539 8 414 8 c 0,12,13
 317 8 317 8 199 0 c 0,14,15
 51 -10 51 -10 72 -10 c 1,16,17
 51 -10 51 -10 45 8 c 0,18,19
 31 56 31 56 31 120 c 0,20,21
 31 129 31 129 32 145.5 c 128,-1,22
 33 162 33 162 33 170 c 0,23,24
 33 184 33 184 54.5 203.5 c 128,-1,25
 76 223 76 223 268 430 c 0,26,27
 365 531 365 531 543 741 c 1,28,-1
 102 741 l 2,29,30
 86 741 86 741 86 762 c 0,31,32
 86 791 86 791 98.5 848.5 c 128,-1,33
 111 906 111 906 111 934 c 0,34,35
 111 946 111 946 139 946 c 0,36,37
 195 946 195 946 306 941 c 128,-1,38
 417 936 417 936 473 936 c 0,39,40
 747 936 747 936 782 932 c 0,41,42
 807 929 807 929 807 911 c 0,43,44
 807 760 807 760 795 741 c 0,45,46
 785 727 785 727 622 544 c 0,47,48
 517 425 517 425 305 190 c 1,49,50
 638 199 638 199 821 199 c 0,51,52
 844 199 844 199 844 190 c 0,0,1
EndSplineSet
EndChar
StartChar: braceleft
Encoding: 123 123 94
Width: 698
GlyphClass: 1
Flags: W
LayerCount: 2
Fore
SplineSet
674 -301 m 0,0,1
 674 -305 674 -305 659 -309 c 0,2,3
 604 -326 604 -326 496 -326 c 0,4,5
 341 -326 341 -326 264 -292 c 0,6,7
 150 -241 150 -241 150 -104 c 0,8,9
 150 -55 150 -55 182 46 c 0,10,11
 218 155 218 155 223 201 c 0,12,13
 229 256 229 256 229 297 c 0,14,15
 229 407 229 407 168 440 c 0,16,17
 123 465 123 465 68 465 c 0,18,19
 49 465 49 465 49 485 c 0,20,21
 49 496 49 496 53 517 c 128,-1,22
 57 538 57 538 57 549 c 0,23,24
 57 559 57 559 53 579.5 c 128,-1,25
 49 600 49 600 49 610 c 0,26,27
 49 627 49 627 92 635 c 0,28,29
 150 645 150 645 168 655 c 0,30,31
 228 692 228 692 228 802 c 0,32,33
 228 872 228 872 189 1004 c 128,-1,34
 150 1136 150 1136 150 1200 c 0,35,36
 150 1336 150 1336 264 1387 c 0,37,38
 341 1421 341 1421 496 1421 c 0,39,40
 623 1421 623 1421 659 1407 c 0,41,42
 674 1401 674 1401 674 1386 c 0,43,44
 674 1365 674 1365 669 1318.5 c 128,-1,45
 664 1272 664 1272 664 1247 c 0,46,47
 664 1229 664 1229 645 1229 c 256,48,49
 626 1229 626 1229 564.5 1239 c 128,-1,50
 503 1249 503 1249 469 1249 c 0,51,52
 380 1249 380 1249 380 1166 c 0,53,54
 380 1114 380 1114 409 1010.5 c 128,-1,55
 438 907 438 907 438 854 c 0,56,57
 438 726 438 726 388 646 c 0,58,59
 327 549 327 549 207 549 c 1,60,61
 438 549 438 549 438 256 c 0,62,63
 438 199 438 199 408.5 83.5 c 128,-1,64
 379 -32 379 -32 379 -83 c 0,65,66
 379 -164 379 -164 481 -164 c 0,67,68
 554 -164 554 -164 645 -137 c 0,69,70
 651 -136 651 -136 655 -136 c 0,71,72
 664 -136 664 -136 667 -157 c 0,73,74
 669 -172 669 -172 668 -199 c 0,75,76
 666 -235 666 -235 666 -231 c 1,77,78
 666 -243 666 -243 670 -266 c 128,-1,79
 674 -289 674 -289 674 -301 c 0,0,1
EndSplineSet
EndChar
StartChar: bar
Encoding: 124 124 95
Width: 502
GlyphClass: 1
Flags: W
LayerCount: 2
Fore
SplineSet
342 -94 m 0,0,1
 342 -114 342 -114 330 -117 c 0,2,3
 221 -140 221 -140 176 -140 c 0,4,5
 168 -140 168 -140 168 -121 c 2,6,-1
 168 647 l 2,7,8
 168 768 168 768 163 1010 c 128,-1,9
 158 1252 158 1252 158 1372 c 0,10,11
 158 1423 158 1423 267 1420 c 2,12,-1
 311 1419 l 2,13,14
 330 1419 330 1419 332 1393 c 0,15,16
 335 1353 335 1353 332 1287 c 0,17,18
 329 1199 329 1199 329 1182 c 2,19,-1
 330 672 l 2,20,21
 330 561 330 561 336 289 c 0,22,23
 342 37 342 37 342 -94 c 0,0,1
EndSplineSet
EndChar
StartChar: braceright
Encoding: 125 125 96
Width: 698
GlyphClass: 1
Flags: W
LayerCount: 2
Fore
SplineSet
655 485 m 0,0,1
 655 465 655 465 637 465 c 0,2,3
 581 465 581 465 537 440 c 0,4,5
 476 407 476 407 476 297 c 0,6,7
 476 256 476 256 481 201 c 0,8,9
 486 155 486 155 522 46 c 0,10,11
 555 -55 555 -55 555 -104 c 0,12,13
 555 -241 555 -241 440 -292 c 0,14,15
 364 -326 364 -326 209 -326 c 0,16,17
 101 -326 101 -326 45 -309 c 0,18,19
 31 -305 31 -305 31 -301 c 0,20,21
 31 -289 31 -289 35 -266 c 128,-1,22
 39 -243 39 -243 39 -231 c 0,23,24
 39 -218 39 -218 38 -192.5 c 128,-1,25
 37 -167 37 -167 37 -154 c 0,26,27
 37 -136 37 -136 50 -136 c 0,28,29
 52 -136 52 -136 59 -137 c 0,30,31
 173 -164 173 -164 223 -164 c 0,32,33
 325 -164 325 -164 325 -83 c 0,34,35
 325 -32 325 -32 295.5 83.5 c 128,-1,36
 266 199 266 199 266 256 c 0,37,38
 266 549 266 549 498 549 c 1,39,40
 377 549 377 549 317 646 c 0,41,42
 266 726 266 726 266 854 c 0,43,44
 266 907 266 907 295.5 1010.5 c 128,-1,45
 325 1114 325 1114 325 1166 c 0,46,47
 325 1249 325 1249 236 1249 c 0,48,49
 202 1249 202 1249 140.5 1239 c 128,-1,50
 79 1229 79 1229 59 1229 c 0,51,52
 41 1229 41 1229 41 1247 c 0,53,54
 41 1272 41 1272 36 1318.5 c 128,-1,55
 31 1365 31 1365 31 1386 c 0,56,57
 31 1401 31 1401 45 1407 c 0,58,59
 82 1421 82 1421 209 1421 c 0,60,61
 363 1421 363 1421 440 1387 c 0,62,63
 555 1336 555 1336 555 1200 c 0,64,65
 555 1136 555 1136 515.5 1004 c 128,-1,66
 476 872 476 872 476 802 c 0,67,68
 476 692 476 692 537 655 c 0,69,70
 555 645 555 645 612 635 c 0,71,72
 655 627 655 627 655 610 c 0,73,74
 655 600 655 600 651 579.5 c 128,-1,75
 647 559 647 559 647 549 c 0,76,77
 647 538 647 538 651 517 c 128,-1,78
 655 496 655 496 655 485 c 0,0,1
EndSplineSet
EndChar
StartChar: asciitilde
Encoding: 126 126 97
Width: 997
GlyphClass: 1
Flags: W
LayerCount: 2
Fore
SplineSet
981 618 m 0,0,1
 981 597 981 597 840 516 c 0,2,3
 732 455 732 455 649 455 c 0,4,5
 587 455 587 455 504 492 c 128,-1,6
 421 529 421 529 380 529 c 0,7,8
 342 529 342 529 261.5 478.5 c 128,-1,9
 181 428 181 428 176 428 c 0,10,11
 170 428 170 428 113 495 c 0,12,13
 49 568 49 568 40.5 575.5 c 128,-1,14
 32 583 32 583 32 588 c 0,15,16
 32 606 32 606 184 696 c 0,17,18
 291 760 291 760 363 760 c 0,19,20
 419 760 419 760 492.5 720 c 128,-1,21
 566 680 566 680 614 680 c 0,22,23
 669 680 669 680 759.5 734.5 c 128,-1,24
 850 789 850 789 849 789 c 1,25,26
 858 789 858 789 919.5 708.5 c 128,-1,27
 981 628 981 628 981 618 c 0,0,1
EndSplineSet
EndChar
StartChar: exclamdown
Encoding: 161 161 99
Width: 475
GlyphClass: 1
Flags: W
LayerCount: 2
Fore
SplineSet
377 1264 m 256,0,1
 377 1204 377 1204 340.5 1164 c 128,-1,2
 304 1124 304 1124 246 1124 c 0,3,4
 187 1124 187 1124 152 1164 c 128,-1,5
 117 1204 117 1204 117 1264 c 0,6,7
 117 1323 117 1323 152 1365 c 128,-1,8
 187 1407 187 1407 246 1407 c 256,9,10
 305 1407 305 1407 341 1365.5 c 128,-1,11
 377 1324 377 1324 377 1264 c 256,0,1
373 231 m 0,12,13
 373 195 373 195 372 123 c 128,-1,14
 371 51 371 51 371 13 c 128,-1,15
 371 -25 371 -25 358 -25 c 0,16,17
 340 -25 340 -25 302.5 -19.5 c 128,-1,18
 265 -14 265 -14 246 -14 c 256,19,20
 227 -14 227 -14 190 -19.5 c 128,-1,21
 153 -25 153 -25 135 -25 c 0,22,23
 123 -25 123 -25 123 14 c 2,24,-1
 123 612 l 2,25,26
 123 689 123 689 184 995 c 0,27,28
 187 1009 187 1009 190 1015 c 0,29,30
 195 1026 195 1026 205 1026 c 2,31,-1
 281 1027 l 2,32,33
 292 1027 292 1027 297 991 c 0,34,35
 305 931 305 931 336 754 c 0,36,37
 373 544 373 544 373 231 c 0,12,13
EndSplineSet
EndChar
StartChar: cent
Encoding: 162 162 100
Width: 709
GlyphClass: 1
Flags: W
LayerCount: 2
Fore
SplineSet
664 975 m 0,0,1
 664 953 664 953 631 840 c 0,2,3
 627 828 627 828 623 828 c 0,4,5
 618 829 618 829 612 834 c 0,6,7
 553 876 553 876 500 881 c 1,8,9
 475 720 475 720 426 399 c 1,10,11
 445 393 445 393 469 393 c 0,12,13
 523 393 523 393 573 420 c 0,14,15
 595 433 595 433 618 447 c 1,16,17
 629 441 629 441 643 376 c 0,18,19
 655 318 655 318 655 294 c 0,20,21
 655 264 655 264 564 246 c 0,22,23
 494 232 494 232 423 232 c 0,24,25
 407 232 407 232 399 233 c 1,26,27
 384 88 384 88 371 16 c 0,28,29
 367 -1 367 -1 362 -1 c 0,30,31
 352 -1 352 -1 331.5 3 c 128,-1,32
 311 7 311 7 300 7 c 0,33,34
 281 7 281 7 281 19 c 0,35,36
 281 37 281 37 319 254 c 1,37,38
 196 299 196 299 125.5 401.5 c 128,-1,39
 55 504 55 504 55 637 c 0,40,41
 55 809 55 809 162 926 c 0,42,43
 272 1047 272 1047 442 1047 c 1,44,45
 449 1100 449 1100 467 1206 c 0,46,47
 471 1225 471 1225 475 1225 c 2,48,-1
 549 1196 l 2,49,50
 552 1192 552 1192 552 1182 c 0,51,52
 552 1161 552 1161 537 1109 c 0,53,54
 523 1061 523 1061 526 1038 c 1,55,56
 557 1033 557 1033 603 1016 c 0,57,58
 664 994 664 994 664 975 c 0,0,1
416 874 m 1,59,60
 339 858 339 858 293 787 c 0,61,62
 252 722 252 722 252 640 c 0,63,64
 252 507 252 507 346 434 c 1,65,66
 356 491 356 491 416 874 c 1,59,60
EndSplineSet
EndChar
StartChar: sterling
Encoding: 163 163 101
Width: 956
GlyphClass: 1
Flags: W
LayerCount: 2
Fore
SplineSet
989 195 m 0,0,1
 989 192 989 192 985 178 c 2,2,3
 985 178 985 178 958 20 c 0,4,5
 955 0 955 0 930 0 c 0,6,7
 849 0 849 0 687.5 3.5 c 128,-1,8
 526 7 526 7 445 7 c 0,9,10
 262 7 262 7 215 -4 c 0,11,12
 128 -24 128 -24 110 -24 c 0,13,14
 95 -24 95 -24 90 -6 c 0,15,16
 51 125 51 125 51 173 c 0,17,18
 51 194 51 194 89 194 c 0,19,20
 169 194 169 194 253 248 c 0,21,22
 346 308 346 308 346 385 c 0,23,24
 346 421 346 421 328 465 c 1,25,26
 287 460 287 460 168 460 c 0,27,28
 96 460 96 460 92 462 c 0,29,30
 76 471 76 471 76 531 c 0,31,32
 76 670 76 670 117 670 c 0,33,34
 132 670 132 670 162 669 c 128,-1,35
 192 668 192 668 207 668 c 1,36,37
 118 823 118 823 118 912 c 0,38,39
 118 1067 118 1067 259 1155 c 0,40,41
 379 1229 379 1229 544 1229 c 0,42,43
 619 1229 619 1229 739 1195 c 0,44,45
 885 1155 885 1155 885 1105 c 0,46,47
 885 1098 885 1098 871 1033 c 0,48,49
 856 964 856 964 854.5 947.5 c 128,-1,50
 853 931 853 931 842 911 c 0,51,52
 839 910 839 910 834 910 c 1,53,54
 843 910 843 910 728 967 c 128,-1,55
 613 1024 613 1024 522 1024 c 0,56,57
 452 1024 452 1024 404 997 c 0,58,59
 344 964 344 964 344 899 c 0,60,61
 344 854 344 854 389 775 c 0,62,63
 425 717 425 717 461 659 c 1,64,65
 548 655 548 655 756 655 c 0,66,67
 771 655 771 655 776 637 c 0,68,69
 779 624 779 624 777 599 c 0,70,71
 774 565 774 565 774 568 c 1,72,73
 774 551 774 551 777.5 519 c 128,-1,74
 781 487 781 487 781 471 c 0,75,76
 781 461 781 461 762 461 c 0,77,78
 577 461 577 461 563 465 c 1,79,80
 576 425 576 425 576 386 c 0,81,82
 576 285 576 285 494 203 c 1,83,84
 571 203 571 203 727.5 205 c 128,-1,85
 884 207 884 207 963 207 c 0,86,87
 989 207 989 207 989 195 c 0,0,1
EndSplineSet
EndChar
StartChar: currency
Encoding: 164 164 102
Width: 1221
GlyphClass: 1
Flags: W
LayerCount: 2
Fore
SplineSet
1095 1099 m 1,0,-1
 918 921 l 1,1,-1
 918 526 l 1,2,-1
 1095 349 l 1,3,-1
 977 231 l 1,4,-1
 783 425 l 1,5,-1
 453 425 l 1,6,-1
 260 231 l 1,7,-1
 142 349 l 1,8,-1
 319 527 l 1,9,-1
 319 922 l 1,10,-1
 142 1099 l 1,11,-1
 260 1217 l 1,12,-1
 454 1023 l 1,13,-1
 784 1023 l 1,14,-1
 977 1217 l 1,15,-1
 1095 1099 l 1,0,-1
754 574 m 1,16,-1
 754 876 l 1,17,-1
 483 876 l 1,18,-1
 483 573 l 1,19,-1
 754 574 l 1,16,-1
EndSplineSet
EndChar
StartChar: yen
Encoding: 165 165 103
Width: 1348
GlyphClass: 1
Flags: W
LayerCount: 2
Fore
SplineSet
1311 952 m 0,0,1
 1311 926 1311 926 1309 874.5 c 128,-1,2
 1307 823 1307 823 1307 797 c 0,3,4
 1307 781 1307 781 1230 782 c 0,5,6
 1183 784 1183 784 1137 786 c 1,7,8
 1079 696 1079 696 948 532 c 1,9,10
 981 534 981 534 1094 545 c 0,11,12
 1185 553 1185 553 1239 553 c 0,13,14
 1257 553 1257 553 1257 539 c 2,15,-1
 1257 451 l 2,16,17
 1257 441 1257 441 1261 421 c 128,-1,18
 1265 401 1265 401 1265 390 c 0,19,20
 1265 363 1265 363 1239 358 c 0,21,22
 1237 358 1237 358 1127 356 c 0,23,24
 951 352 951 352 803 350 c 1,25,26
 791 327 791 327 791 18 c 0,27,28
 791 0 791 0 778 0 c 0,29,30
 758 0 758 0 718.5 2 c 128,-1,31
 679 4 679 4 659 4 c 0,32,33
 641 4 641 4 604 2 c 128,-1,34
 567 0 567 0 549 0 c 0,35,36
 529 0 529 0 528 29 c 0,37,38
 527 82 527 82 530 172 c 0,39,40
 532 279 532 279 532 315 c 0,41,42
 532 331 532 331 526 352 c 1,43,44
 84 358 84 358 88 358 c 1,45,46
 59 358 59 358 59 433 c 0,47,48
 59 527 59 527 61.5 540 c 128,-1,49
 64 553 64 553 82 553 c 1,50,51
 65 553 65 553 381 532 c 1,52,53
 315 613 315 613 193 784 c 1,54,55
 139 782 139 782 43 782 c 0,56,57
 16 782 16 782 16 838 c 0,58,59
 16 1001 16 1001 13 915 c 1,60,61
 14 967 14 967 37 967 c 0,62,63
 47 967 47 967 133 961 c 1,64,65
 133 986 133 986 129 1089 c 0,66,67
 127 1167 127 1167 127 1217 c 0,68,69
 127 1239 127 1239 150 1239 c 0,70,71
 185 1239 185 1239 257 1234 c 128,-1,72
 329 1229 329 1229 365 1229 c 0,73,74
 381 1229 381 1229 381 1219 c 0,75,76
 381 1175 381 1175 379 1085 c 128,-1,77
 377 995 377 995 377 950 c 1,78,79
 552 946 552 946 659 946 c 0,80,81
 771 946 771 946 950 950 c 1,82,83
 950 980 950 980 945 1078 c 0,84,85
 942 1158 942 1158 942 1206 c 0,86,87
 942 1226 942 1226 963 1229 c 0,88,89
 1032 1239 1032 1239 1184 1239 c 0,90,91
 1208 1239 1208 1239 1208 1210 c 0,92,93
 1208 1163 1208 1163 1206 1085 c 0,94,95
 1203 989 1203 989 1202 961 c 1,96,97
 1285 967 1285 967 1292 967 c 0,98,99
 1311 967 1311 967 1311 952 c 0,0,1
889 793 m 1,100,101
 819 795 819 795 722 795 c 2,102,-1
 645 795 l 2,103,104
 613 795 613 795 547.5 794 c 128,-1,105
 482 793 482 793 451 793 c 1,106,107
 589 628 589 628 682 532 c 1,108,109
 772 626 772 626 889 793 c 1,100,101
EndSplineSet
EndChar
StartChar: brokenbar
Encoding: 166 166 104
Width: 502
GlyphClass: 1
Flags: W
LayerCount: 2
Fore
SplineSet
342 709 m 0,0,1
 342 699 342 699 330 697 c 0,2,3
 240 684 240 684 176 684 c 0,4,5
 168 684 168 684 168 695 c 2,6,-1
 168 1122 l 2,7,8
 168 1188 168 1188 163 1321 c 128,-1,9
 158 1454 158 1454 158 1520 c 0,10,11
 158 1551 158 1551 267 1551 c 0,12,13
 330 1551 330 1551 332 1536 c 1,14,15
 329 1558 329 1558 329 1417 c 2,16,-1
 330 1135 l 2,17,18
 330 1066 330 1066 336 922 c 0,19,20
 342 782 342 782 342 709 c 0,0,1
342 -325 m 0,21,22
 342 -336 342 -336 330 -338 c 0,23,24
 240 -351 240 -351 176 -351 c 0,25,26
 168 -351 168 -351 168 -340 c 2,27,-1
 168 87 l 2,28,29
 168 153 168 153 163 286 c 128,-1,30
 158 419 158 419 158 485 c 0,31,32
 158 517 158 517 267 517 c 0,33,34
 330 517 330 517 332 501 c 1,35,36
 329 523 329 523 329 382 c 2,37,-1
 330 100 l 2,38,39
 330 32 330 32 336 -113 c 0,40,41
 342 -253 342 -253 342 -325 c 0,21,22
EndSplineSet
EndChar
StartChar: section
Encoding: 167 167 105
Width: 831
GlyphClass: 1
Flags: W
LayerCount: 2
Fore
SplineSet
764 182 m 0,0,1
 764 35 764 35 647 -52 c 0,2,3
 541 -131 541 -131 389 -131 c 0,4,5
 185 -131 185 -131 76 -10 c 0,6,7
 59 8 59 8 59 16 c 1,8,9
 59 12 59 12 135 156 c 0,10,11
 139 164 139 164 146 164 c 1,12,13
 142 164 142 164 224.5 100.5 c 128,-1,14
 307 37 307 37 375 37 c 0,15,16
 445 37 445 37 490 68 c 0,17,18
 543 104 543 104 543 170 c 0,19,20
 543 238 543 238 422 302 c 0,21,22
 198 420 198 420 197 421 c 0,23,24
 76 505 76 505 76 621 c 0,25,26
 76 712 76 712 127.5 788 c 128,-1,27
 179 864 179 864 179 866 c 0,28,29
 179 876 179 876 150 910 c 0,30,31
 114 953 114 953 97 989 c 0,32,33
 68 1049 68 1049 68 1120 c 0,34,35
 68 1267 68 1267 170 1346 c 0,36,37
 263 1419 263 1419 414 1419 c 0,38,39
 596 1419 596 1419 680 1323 c 0,40,41
 693 1308 693 1308 693 1297 c 1,42,-1
 627 1167 l 2,43,44
 623 1160 623 1160 618 1160 c 1,45,46
 619 1160 619 1160 549.5 1211 c 128,-1,47
 480 1262 480 1262 416 1262 c 0,48,49
 274 1262 274 1262 274 1153 c 0,50,51
 274 1088 274 1088 319 1043 c 0,52,53
 345 1018 345 1018 422 973 c 0,54,55
 593 873 593 873 627 848 c 0,56,57
 754 753 754 753 754 664 c 0,58,59
 754 585 754 585 695.5 506 c 128,-1,60
 637 427 637 427 637 431 c 1,61,62
 637 420 637 420 670 392 c 0,63,64
 711 358 711 358 731 323 c 0,65,66
 764 266 764 266 764 182 c 0,0,1
547 603 m 0,67,68
 547 661 547 661 470.5 729 c 128,-1,69
 394 797 394 797 338 797 c 0,70,71
 317 797 317 797 293 755 c 0,72,73
 272 717 272 717 272 694 c 0,74,75
 272 639 272 639 352 574 c 0,76,77
 428 514 428 514 480 514 c 0,78,79
 500 514 500 514 524 550 c 0,80,81
 547 583 547 583 547 603 c 0,67,68
EndSplineSet
EndChar
StartChar: dieresis
Encoding: 168 168 106
Width: 715
GlyphClass: 1
Flags: W
LayerCount: 2
Fore
SplineSet
684 1216 m 256,0,1
 684 1199 684 1199 648 1199 c 0,2,3
 618 1199 618 1199 559 1198 c 128,-1,4
 500 1197 500 1197 471 1197 c 0,5,6
 446 1197 446 1197 446 1225 c 2,7,-1
 445 1429 l 2,8,9
 445 1454 445 1454 465 1454 c 0,10,11
 482 1454 482 1454 517.5 1451 c 128,-1,12
 553 1448 553 1448 571 1448 c 0,13,14
 586 1448 586 1448 615 1449 c 128,-1,15
 644 1450 644 1450 658 1450 c 0,16,17
 682 1450 682 1450 682 1434 c 0,18,19
 682 1415 682 1415 678 1377.5 c 128,-1,20
 674 1340 674 1340 674 1321 c 0,21,22
 674 1303 674 1303 679 1268 c 128,-1,23
 684 1233 684 1233 684 1216 c 256,0,1
275 1211 m 0,24,25
 275 1200 275 1200 246 1197 c 0,26,27
 225 1195 225 1195 188 1197 c 0,28,29
 144 1200 144 1200 147 1200 c 1,30,31
 132 1200 132 1200 101.5 1198 c 128,-1,32
 71 1196 71 1196 56 1196 c 0,33,34
 37 1196 37 1196 37 1215 c 0,35,36
 37 1231 37 1231 39 1262 c 128,-1,37
 41 1293 41 1293 41 1309 c 0,38,39
 41 1329 41 1329 38 1369.5 c 128,-1,40
 35 1410 35 1410 35 1430 c 0,41,42
 35 1452 35 1452 59 1452 c 0,43,44
 89 1452 89 1452 150.5 1451 c 128,-1,45
 212 1450 212 1450 242.5 1450 c 128,-1,46
 273 1450 273 1450 273 1429 c 0,47,48
 273 1411 273 1411 269.5 1374 c 128,-1,49
 266 1337 266 1337 266 1319 c 256,50,51
 266 1301 266 1301 270.5 1265 c 128,-1,52
 275 1229 275 1229 275 1211 c 0,24,25
EndSplineSet
EndChar
StartChar: copyright
Encoding: 169 169 107
Width: 1266
GlyphClass: 1
Flags: W
LayerCount: 2
Fore
SplineSet
1192 778 m 0,0,1
 1192 533 1192 533 1038 350 c 0,2,3
 876 158 876 158 635 158 c 256,4,5
 394 158 394 158 232 350 c 0,6,7
 78 533 78 533 78 778 c 0,8,9
 78 1027 78 1027 230 1208 c 0,10,11
 390 1399 390 1399 635 1399 c 0,12,13
 877 1399 877 1399 1039 1207 c 0,14,15
 1192 1025 1192 1025 1192 778 c 0,0,1
1085 780 m 0,16,17
 1085 980 1085 980 962 1132 c 0,18,19
 830 1294 830 1294 635 1294 c 0,20,21
 435 1294 435 1294 305 1134 c 0,22,23
 184 985 184 985 184 780 c 0,24,25
 184 577 184 577 306 427 c 0,26,27
 436 266 436 266 635 266 c 0,28,29
 832 266 832 266 963 428 c 0,30,31
 1085 579 1085 579 1085 780 c 0,16,17
889 1110 m 0,32,33
 889 1104 889 1104 858 1052 c 0,34,35
 825 996 825 996 822 988 c 128,-1,36
 819 980 819 980 815 972 c 0,37,38
 814 972 814 972 811 975 c 0,39,40
 743 1024 743 1024 672 1024 c 0,41,42
 483 1024 483 1024 483 786 c 0,43,44
 483 549 483 549 684 549 c 0,45,46
 726 549 726 549 767 568 c 0,47,48
 788 578 788 578 809 588 c 1,49,-1
 817 578 l 2,50,51
 824 568 824 568 851.5 515.5 c 128,-1,52
 879 463 879 463 879 457 c 0,53,54
 879 425 879 425 788 402 c 0,55,56
 716 383 716 383 670 383 c 0,57,58
 498 383 498 383 391.5 497 c 128,-1,59
 285 611 285 611 285 784 c 0,60,61
 285 955 285 955 390 1070 c 0,62,63
 499 1188 499 1188 668 1188 c 0,64,65
 717 1188 717 1188 793 1169 c 0,66,67
 889 1144 889 1144 889 1110 c 0,32,33
EndSplineSet
EndChar
StartChar: ordfeminine
Encoding: 170 170 108
Width: 942
GlyphClass: 1
Flags: W
LayerCount: 2
Fore
SplineSet
876 1360 m 0,0,1
 876 1356 876 1356 874 1343 c 0,2,3
 844 1143 844 1143 844 1004 c 0,4,5
 844 890 844 890 855 728 c 0,6,7
 864 586 864 586 864 608 c 1,8,9
 864 582 864 582 846 582 c 0,10,11
 820 582 820 582 768 578.5 c 128,-1,12
 716 575 716 575 690 575 c 0,13,14
 674 575 674 575 668.5 636.5 c 128,-1,15
 663 698 663 698 657 700 c 1,16,17
 649 695 649 695 637 682 c 0,18,19
 527 563 527 563 397 563 c 0,20,21
 241 563 241 563 141 703 c 0,22,23
 51 829 51 829 51 991 c 0,24,25
 51 1167 51 1167 149 1286 c 0,26,27
 254 1413 254 1413 426 1413 c 0,28,29
 493 1413 493 1413 564 1370.5 c 128,-1,30
 635 1328 635 1328 672 1270 c 0,31,32
 677 1267 677 1267 681 1295 c 0,33,34
 684 1316 684 1316 690 1360 c 0,35,36
 692 1378 692 1378 707 1401 c 1,37,38
 742 1399 742 1399 801 1388 c 0,39,40
 876 1374 876 1374 876 1360 c 0,0,1
865 469 m 0,41,42
 865 457 865 457 854 322 c 0,43,44
 851 310 851 310 842 311 c 2,45,-1
 831 311 l 1,46,47
 631 322 631 322 446 322 c 0,48,49
 392 322 392 322 282.5 316.5 c 128,-1,50
 173 311 173 311 119 311 c 0,51,52
 100 311 100 311 100 326 c 0,53,54
 100 438 100 438 109 473 c 0,55,56
 112 487 112 487 127 487 c 0,57,58
 186 487 186 487 303 483 c 128,-1,59
 420 479 420 479 479 479 c 0,60,61
 541 479 541 479 664.5 482 c 128,-1,62
 788 485 788 485 850 485 c 0,63,64
 865 485 865 485 865 469 c 0,41,42
643 1001 m 0,65,66
 643 1091 643 1091 596 1162 c 0,67,68
 542 1243 542 1243 457 1243 c 0,69,70
 364 1243 364 1243 307 1163 c 0,71,72
 256 1092 256 1092 256 995 c 0,73,74
 256 889 256 889 304 819 c 0,75,76
 359 739 359 739 461 739 c 0,77,78
 549 739 549 739 600 831 c 0,79,80
 643 906 643 906 643 1001 c 0,65,66
EndSplineSet
EndChar
StartChar: guillemotleft
Encoding: 171 171 109
Width: 1030
GlyphClass: 1
Flags: W
LayerCount: 2
Fore
SplineSet
978 779 m 1,0,1
 978 751 978 751 862 672 c 0,2,3
 763 605 763 605 715 584 c 0,4,5
 707 581 707 581 698 572 c 1,6,7
 698 572 698 572 841 482 c 0,8,9
 974 398 974 398 974 366 c 0,10,11
 974 363 974 363 971 356 c 0,12,13
 951 318 951 318 911 219 c 0,14,15
 907 205 907 205 900 205 c 1,16,17
 816 271 816 271 698 358 c 1,18,19
 601 422 601 422 514 467 c 0,20,21
 496 476 496 476 496 499 c 128,-1,22
 496 522 496 522 495 570.5 c 128,-1,23
 494 619 494 619 494 643 c 0,24,25
 494 664 494 664 512 674 c 0,26,27
 617 728 617 728 713 791 c 0,28,29
 723 797 723 797 814 868 c 0,30,31
 901 935 901 935 903 935 c 0,32,33
 910 935 910 935 913 922 c 0,34,35
 916 913 916 913 978 779 c 1,0,1
537 777 m 1,36,37
 537 749 537 749 398 659 c 0,38,39
 328 615 328 615 258 571 c 1,40,41
 259 571 259 571 402 482 c 0,42,43
 534 400 534 400 534 367 c 0,44,45
 534 364 534 364 530 356 c 0,46,47
 509 312 509 312 471 219 c 0,48,49
 466 205 466 205 460 205 c 0,50,51
 373 273 373 273 256 360 c 1,52,53
 174 415 174 415 74 467 c 0,54,55
 55 476 55 476 55 499 c 128,-1,56
 55 522 55 522 54 570.5 c 128,-1,57
 53 619 53 619 53 643 c 0,58,59
 53 664 53 664 72 674 c 0,60,61
 198 741 198 741 274 791 c 0,62,63
 285 797 285 797 375 868 c 0,64,65
 460 935 460 935 463 935 c 0,66,67
 471 935 471 935 474.5 923 c 128,-1,68
 478 911 478 911 537 777 c 1,36,37
EndSplineSet
EndChar
StartChar: logicalnot
Encoding: 172 172 110
Width: 942
GlyphClass: 1
Flags: W
LayerCount: 2
Fore
SplineSet
823 332 m 1,0,-1
 699 332 l 1,1,-1
 699 624 l 1,2,-1
 119 624 l 1,3,-1
 119 748 l 1,4,-1
 823 748 l 1,5,-1
 823 332 l 1,0,-1
EndSplineSet
EndChar
StartChar: minus
Encoding: 173 173 111
AltUni2: 002212.ffffffff.0 002212.ffffffff.0
Width: 827
GlyphClass: 1
Flags: W
LayerCount: 2
Fore
SplineSet
785 694 m 256,0,1
 785 681 785 681 770 516 c 0,2,3
 767 508 767 508 756 508 c 0,4,5
 696 508 696 508 575 511 c 128,-1,6
 454 514 454 514 393 514 c 2,7,8
 393 514 393 514 51 508 c 0,9,10
 34 508 34 508 34 522 c 0,11,12
 34 534 34 534 43 608 c 1,13,14
 43 651 43 651 47 700 c 1,15,16
 54 711 54 711 70 711 c 0,17,18
 125 711 125 711 235.5 704.5 c 128,-1,19
 346 698 346 698 401 698 c 0,20,21
 462 698 462 698 583.5 702.5 c 128,-1,22
 705 707 705 707 766 707 c 0,23,24
 785 707 785 707 785 694 c 256,0,1
EndSplineSet
EndChar
StartChar: registered
Encoding: 174 174 112
Width: 1266
GlyphClass: 1
Flags: W
LayerCount: 2
Fore
SplineSet
1190 778 m 0,0,1
 1190 533 1190 533 1036 350 c 0,2,3
 874 158 874 158 633 158 c 0,4,5
 393 158 393 158 230 351 c 0,6,7
 76 534 76 534 76 778 c 0,8,9
 76 1025 76 1025 229 1207 c 0,10,11
 391 1399 391 1399 633 1399 c 256,12,13
 875 1399 875 1399 1037 1207 c 0,14,15
 1190 1025 1190 1025 1190 778 c 0,0,1
1094 778 m 0,16,17
 1094 987 1094 987 969 1140 c 0,18,19
 837 1305 837 1305 633 1305 c 0,20,21
 579 1305 579 1305 488 1278 c 0,22,23
 377 1245 377 1245 376 1205 c 1,24,-1
 381 1198 l 1,25,26
 487 1210 487 1210 642 1210 c 0,27,28
 965 1210 965 1210 965 948 c 0,29,30
 965 856 965 856 933 790 c 0,31,32
 913 749 913 749 874 711 c 0,33,34
 842 680 842 680 842 670 c 0,35,36
 842 661 842 661 961 410 c 1,37,38
 1094 556 1094 556 1094 778 c 0,16,17
776 915 m 0,39,40
 776 1081 776 1081 580 1081 c 0,41,42
 540 1081 540 1081 494 1069 c 1,43,44
 490 1023 490 1023 490 931 c 2,45,-1
 489 819 l 1,46,47
 573 811 573 811 639 811 c 0,48,49
 776 811 776 811 776 915 c 0,39,40
918 367 m 1,50,51
 897 367 897 367 856 364.5 c 128,-1,52
 815 362 815 362 795 362 c 0,53,54
 780 362 780 362 774 375 c 0,55,56
 759 406 759 406 733 506 c 0,57,58
 710 595 710 595 686 633 c 0,59,60
 677 647 677 647 599 647 c 0,61,62
 527 647 527 647 541 648 c 1,63,64
 502 645 502 645 502 623 c 0,65,66
 502 581 502 581 515.5 497.5 c 128,-1,67
 529 414 529 414 529 373 c 0,68,69
 529 369 529 369 403 369 c 0,70,71
 361 369 361 369 348 367 c 1,72,73
 468 256 468 256 633 256 c 0,74,75
 794 256 794 256 918 367 c 1,50,51
334 725 m 0,76,77
 334 792 334 792 321 936 c 0,78,79
 306 1101 306 1101 291 1137 c 1,80,81
 172 966 172 966 172 778 c 0,82,83
 172 568 172 568 293 424 c 0,84,85
 300 416 300 416 311 416 c 256,86,87
 322 416 322 416 324 426 c 0,88,89
 334 491 334 491 334 725 c 0,76,77
EndSplineSet
EndChar
StartChar: macron
Encoding: 175 175 113
AltUni2: 0002c9.ffffffff.0 0002c9.ffffffff.0
Width: 715
GlyphClass: 1
Flags: W
LayerCount: 2
Fore
SplineSet
696 1317 m 0,0,1
 696 1312 696 1312 678 1239 c 0,2,3
 672 1200 672 1200 664 1157 c 0,4,5
 659 1147 659 1147 605 1145 c 0,6,7
 568 1144 568 1144 503 1146 c 0,8,9
 427 1149 427 1149 430 1149 c 1,10,11
 369 1149 369 1149 247.5 1141 c 128,-1,12
 126 1133 126 1133 66 1133 c 0,13,14
 37 1133 37 1133 37 1161 c 0,15,16
 37 1184 37 1184 66 1254.5 c 128,-1,17
 95 1325 95 1325 111 1325 c 0,18,19
 145 1325 145 1325 213 1320 c 128,-1,20
 281 1315 281 1315 315 1315 c 0,21,22
 376 1315 376 1315 497 1322 c 128,-1,23
 618 1329 618 1329 678 1329 c 0,24,25
 696 1329 696 1329 696 1317 c 0,0,1
EndSplineSet
EndChar
StartChar: degree
Encoding: 176 176 114
Width: 803
GlyphClass: 1
Flags: W
LayerCount: 2
Fore
SplineSet
725 1051 m 256,0,1
 725 906 725 906 636 799 c 0,2,3
 541 686 541 686 399 686 c 0,4,5
 258 686 258 686 163 800 c 0,6,7
 74 907 74 907 74 1051 c 256,8,9
 74 1195 74 1195 163 1302 c 0,10,11
 258 1415 258 1415 399 1415 c 0,12,13
 542 1415 542 1415 636 1302 c 0,14,15
 725 1196 725 1196 725 1051 c 256,0,1
584 1051 m 0,16,17
 584 1143 584 1143 539 1205 c 0,18,19
 489 1274 489 1274 399 1274 c 0,20,21
 312 1274 312 1274 261 1204 c 0,22,23
 215 1141 215 1141 215 1051 c 0,24,25
 215 965 215 965 264 901 c 0,26,27
 317 829 317 829 399 829 c 0,28,29
 487 829 487 829 538 898 c 0,30,31
 584 960 584 960 584 1051 c 0,16,17
EndSplineSet
EndChar
StartChar: plusminus
Encoding: 177 177 115
Width: 838
GlyphClass: 1
Flags: W
LayerCount: 2
Fore
SplineSet
768 650 m 1,0,-1
 479 650 l 1,1,-1
 479 396 l 1,2,-1
 360 396 l 1,3,-1
 360 650 l 1,4,-1
 70 650 l 1,5,-1
 70 764 l 1,6,-1
 360 764 l 1,7,-1
 360 1028 l 1,8,-1
 479 1028 l 1,9,-1
 479 764 l 1,10,-1
 768 764 l 1,11,-1
 768 650 l 1,0,-1
772 190 m 1,12,-1
 68 190 l 1,13,-1
 68 313 l 1,14,-1
 772 313 l 1,15,-1
 772 190 l 1,12,-1
EndSplineSet
EndChar
StartChar: twosuperior
Encoding: 178 178 116
Width: 784
GlyphClass: 1
Flags: W
LayerCount: 2
Fore
SplineSet
742 395 m 0,0,1
 742 380 742 380 717 380 c 0,2,3
 665 380 665 380 562 385.5 c 128,-1,4
 459 391 459 391 407 391 c 0,5,6
 354 391 354 391 247 389 c 128,-1,7
 140 387 140 387 86 387 c 0,8,9
 69 387 69 387 65 401 c 0,10,11
 46 460 46 460 46 546 c 0,12,13
 46 563 46 563 63 566 c 0,14,15
 98 571 98 571 168 595 c 1,16,17
 458 763 458 763 458 940 c 0,18,19
 458 1036 458 1036 310 1036 c 0,20,21
 246 1036 246 1036 154 990 c 128,-1,22
 62 944 62 944 73 944 c 1,23,24
 68 944 68 944 65 945.5 c 128,-1,25
 62 947 62 947 44.5 1028.5 c 128,-1,26
 27 1110 27 1110 27 1122 c 1,27,28
 43 1159 43 1159 184 1196 c 0,29,30
 307 1228 307 1228 368 1228 c 0,31,32
 502 1228 502 1228 589 1177 c 0,33,34
 695 1114 695 1114 695 989 c 0,35,36
 695 765 695 765 359 568 c 1,37,-1
 389 568 l 2,38,39
 521 565 521 565 716 584 c 1,40,-1
 726 584 l 2,41,42
 738 584 738 584 738 567 c 0,43,44
 738 552 738 552 736 521.5 c 128,-1,45
 734 491 734 491 734 476 c 0,46,47
 734 463 734 463 738 436 c 128,-1,48
 742 409 742 409 742 395 c 0,0,1
EndSplineSet
EndChar
StartChar: threesuperior
Encoding: 179 179 117
Width: 774
GlyphClass: 1
Flags: W
LayerCount: 2
Fore
SplineSet
705 624 m 0,0,1
 705 493 705 493 596 428 c 0,2,3
 506 374 506 374 366 374 c 0,4,5
 199 374 199 374 55 431 c 0,6,7
 40 437 40 437 40 443 c 0,8,9
 40 446 40 446 42 451 c 0,10,11
 49 467 49 467 61 500 c 1,12,13
 65 527 65 527 76 580 c 0,14,15
 81 595 81 595 90 595 c 0,16,17
 95 594 95 594 101 592 c 0,18,19
 226 539 226 539 313 539 c 0,20,21
 398 539 398 539 434 555 c 0,22,23
 490 579 490 579 490 649 c 0,24,25
 490 762 490 762 304 762 c 0,26,27
 280 762 280 762 238.5 760 c 128,-1,28
 197 758 197 758 183 758 c 0,29,30
 139 758 139 758 139 774 c 0,31,32
 139 908 139 908 162 908 c 0,33,34
 194 908 194 908 259 901.5 c 128,-1,35
 324 895 324 895 356 895 c 0,36,37
 446 895 446 895 446 975 c 0,38,39
 446 1065 446 1065 294 1065 c 0,40,41
 205 1065 205 1065 146 1044 c 0,42,43
 131 1036 131 1036 103 1025 c 0,44,45
 99 1024 99 1024 93 1024 c 256,46,47
 87 1024 87 1024 84 1040 c 0,48,49
 76 1078 76 1078 76 1160 c 0,50,51
 76 1194 76 1194 198 1212 c 0,52,53
 281 1225 281 1225 352 1225 c 0,54,55
 471 1225 471 1225 564 1178 c 0,56,57
 681 1119 681 1119 681 1011 c 0,58,59
 681 875 681 875 580 829 c 1,60,61
 705 767 705 767 705 624 c 0,0,1
EndSplineSet
EndChar
StartChar: acute
Encoding: 180 180 118
Width: 715
GlyphClass: 1
Flags: W
LayerCount: 2
Fore
SplineSet
558 1353 m 1,0,1
 543 1312 543 1312 337 1201 c 0,2,3
 136 1092 136 1092 88 1092 c 0,4,5
 70 1092 70 1092 57 1142 c 0,6,7
 47 1181 47 1181 47 1208 c 0,8,9
 47 1218 47 1218 66 1227 c 0,10,11
 231 1309 231 1309 408 1444 c 0,12,13
 412 1448 412 1448 423 1453 c 0,14,15
 428 1451 428 1451 436 1444 c 0,16,17
 479 1408 479 1408 547 1366 c 0,18,19
 552 1363 552 1363 558 1353 c 1,0,1
EndSplineSet
EndChar
StartChar: mu
Encoding: 181 181 119
AltUni2: 0003bc.ffffffff.0 0003bc.ffffffff.0
Width: 784
GlyphClass: 1
Flags: W
LayerCount: 2
Fore
SplineSet
676 0 m 1,0,-1
 545 0 l 1,1,-1
 545 28 l 1,2,3
 477 -1 477 -1 361 -1 c 0,4,5
 267 -1 267 -1 240 39 c 1,6,-1
 240 -369 l 1,7,-1
 109 -369 l 1,8,-1
 109 973 l 1,9,-1
 240 973 l 1,10,-1
 240 253 l 2,11,12
 240 114 240 114 378 114 c 0,13,14
 473 114 473 114 544 130 c 1,15,-1
 544 973 l 1,16,-1
 676 973 l 1,17,-1
 676 0 l 1,0,-1
EndSplineSet
EndChar
StartChar: paragraph
Encoding: 182 182 120
Width: 1112
GlyphClass: 1
Flags: W
LayerCount: 2
Fore
SplineSet
999 1313 m 0,0,1
 999 1218 999 1218 998 1028 c 128,-1,2
 997 838 997 838 997 743 c 0,3,4
 997 179 997 179 586 10 c 0,5,6
 439 -50 439 -50 283 -50 c 0,7,8
 256 -50 256 -50 248 -31 c 0,9,10
 226 18 226 18 226 47 c 0,11,12
 226 63 226 63 250 66 c 0,13,14
 326 71 326 71 401 76 c 0,15,16
 487 84 487 84 549 113 c 0,17,18
 753 206 753 206 822 430 c 0,19,20
 865 571 865 571 865 862 c 0,21,22
 865 1080 865 1080 862 1169 c 1,23,24
 838 1208 838 1208 750 1208 c 1,25,26
 767 1113 767 1113 767 837 c 0,27,28
 767 616 767 616 729 491 c 0,29,30
 674 307 674 307 524 219 c 0,31,32
 415 155 415 155 271 155 c 0,33,34
 212 155 212 155 191 195 c 0,35,36
 176 223 176 223 176 291 c 0,37,38
 176 319 176 319 195 319 c 0,39,40
 209 319 209 319 269 305 c 128,-1,41
 329 291 329 291 365 291 c 0,42,43
 482 291 482 291 554 378 c 0,44,45
 622 460 622 460 622 581 c 0,46,47
 622 609 622 609 616 609 c 1,48,49
 621 609 621 609 542 578 c 128,-1,50
 463 547 463 547 406 547 c 0,51,52
 257 547 257 547 164 657 c 0,53,54
 76 762 76 762 76 913 c 0,55,56
 76 1140 76 1140 211.5 1277.5 c 128,-1,57
 347 1415 347 1415 573 1415 c 0,58,59
 729 1415 729 1415 946 1360 c 0,60,61
 980 1351 980 1351 985 1348 c 0,62,63
 999 1339 999 1339 999 1313 c 0,0,1
649 852 m 0,64,65
 649 912 649 912 647 1032 c 128,-1,66
 645 1152 645 1152 645 1212 c 0,67,68
 645 1233 645 1233 592 1233 c 0,69,70
 338 1233 338 1233 338 928 c 0,71,72
 338 693 338 693 495 693 c 0,73,74
 576 693 576 693 641 739 c 1,75,76
 649 780 649 780 649 852 c 0,64,65
EndSplineSet
EndChar
StartChar: periodcentered
Encoding: 183 183 121
AltUni2: 002219.ffffffff.0 002219.ffffffff.0
Width: 440
GlyphClass: 1
Flags: W
LayerCount: 2
Fore
SplineSet
373 739 m 256,0,1
 373 673 373 673 328.5 624 c 128,-1,2
 284 575 284 575 219 575 c 256,3,4
 154 575 154 575 111 624 c 128,-1,5
 68 673 68 673 68 739 c 0,6,7
 68 806 68 806 111 853.5 c 128,-1,8
 154 901 154 901 219 901 c 0,9,10
 285 901 285 901 329 853 c 128,-1,11
 373 805 373 805 373 739 c 256,0,1
EndSplineSet
EndChar
StartChar: cedilla
Encoding: 184 184 122
Width: 715
GlyphClass: 1
Flags: W
LayerCount: 2
Fore
SplineSet
502 -113 m 1,0,1
 502 -244 502 -244 430 -323 c 0,2,3
 355 -406 355 -406 225 -406 c 0,4,5
 188 -406 188 -406 125 -375 c 0,6,7
 58 -343 58 -343 58 -314 c 0,8,9
 58 -311 58 -311 109 -250 c 128,-1,10
 160 -189 160 -189 165 -189 c 0,11,12
 166 -189 166 -189 168 -190 c 0,13,14
 212 -233 212 -233 258 -233 c 0,15,16
 294 -233 294 -233 321.5 -203 c 128,-1,17
 349 -173 349 -173 349 -137 c 0,18,19
 349 -77 349 -77 303 -27 c 1,20,-1
 438 -29 l 1,21,22
 460 -56 460 -56 502 -113 c 1,0,1
EndSplineSet
EndChar
StartChar: onesuperior
Encoding: 185 185 123
Width: 494
GlyphClass: 1
Flags: W
LayerCount: 2
Fore
SplineSet
408 1200 m 2,0,-1
 406 1188 l 1,1,2
 389 1016 389 1016 389 784 c 0,3,4
 389 724 389 724 390.5 604 c 128,-1,5
 392 484 392 484 392 423 c 0,6,7
 392 397 392 397 366 397 c 0,8,9
 336 397 336 397 277.5 395.5 c 128,-1,10
 219 394 219 394 189 394 c 0,11,12
 166 394 166 394 166 408 c 0,13,14
 166 500 166 500 173 684.5 c 128,-1,15
 180 869 180 869 180 962 c 0,16,17
 180 977 180 977 172 977 c 0,18,19
 154 977 154 977 115 966.5 c 128,-1,20
 76 956 76 956 57 956 c 0,21,22
 40 956 40 956 40 964 c 0,23,24
 40 1088 40 1088 40 1091 c 0,25,26
 40 1100 40 1100 57 1106 c 0,27,28
 102 1123 102 1123 151 1162 c 0,29,30
 153 1164 153 1164 192 1202 c 0,31,32
 227 1235 227 1235 231 1235 c 0,33,34
 307 1235 307 1235 397 1213 c 0,35,36
 408 1210 408 1210 408 1200 c 2,0,-1
EndSplineSet
EndChar
StartChar: ordmasculine
Encoding: 186 186 124
Width: 942
GlyphClass: 1
Flags: W
LayerCount: 2
Fore
SplineSet
848 997 m 256,0,1
 848 829 848 829 743 701 c 0,2,3
 632 565 632 565 467 565 c 0,4,5
 301 565 301 565 189 701 c 0,6,7
 84 828 84 828 84 997 c 256,8,9
 84 1166 84 1166 190 1293 c 0,10,11
 302 1427 302 1427 467 1427 c 0,12,13
 631 1427 631 1427 743 1292 c 0,14,15
 848 1165 848 1165 848 997 c 256,0,1
814 469 m 0,16,17
 814 452 814 452 807 391 c 0,18,19
 808 366 808 366 803 322 c 0,20,21
 799 310 799 310 791 311 c 2,22,-1
 780 311 l 1,23,24
 580 322 580 322 457 322 c 0,25,26
 405 322 405 322 302.5 316.5 c 128,-1,27
 200 311 200 311 150 311 c 0,28,29
 131 311 131 311 131 326 c 0,30,31
 131 439 131 439 139 473 c 0,32,33
 143 487 143 487 158 487 c 0,34,35
 213 487 213 487 323.5 483 c 128,-1,36
 434 479 434 479 489 479 c 0,37,38
 541 479 541 479 644 482 c 128,-1,39
 747 485 747 485 799 485 c 0,40,41
 814 485 814 485 814 469 c 0,16,17
662 997 m 0,42,43
 662 1092 662 1092 615 1166 c 0,44,45
 561 1251 561 1251 471 1251 c 0,46,47
 380 1251 380 1251 322 1167 c 0,48,49
 270 1092 270 1092 270 997 c 0,50,51
 270 895 270 895 318 823 c 0,52,53
 373 741 373 741 471 741 c 0,54,55
 563 741 563 741 616 827 c 0,56,57
 662 900 662 900 662 997 c 0,42,43
EndSplineSet
EndChar
StartChar: guillemotright
Encoding: 187 187 125
Width: 1030
GlyphClass: 1
Flags: W
LayerCount: 2
Fore
SplineSet
983 643 m 0,0,1
 983 619 983 619 982 570.5 c 128,-1,2
 981 522 981 522 981 499.5 c 128,-1,3
 981 477 981 477 963 467 c 0,4,5
 734 347 734 347 598 219 c 0,6,7
 592 212 592 212 577 205 c 1,8,9
 570 209 570 209 565 219 c 0,10,11
 548 265 548 265 506 356 c 0,12,13
 502 363 502 363 502 367 c 0,14,15
 502 393 502 393 617 471 c 0,16,17
 716 539 716 539 762 559 c 0,18,19
 770 562 770 562 779 571 c 1,20,21
 707 615 707 615 636 659 c 0,22,23
 499 746 499 746 499 779 c 1,24,25
 528 838 528 838 563 922 c 0,26,27
 567 935 567 935 574 935 c 0,28,29
 576 935 576 935 662 868 c 0,30,31
 754 797 754 797 764 791 c 0,32,33
 860 728 860 728 965 674 c 0,34,35
 983 664 983 664 983 643 c 0,0,1
543 498 m 2,36,37
 543 477 543 477 524 467 c 0,38,39
 274 334 274 334 158 219 c 0,40,41
 152 213 152 213 138 206 c 1,42,43
 131 209 131 209 127 219 c 0,44,45
 108 265 108 265 66 356 c 0,46,47
 63 362 63 362 63 366 c 0,48,49
 63 377 63 377 84 397 c 0,50,51
 204 512 204 512 324 559 c 0,52,53
 331 561 331 561 340 571 c 1,54,55
 268 615 268 615 197 659 c 0,56,57
 59 746 59 746 59 778 c 0,58,59
 59 781 59 781 66 793 c 0,60,61
 108 874 108 874 123 922 c 0,62,63
 127 935 127 935 134 935 c 1,64,65
 219 870 219 870 324 791 c 1,66,67
 414 731 414 731 524 674 c 0,68,69
 543 664 543 664 543 643 c 2,70,-1
 543 498 l 2,36,37
EndSplineSet
EndChar
StartChar: questiondown
Encoding: 191 191 129
Width: 815
GlyphClass: 1
Flags: W
LayerCount: 2
Fore
SplineSet
588 1268 m 0,0,1
 588 1211 588 1211 551.5 1170.5 c 128,-1,2
 515 1130 515 1130 459 1130 c 256,3,4
 403 1130 403 1130 366.5 1171 c 128,-1,5
 330 1212 330 1212 330 1268 c 0,6,7
 330 1323 330 1323 367 1365 c 128,-1,8
 404 1407 404 1407 459 1407 c 256,9,10
 514 1407 514 1407 551 1365.5 c 128,-1,11
 588 1324 588 1324 588 1268 c 0,0,1
790 163 m 0,12,13
 790 135 790 135 788 127 c 0,14,15
 779 76 779 76 628 26 c 0,16,17
 497 -16 497 -16 428 -16 c 0,18,19
 259 -16 259 -16 152 88 c 128,-1,20
 45 192 45 192 45 360 c 0,21,22
 45 466 45 466 103 571 c 0,23,24
 158 670 158 670 246 737 c 0,25,26
 389 847 389 847 397 956 c 0,27,28
 398 979 398 979 399 1002 c 0,29,30
 404 1026 404 1026 428 1026 c 0,31,32
 446 1026 446 1026 481.5 1031 c 128,-1,33
 517 1036 517 1036 534 1036 c 0,34,35
 559 1036 559 1036 559 985 c 0,36,37
 559 864 559 864 494 763 c 1,38,39
 433 685 433 685 373 607 c 0,40,41
 307 516 307 516 307 422 c 0,42,43
 307 330 307 330 361.5 272.5 c 128,-1,44
 416 215 416 215 508 215 c 0,45,46
 598 215 598 215 683.5 268 c 128,-1,47
 769 321 769 321 759 321 c 1,48,49
 790 321 790 321 790 163 c 0,12,13
EndSplineSet
EndChar
StartChar: Aring
Encoding: 197 197 135
Width: 1350
GlyphClass: 1
Flags: W
LayerCount: 2
Fore
SplineSet
1341 12 m 0,0,1
 1341 0 1341 0 1317 0 c 0,2,3
 1298 0 1298 0 1261.5 3 c 128,-1,4
 1225 6 1225 6 1206 6 c 256,5,6
 1187 6 1187 6 1149 3 c 128,-1,7
 1111 0 1111 0 1092 0 c 0,8,9
 1063 0 1063 0 1020.5 151.5 c 128,-1,10
 978 303 978 303 932 305 c 0,11,12
 896 307 896 307 727 307 c 2,13,-1
 589 307 l 2,14,15
 416 307 416 307 393 305 c 0,16,17
 357 302 357 302 316.5 151 c 128,-1,18
 276 0 276 0 254 0 c 2,19,-1
 29 0 l 2,20,21
 9 0 9 0 9 14 c 0,22,23
 9 24 9 24 23 59 c 2,24,-1
 268 729 l 1,25,26
 340 894 340 894 457 1208 c 1,27,28
 393 1287 393 1287 393 1372 c 0,29,30
 393 1483 393 1483 471.5 1560.5 c 128,-1,31
 550 1638 550 1638 662 1638 c 0,32,33
 773 1638 773 1638 851.5 1560.5 c 128,-1,34
 930 1483 930 1483 930 1372 c 0,35,36
 930 1296 930 1296 870 1219 c 1,37,38
 936 1056 936 1056 1129 563 c 0,39,40
 1341 22 1341 22 1341 12 c 0,0,1
770 1372 m 0,41,42
 770 1420 770 1420 739 1454.5 c 128,-1,43
 708 1489 708 1489 662 1489 c 0,44,45
 615 1489 615 1489 584 1454.5 c 128,-1,46
 553 1420 553 1420 553 1372 c 0,47,48
 553 1329 553 1329 585 1296.5 c 128,-1,49
 617 1264 617 1264 659 1264 c 0,50,51
 705 1264 705 1264 737.5 1295 c 128,-1,52
 770 1326 770 1326 770 1372 c 0,41,42
875 564 m 0,53,54
 875 593 875 593 785 824 c 0,55,56
 698 1048 698 1048 662 1118 c 1,57,58
 455 590 455 590 455 565 c 0,59,60
 455 531 455 531 531 525 c 0,61,62
 535 524 535 524 629 524 c 2,63,-1
 732 524 l 2,64,65
 875 524 875 524 875 564 c 0,53,54
EndSplineSet
EndChar
StartChar: AE
Encoding: 198 198 136
Width: 1694
GlyphClass: 1
Flags: W
LayerCount: 2
Fore
SplineSet
1639 211 m 0,0,1
 1639 180 1639 180 1622.5 113.5 c 128,-1,2
 1606 47 1606 47 1606 14 c 0,3,4
 1606 -3 1606 -3 1581 -3 c 0,5,6
 1510 -3 1510 -3 1368 2.5 c 128,-1,7
 1226 8 1226 8 1155 8 c 0,8,9
 1101 8 1101 8 994 4 c 128,-1,10
 887 0 887 0 834 0 c 0,11,12
 803 0 803 0 803 29 c 0,13,14
 803 83 803 83 805 172 c 0,15,16
 808 282 808 282 809 315 c 1,17,18
 757 322 757 322 688 322 c 0,19,20
 513 322 513 322 440 313 c 0,21,22
 414 310 414 310 403 289 c 0,23,24
 371 209 371 209 338 129 c 0,25,26
 284 0 284 0 270 0 c 2,27,-1
 90 0 l 2,28,29
 72 0 72 0 67 13 c 0,30,31
 63 22 63 22 65 41 c 0,32,33
 68 70 68 70 68 70 c 2,34,35
 68 79 68 79 67 98 c 128,-1,36
 66 117 66 117 66 127 c 0,37,38
 66 128 66 128 96 195 c 0,39,40
 182 368 182 368 342 719 c 1,41,42
 501 1101 501 1101 625 1350 c 0,43,44
 630 1362 630 1362 636 1374 c 128,-1,45
 642 1386 642 1386 657 1389 c 0,46,47
 740 1405 740 1405 945 1405 c 0,48,49
 1015 1405 1015 1405 1155.5 1410 c 128,-1,50
 1296 1415 1296 1415 1366 1415 c 0,51,52
 1397 1415 1397 1415 1459 1419 c 128,-1,53
 1521 1423 1521 1423 1552 1423 c 0,54,55
 1589 1423 1589 1423 1595 1395 c 0,56,57
 1618 1288 1618 1288 1618 1225 c 0,58,59
 1618 1211 1618 1211 1565 1211 c 0,60,61
 1372 1211 1372 1211 1135 1200 c 0,62,63
 1112 1201 1112 1201 1073 1195 c 1,64,65
 1034 1182 1034 1182 1034 1026 c 2,66,-1
 1034 983 l 2,67,68
 1034 880 1034 880 1037 869 c 0,69,70
 1051 815 1051 815 1118 815 c 0,71,72
 1261 815 1261 815 1563 834 c 1,73,-1
 1572 834 l 2,74,75
 1591 835 1591 835 1591 817 c 0,76,77
 1591 789 1591 789 1583 726 c 128,-1,78
 1575 663 1575 663 1575 631 c 0,79,80
 1575 615 1575 615 1555 615 c 0,81,82
 1548 615 1548 615 1516 621 c 0,83,84
 1444 633 1444 633 1194 633 c 0,85,86
 1078 633 1078 633 1056 614 c 128,-1,87
 1034 595 1034 595 1034 488 c 2,88,-1
 1034 426 l 2,89,90
 1034 320 1034 320 1035 309 c 0,91,92
 1042 224 1042 224 1077 208 c 0,93,94
 1097 199 1097 199 1161 199 c 0,95,96
 1370 199 1370 199 1604 225 c 0,97,98
 1614 227 1614 227 1620 227 c 0,99,100
 1639 227 1639 227 1639 211 c 0,0,1
810 583 m 0,101,102
 810 649 810 649 807.5 782 c 128,-1,103
 805 915 805 915 805 982 c 0,104,105
 805 1081 805 1081 803 1108 c 0,106,107
 799 1154 799 1154 790 1154 c 0,108,109
 780 1154 780 1154 756 1104 c 0,110,111
 501 571 501 571 501 519 c 0,112,113
 501 498 501 498 537 498 c 0,114,115
 718 498 718 498 809 516 c 1,116,117
 810 541 810 541 810 583 c 0,101,102
EndSplineSet
EndChar
StartChar: multiply
Encoding: 215 215 153
Width: 827
GlyphClass: 1
Flags: W
LayerCount: 2
Fore
SplineSet
741 815 m 0,0,1
 741 798 741 798 724 782 c 2,2,-1
 535 592 l 1,3,-1
 723 404 l 2,4,5
 740 386 740 386 740 369 c 0,6,7
 740 342 740 342 695.5 297 c 128,-1,8
 651 252 651 252 624 252 c 0,9,10
 608 252 608 252 591 269 c 2,11,-1
 401 459 l 1,12,-1
 213 270 l 2,13,14
 197 254 197 254 180 254 c 0,15,16
 152 254 152 254 107 297.5 c 128,-1,17
 62 341 62 341 62 369 c 0,18,19
 62 385 62 385 78 402 c 2,20,-1
 268 592 l 1,21,-1
 80 780 l 2,22,23
 64 796 64 796 64 813 c 0,24,25
 64 842 64 842 107.5 886.5 c 128,-1,26
 151 931 151 931 178 931 c 0,27,28
 195 931 195 931 212 915 c 2,29,-1
 401 725 l 1,30,-1
 590 913 l 2,31,32
 607 931 607 931 624 931 c 0,33,34
 651 931 651 931 696 886.5 c 128,-1,35
 741 842 741 842 741 815 c 0,0,1
EndSplineSet
EndChar
StartChar: Thorn
Encoding: 222 222 160
Width: 1278
GlyphClass: 1
Flags: W
LayerCount: 2
Fore
SplineSet
1237 762 m 0,0,1
 1237 528 1237 528 1108 395 c 128,-1,2
 979 262 979 262 747 262 c 0,3,4
 690 262 690 262 574.5 266 c 128,-1,5
 459 270 459 270 401 270 c 0,6,7
 369 270 369 270 369 229 c 0,8,9
 369 193 369 193 375.5 121.5 c 128,-1,10
 382 50 382 50 382 14 c 0,11,12
 382 -3 382 -3 363 -3 c 0,13,14
 342 -3 342 -3 299.5 1.5 c 128,-1,15
 257 6 257 6 236 6 c 0,16,17
 218 6 218 6 183 3 c 128,-1,18
 148 0 148 0 131 0 c 0,19,20
 106 0 106 0 106 31 c 0,21,22
 106 140 106 140 115.5 360 c 128,-1,23
 125 580 125 580 125 690 c 0,24,25
 125 951 125 951 102 1360 c 1,26,-1
 102 1372 l 2,27,28
 100 1403 100 1403 135 1403 c 0,29,30
 153 1403 153 1403 189.5 1400 c 128,-1,31
 226 1397 226 1397 244 1397 c 256,32,33
 262 1397 262 1397 298 1400 c 128,-1,34
 334 1403 334 1403 352 1403 c 0,35,36
 378 1403 378 1403 378 1383 c 0,37,38
 378 1361 378 1361 369 1249 c 1,39,40
 403 1247 403 1247 437 1247 c 0,41,42
 487 1247 487 1247 586.5 1253.5 c 128,-1,43
 686 1260 686 1260 735 1260 c 0,44,45
 956 1260 956 1260 1096.5 1121.5 c 128,-1,46
 1237 983 1237 983 1237 762 c 0,0,1
985 748 m 0,47,48
 985 894 985 894 902 977.5 c 128,-1,49
 819 1061 819 1061 672 1061 c 0,50,51
 626 1061 626 1061 509 1053 c 0,52,53
 373 1044 373 1044 369 1036 c 0,54,55
 362 1025 362 1025 362 713 c 0,56,57
 362 674 362 674 364.5 597 c 128,-1,58
 367 520 367 520 367 481 c 0,59,60
 367 472 367 472 389 468 c 0,61,62
 444 457 444 457 694 457 c 0,63,64
 985 457 985 457 985 748 c 0,47,48
EndSplineSet
EndChar
StartChar: germandbls
Encoding: 223 223 161
Width: 1024
GlyphClass: 1
Flags: W
LayerCount: 2
Fore
SplineSet
971 487 m 0,0,1
 971 164 971 164 573 -6 c 0,2,3
 556 -14 556 -14 547 -14 c 0,4,5
 534 -14 534 -14 493 53.5 c 128,-1,6
 452 121 452 121 452 137 c 0,7,8
 452 145 452 145 481 158 c 0,9,10
 743 282 743 282 743 469 c 0,11,12
 743 568 743 568 683.5 629.5 c 128,-1,13
 624 691 624 691 526 691 c 0,14,15
 506 691 506 691 471.5 680.5 c 128,-1,16
 437 670 437 670 424 670 c 0,17,18
 403 670 403 670 403 827 c 0,19,20
 403 837 403 837 424 846 c 0,21,22
 612 926 612 926 612 1075 c 0,23,24
 612 1227 612 1227 496 1227 c 0,25,26
 418 1227 418 1227 371 1161 c 0,27,28
 330 1103 330 1103 330 1022 c 0,29,30
 330 855 330 855 342 520.5 c 128,-1,31
 354 186 354 186 354 18 c 0,32,33
 354 -5 354 -5 336 -5 c 0,34,35
 319 -5 319 -5 283.5 -0.5 c 128,-1,36
 248 4 248 4 229 4 c 0,37,38
 214 4 214 4 184 2 c 128,-1,39
 154 0 154 0 139 0 c 0,40,41
 113 0 113 0 113 31 c 0,42,43
 113 120 113 120 118 298 c 128,-1,44
 123 476 123 476 123 565 c 0,45,46
 123 636 123 636 118 778 c 128,-1,47
 113 920 113 920 113 991 c 0,48,49
 113 1160 113 1160 216 1281 c 0,50,51
 325 1407 325 1407 492 1407 c 0,52,53
 628 1407 628 1407 716 1331 c 0,54,55
 809 1251 809 1251 809 1116 c 0,56,57
 809 1052 809 1052 776 986 c 0,58,59
 754 942 754 942 716 895 c 0,60,61
 683 856 683 856 683 855 c 0,62,63
 683 843 683 843 721 829 c 0,64,65
 971 741 971 741 971 487 c 0,0,1
EndSplineSet
EndChar
StartChar: ae
Encoding: 230 230 168
Width: 1757
GlyphClass: 1
Flags: W
LayerCount: 2
Fore
SplineSet
1722 534 m 0,0,1
 1722 503 1722 503 1706 475 c 0,2,3
 1687 443 1687 443 1659 438 c 0,4,5
 1590 431 1590 431 1454 417 c 2,6,-1
 1049 377 l 1,7,8
 1062 284 1062 284 1158 224 c 0,9,10
 1244 170 1244 170 1344 170 c 0,11,12
 1424 170 1424 170 1497 204 c 0,13,14
 1546 226 1546 226 1593 266 c 0,15,16
 1632 300 1632 300 1633 300 c 0,17,18
 1637 300 1637 300 1640 297 c 0,19,20
 1656 262 1656 262 1677 215 c 1,21,22
 1714 152 1714 152 1714 154 c 1,23,24
 1714 148 1714 148 1698 131 c 0,25,26
 1564 -14 1564 -14 1319 -14 c 0,27,28
 1111 -14 1111 -14 1040 102 c 1,29,30
 1046 72 1046 72 1046 33 c 0,31,32
 1046 15 1046 15 1044 2 c 1,33,34
 990 -7 990 -7 923 -7 c 0,35,36
 882 -7 882 -7 848 0 c 1,37,38
 844 49 844 49 844 131 c 0,39,40
 844 155 844 155 842 166 c 1,41,42
 762 68 762 68 693 27 c 0,43,44
 609 -23 609 -23 494 -23 c 0,45,46
 291 -23 291 -23 164 128 c 0,47,48
 43 271 43 271 43 477 c 0,49,50
 43 698 43 698 169 842 c 0,51,52
 302 993 302 993 518 993 c 0,53,54
 685 993 685 993 856 815 c 1,55,56
 864 862 864 862 891 952 c 1,57,-1
 895 953 l 2,58,59
 909 953 909 953 1063 918 c 1,60,61
 1159 991 1159 991 1280 991 c 0,62,63
 1472 991 1472 991 1597 860 c 128,-1,64
 1722 729 1722 729 1722 534 c 0,0,1
1487 606 m 0,65,66
 1487 683 1487 683 1418 746 c 128,-1,67
 1349 809 1349 809 1272 809 c 0,68,69
 1178 809 1178 809 1111 742.5 c 128,-1,70
 1044 676 1044 676 1044 582 c 0,71,72
 1044 548 1044 548 1071 548 c 0,73,74
 1133 548 1133 548 1430 575 c 0,75,76
 1487 581 1487 581 1487 606 c 0,65,66
823 487 m 256,77,78
 823 612 823 612 751 701 c 0,79,80
 673 795 673 795 551 795 c 0,81,82
 421 795 421 795 345 701 c 0,83,84
 274 614 274 614 274 481 c 0,85,86
 274 356 274 356 348 270 c 0,87,88
 426 178 426 178 549 178 c 0,89,90
 671 178 671 178 750 273 c 0,91,92
 823 362 823 362 823 487 c 256,77,78
EndSplineSet
EndChar
StartChar: divide
Encoding: 247 247 185
Width: 838
GlyphClass: 1
Flags: W
LayerCount: 2
Fore
SplineSet
523 944 m 256,0,1
 523 900 523 900 492.5 868.5 c 128,-1,2
 462 837 462 837 418 837 c 0,3,4
 375 837 375 837 344.5 868.5 c 128,-1,5
 314 900 314 900 314 944 c 256,6,7
 314 988 314 988 344.5 1019 c 128,-1,8
 375 1050 375 1050 418 1050 c 0,9,10
 462 1050 462 1050 492.5 1019 c 128,-1,11
 523 988 523 988 523 944 c 256,0,1
768 625 m 1,12,-1
 70 625 l 1,13,-1
 70 751 l 1,14,-1
 768 751 l 1,15,-1
 768 625 l 1,12,-1
523 430 m 256,16,17
 523 386 523 386 492.5 355 c 128,-1,18
 462 324 462 324 418 324 c 0,19,20
 375 324 375 324 344.5 355 c 128,-1,21
 314 386 314 386 314 430 c 256,22,23
 314 474 314 474 344.5 505.5 c 128,-1,24
 375 537 375 537 418 537 c 0,25,26
 462 537 462 537 492.5 505.5 c 128,-1,27
 523 474 523 474 523 430 c 256,16,17
EndSplineSet
EndChar
StartChar: thorn
Encoding: 254 254 192
Width: 1176
GlyphClass: 1
Flags: W
LayerCount: 2
Fore
SplineSet
1122 481 m 256,0,1
 1122 279 1122 279 995 130 c 0,2,3
 860 -27 860 -27 662 -27 c 0,4,5
 544 -27 544 -27 442 54 c 1,6,7
 401 94 401 94 359 135 c 1,8,9
 350 125 350 125 350 -281 c 0,10,11
 350 -313 350 -313 328 -313 c 0,12,13
 173 -313 173 -313 145 -309 c 0,14,15
 123 -306 123 -306 123 -283 c 0,16,17
 123 -155 123 -155 125 101 c 128,-1,18
 127 357 127 357 127 485 c 0,19,20
 127 635 127 635 115.5 935 c 128,-1,21
 104 1235 104 1235 104 1384 c 0,22,23
 104 1410 104 1410 131 1413 c 0,24,25
 167 1414 167 1414 238 1417 c 0,26,27
 252 1418 252 1418 295 1424 c 0,28,29
 331 1430 331 1430 352 1430 c 0,30,31
 369 1430 369 1430 369 1407 c 0,32,33
 369 1373 369 1373 363.5 1303 c 128,-1,34
 358 1233 358 1233 358 1198 c 0,35,36
 358 1143 358 1143 355 1033.5 c 128,-1,37
 352 924 352 924 352 869 c 0,38,39
 352 830 352 830 358 830 c 0,40,41
 365 834 365 834 375 844 c 0,42,43
 514 987 514 987 657 987 c 0,44,45
 856 987 856 987 992 832 c 0,46,47
 1122 683 1122 683 1122 481 c 256,0,1
889 485 m 0,48,49
 889 605 889 605 814 696 c 0,50,51
 734 793 734 793 616 793 c 0,52,53
 500 793 500 793 426 693 c 0,54,55
 358 603 358 603 358 483 c 0,56,57
 358 361 358 361 429 271 c 0,58,59
 505 174 505 174 625 174 c 0,60,61
 738 174 738 174 817 275 c 0,62,63
 889 369 889 369 889 485 c 0,48,49
EndSplineSet
EndChar
StartChar: dotlessi
Encoding: 305 305 194
Width: 451
GlyphClass: 1
Flags: W
LayerCount: 2
Fore
SplineSet
355 925 m 0,0,1
 355 848 355 848 345.5 692.5 c 128,-1,2
 336 537 336 537 336 459 c 0,3,4
 336 386 336 386 339 240.5 c 128,-1,5
 342 95 342 95 342 23 c 0,6,7
 342 2 342 2 324 2 c 2,8,-1
 129 2 l 2,9,10
 108 2 108 2 108 43 c 0,11,12
 108 112 108 112 111.5 250.5 c 128,-1,13
 115 389 115 389 115 459 c 0,14,15
 115 537 115 537 103.5 693 c 128,-1,16
 92 849 92 849 92 927 c 0,17,18
 92 944 92 944 113 944 c 0,19,20
 131 944 131 944 168.5 939 c 128,-1,21
 206 934 206 934 225 934 c 256,22,23
 244 934 244 934 281.5 939 c 128,-1,24
 319 944 319 944 338 944 c 0,25,26
 355 944 355 944 355 925 c 0,0,1
EndSplineSet
EndChar
StartChar: OE
Encoding: 338 338 197
Width: 1921
GlyphClass: 1
Flags: W
LayerCount: 2
Fore
SplineSet
1857 201 m 0,0,1
 1857 176 1857 176 1841 110 c 128,-1,2
 1825 44 1825 44 1825 10 c 0,3,4
 1825 -8 1825 -8 1805 -7 c 2,5,-1
 1786 -6 l 2,6,7
 1763 -5 1763 -5 1290 2 c 0,8,9
 1251 3 1251 3 1212 3 c 1,10,11
 1167 11 1167 11 1167 51 c 0,12,13
 1167 80 1167 80 1172 130 c 0,14,15
 1177 186 1177 186 1178 209 c 1,16,17
 1111 103 1111 103 989.5 39 c 128,-1,18
 868 -25 868 -25 741 -25 c 0,19,20
 452 -25 452 -25 252 195 c 0,21,22
 59 408 59 408 59 700 c 0,23,24
 59 996 59 996 251 1207 c 0,25,26
 449 1425 449 1425 741 1425 c 0,27,28
 871 1425 871 1425 993 1362 c 0,29,30
 1112 1299 1112 1299 1190 1193 c 0,31,32
 1196 1184 1196 1184 1196 1184 c 2,33,34
 1199 1184 1199 1184 1199 1224 c 2,35,-1
 1199 1305 l 2,36,37
 1198 1399 1198 1399 1206 1403 c 0,38,39
 1208 1404 1208 1404 1225 1403 c 0,40,41
 1262 1403 1262 1403 1335.5 1400 c 128,-1,42
 1409 1397 1409 1397 1446 1397 c 0,43,44
 1504 1397 1504 1397 1620 1400 c 128,-1,45
 1736 1403 1736 1403 1794 1403 c 0,46,47
 1823 1403 1823 1403 1829 1374 c 0,48,49
 1851 1263 1851 1263 1851 1204 c 0,50,51
 1851 1190 1851 1190 1829 1190 c 0,52,53
 1770 1190 1770 1190 1652 1196 c 128,-1,54
 1534 1202 1534 1202 1475 1202 c 0,55,56
 1412 1202 1412 1202 1399 1123 c 0,57,58
 1397 1110 1397 1110 1397 993 c 0,59,60
 1397 981 1397 981 1395.5 955 c 128,-1,61
 1394 929 1394 929 1394 917 c 0,62,63
 1394 815 1394 815 1475 815 c 0,64,65
 1531 815 1531 815 1644.5 820 c 128,-1,66
 1758 825 1758 825 1815 825 c 0,67,68
 1841 825 1841 825 1841 801 c 0,69,70
 1841 785 1841 785 1839 752.5 c 128,-1,71
 1837 720 1837 720 1837 704 c 0,72,73
 1837 693 1837 693 1839 672 c 128,-1,74
 1841 651 1841 651 1841 641 c 0,75,76
 1841 621 1841 621 1829 621 c 0,77,78
 1787 621 1787 621 1703.5 625 c 128,-1,79
 1620 629 1620 629 1578 629 c 0,80,81
 1436 629 1436 629 1413 597 c 0,82,83
 1399 575 1399 575 1399 414 c 0,84,85
 1399 274 1399 274 1413 247 c 0,86,87
 1437 199 1437 199 1552 199 c 0,88,89
 1601 199 1601 199 1698 207.5 c 128,-1,90
 1795 216 1795 216 1841 216 c 0,91,92
 1857 216 1857 216 1857 201 c 0,0,1
1186 700 m 0,93,94
 1186 898 1186 898 1060 1046 c 0,95,96
 927 1202 927 1202 733 1202 c 0,97,98
 547 1202 547 1202 416 1042 c 0,99,100
 293 891 293 891 293 700 c 0,101,102
 293 511 293 511 417 361 c 0,103,104
 548 201 548 201 733 201 c 0,105,106
 930 201 930 201 1061 354 c 0,107,108
 1186 501 1186 501 1186 700 c 0,93,94
EndSplineSet
EndChar
StartChar: oe
Encoding: 339 339 198
Width: 1763
GlyphClass: 1
Flags: W
LayerCount: 2
Fore
SplineSet
1729 527 m 0,0,1
 1729 448 1729 448 1665 434 c 0,2,3
 1661 433 1661 433 1475 417 c 2,4,-1
 1053 379 l 1,5,6
 1065 292 1065 292 1148 230 c 0,7,8
 1226 172 1226 172 1317 172 c 0,9,10
 1496 172 1496 172 1606 268 c 0,11,12
 1636 295 1636 295 1636 295 c 1,13,14
 1645 295 1645 295 1647 293 c 0,15,16
 1662 258 1662 258 1683 211 c 1,17,18
 1720 147 1720 147 1720 150 c 1,19,20
 1720 144 1720 144 1704 127 c 0,21,22
 1564 -23 1564 -23 1327 -23 c 0,23,24
 1203 -23 1203 -23 1086 34 c 0,25,26
 959 97 959 97 905 199 c 1,27,28
 859 102 859 102 744 40 c 0,29,30
 637 -18 637 -18 524 -18 c 0,31,32
 311 -18 311 -18 173 130 c 0,33,34
 39 275 39 275 39 489 c 256,35,36
 39 703 39 703 174 848 c 0,37,38
 313 997 313 997 524 997 c 0,39,40
 757 997 757 997 889 807 c 1,41,-1
 907 780 l 1,42,43
 961 879 961 879 1069 940 c 0,44,45
 1174 1000 1174 1000 1287 1000 c 0,46,47
 1485 1000 1485 1000 1609 861 c 0,48,49
 1729 727 1729 727 1729 527 c 0,0,1
1493 606 m 0,50,51
 1493 683 1493 683 1424.5 744 c 128,-1,52
 1356 805 1356 805 1278 805 c 0,53,54
 1182 805 1182 805 1111 738 c 128,-1,55
 1040 671 1040 671 1040 575 c 0,56,57
 1040 549 1040 549 1082 549 c 0,58,59
 1141 549 1141 549 1436 575 c 0,60,61
 1493 581 1493 581 1493 606 c 0,50,51
801 489 m 0,62,63
 801 617 801 617 727 702 c 0,64,65
 649 793 649 793 524 793 c 256,66,67
 399 793 399 793 322 703 c 0,68,69
 250 618 250 618 250 489 c 0,70,71
 250 362 250 362 323 277 c 0,72,73
 399 186 399 186 524 186 c 256,74,75
 649 186 649 186 727 277 c 0,76,77
 801 362 801 362 801 489 c 0,62,63
EndSplineSet
EndChar
StartChar: florin
Encoding: 402 402 204
Width: 782
GlyphClass: 1
Flags: W
LayerCount: 2
Fore
SplineSet
725 1151 m 1,0,1
 725 1158 725 1158 692 1016 c 0,2,3
 686 988 686 988 676 988 c 0,4,5
 671 988 671 988 606 1011 c 128,-1,6
 541 1034 541 1034 504 1034 c 0,7,8
 445 1034 445 1034 428 1000 c 0,9,10
 418 978 418 978 418 908 c 0,11,12
 418 868 418 868 422 807 c 1,13,14
 587 807 587 807 666 788 c 0,15,16
 685 784 685 784 685 773 c 0,17,18
 685 754 685 754 674 680 c 0,19,20
 663 602 663 602 657 596 c 1,21,22
 616 589 616 589 545 591 c 0,23,24
 428 596 428 596 432 596 c 0,25,26
 477 290 477 290 477 108 c 0,27,28
 477 -130 477 -130 283 -209 c 0,29,30
 274 -212 274 -212 269 -212 c 0,31,32
 262 -212 262 -212 254 -197 c 0,33,34
 206 -99 206 -99 164 -39 c 0,35,36
 159 -33 159 -33 153 -23 c 1,37,38
 182 4 182 4 210 31 c 0,39,40
 252 75 252 75 252 152 c 0,41,42
 252 416 252 416 213 594 c 1,43,44
 169 588 169 588 113 588 c 0,45,46
 96 588 96 588 92 600 c 0,47,48
 74 781 74 781 74 791 c 0,49,50
 74 805 74 805 90 805 c 0,51,52
 108 805 108 805 144.5 804 c 128,-1,53
 181 803 181 803 199 803 c 1,54,55
 188 992 188 992 188 963 c 1,56,57
 188 1085 188 1085 261 1166 c 128,-1,58
 334 1247 334 1247 455 1247 c 0,59,60
 511 1247 511 1247 607 1222 c 0,61,62
 725 1190 725 1190 725 1151 c 1,0,1
EndSplineSet
EndChar
StartChar: circumflex
Encoding: 710 710 205
Width: 715
GlyphClass: 1
Flags: W
LayerCount: 2
Fore
SplineSet
647 1137 m 1,0,1
 644 1132 644 1132 596.5 1108.5 c 128,-1,2
 549 1085 549 1085 540 1085 c 0,3,4
 511 1085 511 1085 353 1249 c 1,5,6
 343 1243 343 1243 269 1158 c 0,7,8
 206 1086 206 1086 178 1086 c 0,9,10
 170 1086 170 1086 120.5 1110.5 c 128,-1,11
 71 1135 71 1135 71 1138 c 0,12,13
 127 1202 127 1202 205 1298 c 1,14,15
 262 1384 262 1384 285 1434 c 0,16,17
 292 1450 292 1450 307 1450 c 2,18,-1
 412 1450 l 2,19,20
 425 1450 425 1450 430 1434 c 0,21,22
 446 1383 446 1383 508 1298 c 1,23,24
 577 1219 577 1219 647 1137 c 1,0,1
EndSplineSet
EndChar
StartChar: caron
Encoding: 711 711 206
Width: 715
GlyphClass: 1
Flags: W
LayerCount: 2
Fore
SplineSet
642 1405 m 0,0,1
 586 1342 586 1342 508 1245 c 1,2,3
 451 1160 451 1160 428 1110 c 0,4,5
 420 1094 420 1094 406 1094 c 2,6,-1
 301 1094 l 2,7,8
 288 1094 288 1094 283 1110 c 0,9,10
 266 1160 266 1160 205 1245 c 1,11,12
 135 1324 135 1324 66 1406 c 1,13,14
 68 1412 68 1412 116 1435.5 c 128,-1,15
 164 1459 164 1459 172 1459 c 0,16,17
 202 1459 202 1459 360 1294 c 1,18,19
 370 1301 370 1301 444 1386 c 0,20,21
 507 1457 507 1457 534 1457 c 0,22,23
 543 1457 543 1457 592 1433 c 128,-1,24
 641 1409 641 1409 642 1405 c 0,0,1
EndSplineSet
EndChar
StartChar: breve
Encoding: 728 728 207
Width: 715
GlyphClass: 1
Flags: W
LayerCount: 2
Fore
SplineSet
655 1386 m 0,0,1
 655 1245 655 1245 575 1156 c 0,2,3
 492 1063 492 1063 352 1063 c 0,4,5
 211 1063 211 1063 127 1155 c 0,6,7
 47 1244 47 1244 47 1386 c 0,8,9
 47 1402 47 1402 76 1402 c 0,10,11
 175 1402 175 1402 179 1384.5 c 128,-1,12
 183 1367 183 1367 192 1331 c 0,13,14
 232 1214 232 1214 352 1214 c 0,15,16
 470 1214 470 1214 511 1329 c 0,17,18
 514 1348 514 1348 524 1384 c 0,19,20
 530 1399 530 1399 563 1399 c 0,21,22
 655 1399 655 1399 655 1386 c 0,0,1
EndSplineSet
EndChar
StartChar: dotaccent
Encoding: 729 729 208
Width: 715
GlyphClass: 1
Flags: W
LayerCount: 2
Fore
SplineSet
472 1154 m 0,0,1
 472 1127 472 1127 433 1127 c 2,2,-1
 247 1127 l 2,3,4
 210 1127 210 1127 210 1183 c 0,5,6
 210 1212 210 1212 209 1271.5 c 128,-1,7
 208 1331 208 1331 208 1360 c 0,8,9
 208 1391 208 1391 225 1397 c 0,10,11
 233 1399 233 1399 248 1399 c 0,12,13
 274 1399 274 1399 327 1398 c 128,-1,14
 380 1397 380 1397 406 1397 c 0,15,16
 446 1397 446 1397 455 1390 c 0,17,18
 468 1381 468 1381 468 1345 c 0,19,20
 468 1330 468 1330 468 1301 c 0,21,22
 467 1272 467 1272 467 1257 c 0,23,24
 467 1240 467 1240 469.5 1205.5 c 128,-1,25
 472 1171 472 1171 472 1154 c 0,0,1
EndSplineSet
EndChar
StartChar: ring
Encoding: 730 730 209
Width: 715
GlyphClass: 1
Flags: W
LayerCount: 2
Fore
SplineSet
592 1227 m 0,0,1
 592 1130 592 1130 521 1061.5 c 128,-1,2
 450 993 450 993 352 993 c 0,3,4
 255 993 255 993 185 1061.5 c 128,-1,5
 115 1130 115 1130 115 1227 c 0,6,7
 115 1326 115 1326 184 1396 c 128,-1,8
 253 1466 253 1466 352 1466 c 0,9,10
 452 1466 452 1466 522 1396 c 128,-1,11
 592 1326 592 1326 592 1227 c 0,0,1
473 1227 m 0,12,13
 473 1280 473 1280 439 1318 c 128,-1,14
 405 1356 405 1356 352 1356 c 0,15,16
 300 1356 300 1356 265.5 1318 c 128,-1,17
 231 1280 231 1280 231 1227 c 0,18,19
 231 1179 231 1179 267 1142.5 c 128,-1,20
 303 1106 303 1106 350 1106 c 0,21,22
 400 1106 400 1106 436.5 1141.5 c 128,-1,23
 473 1177 473 1177 473 1227 c 0,12,13
EndSplineSet
EndChar
StartChar: ogonek
Encoding: 731 731 210
Width: 715
GlyphClass: 1
Flags: W
LayerCount: 2
Fore
SplineSet
587 -239 m 0,0,1
 558 -294 558 -294 492.5 -330 c 128,-1,2
 427 -366 427 -366 363 -366 c 0,3,4
 275 -366 275 -366 218.5 -311.5 c 128,-1,5
 162 -257 162 -257 162 -170 c 0,6,7
 162 -147 162 -147 166 -121 c 1,8,9
 183 -98 183 -98 234 -53 c 0,10,11
 291 -4 291 -4 309 -4 c 2,12,-1
 444 -4 l 1,13,14
 315 -88 315 -88 315 -163 c 0,15,16
 315 -224 315 -224 383 -224 c 0,17,18
 430 -224 430 -224 470.5 -195.5 c 128,-1,19
 511 -167 511 -167 513 -167 c 0,20,21
 522 -167 522 -167 554.5 -199 c 128,-1,22
 587 -231 587 -231 587 -239 c 0,0,1
EndSplineSet
EndChar
StartChar: tilde
Encoding: 732 732 211
Width: 715
GlyphClass: 1
Flags: W
LayerCount: 2
Fore
SplineSet
680 1242 m 0,0,1
 680 1218 680 1218 594 1171 c 128,-1,2
 508 1124 508 1124 467 1124 c 0,3,4
 408 1124 408 1124 348 1159 c 128,-1,5
 288 1194 288 1194 258 1194 c 0,6,7
 224 1194 224 1194 187 1161 c 128,-1,8
 150 1128 150 1128 145 1128 c 0,9,10
 133 1128 133 1128 125 1137 c 0,11,12
 37 1225 37 1225 37 1223 c 1,13,14
 37 1226 37 1226 39 1231 c 0,15,16
 54 1272 54 1272 124 1311 c 0,17,18
 191 1348 191 1348 238 1348 c 0,19,20
 287 1348 287 1348 360.5 1315 c 128,-1,21
 434 1282 434 1282 465 1282 c 0,22,23
 484 1282 484 1282 536 1317 c 128,-1,24
 588 1352 588 1352 596 1352 c 2,25,-1
 606 1348 l 1,26,27
 680 1273 680 1273 680 1242 c 0,0,1
EndSplineSet
EndChar
StartChar: hungarumlaut
Encoding: 733 733 212
Width: 715
GlyphClass: 1
Flags: W
LayerCount: 2
Fore
SplineSet
760 1388 m 0,0,1
 760 1380 760 1380 743 1366 c 0,2,3
 657 1292 657 1292 512 1223 c 0,4,5
 376 1159 376 1159 256 1130 c 0,6,7
 245 1128 245 1128 239 1128 c 0,8,9
 215 1128 215 1128 207 1178 c 1,10,11
 93 1103 93 1103 37 1103 c 0,12,13
 20 1103 20 1103 20 1118 c 0,14,15
 20 1125 20 1125 23.5 1140.5 c 128,-1,16
 27 1156 27 1156 27 1163 c 0,17,18
 27 1172 27 1172 24.5 1188 c 128,-1,19
 22 1204 22 1204 22 1212 c 0,20,21
 22 1224 22 1224 39 1231 c 0,22,23
 160 1281 160 1281 412 1454 c 0,24,25
 419 1460 419 1460 434 1467 c 1,26,27
 445 1462 445 1462 478 1427.5 c 128,-1,28
 511 1393 511 1393 522 1393 c 0,29,30
 534 1393 534 1393 579.5 1435 c 128,-1,31
 625 1477 625 1477 634 1477 c 0,32,33
 641 1477 641 1477 700.5 1435 c 128,-1,34
 760 1393 760 1393 760 1388 c 0,0,1
EndSplineSet
EndChar
StartChar: Delta
Encoding: 916 916 213
AltUni2: 002206.ffffffff.0 002206.ffffffff.0
Width: 819
GlyphClass: 1
Flags: W
LayerCount: 2
Fore
SplineSet
775 0 m 1,0,-1
 45 0 l 1,1,-1
 45 122 l 1,2,-1
 342 1569 l 1,3,-1
 479 1569 l 1,4,5
 489 1511 489 1511 635 806 c 0,6,7
 776 120 776 120 775 118 c 2,8,-1
 775 0 l 1,0,-1
637 132 m 1,9,-1
 408 1319 l 1,10,-1
 180 132 l 1,11,-1
 637 132 l 1,9,-1
EndSplineSet
EndChar
StartChar: Omega
Encoding: 937 937 214
AltUni2: 002126.ffffffff.0 002126.ffffffff.0
Width: 1056
GlyphClass: 1
Flags: W
LayerCount: 2
Fore
SplineSet
1000 -1 m 1,0,-1
 612 -1 l 1,1,-1
 612 489 l 1,2,-1
 796 489 l 1,3,-1
 796 1442 l 1,4,-1
 265 1441 l 1,5,-1
 264 489 l 1,6,-1
 448 489 l 1,7,-1
 448 -1 l 1,8,-1
 59 -1 l 1,9,-1
 59 129 l 1,10,-1
 331 129 l 1,11,-1
 331 366 l 1,12,-1
 236 366 l 2,13,14
 187 366 187 366 156 397 c 128,-1,15
 125 428 125 428 125 477 c 2,16,-1
 125 1454 l 2,17,18
 125 1503 125 1503 156 1534 c 128,-1,19
 187 1565 187 1565 236 1565 c 2,20,-1
 821 1565 l 2,21,22
 870 1565 870 1565 902.5 1534 c 128,-1,23
 935 1503 935 1503 935 1454 c 2,24,-1
 935 477 l 2,25,26
 935 428 935 428 904 397 c 128,-1,27
 873 366 873 366 824 366 c 2,28,-1
 729 366 l 1,29,-1
 729 129 l 1,30,-1
 1000 129 l 1,31,-1
 1000 -1 l 1,0,-1
EndSplineSet
EndChar
StartChar: pi
Encoding: 960 960 215
Width: 804
GlyphClass: 1
Flags: W
LayerCount: 2
Fore
SplineSet
764 770 m 1,0,-1
 616 770 l 1,1,-1
 616 0 l 1,2,-1
 481 0 l 1,3,-1
 481 770 l 1,4,-1
 318 770 l 1,5,-1
 318 0 l 1,6,-1
 183 0 l 1,7,-1
 183 770 l 1,8,-1
 39 770 l 1,9,-1
 39 893 l 1,10,-1
 764 893 l 1,11,-1
 764 770 l 1,0,-1
EndSplineSet
EndChar
StartChar: endash
Encoding: 8211 8211 216
Width: 1157
GlyphClass: 1
Flags: W
LayerCount: 2
Fore
SplineSet
1111 689 m 0,0,1
 1111 685 1111 685 1102 590.5 c 128,-1,2
 1093 496 1093 496 1092 492 c 0,3,4
 1089 479 1089 479 1074 479 c 0,5,6
 994 479 994 479 833 481 c 128,-1,7
 672 483 672 483 592 483 c 0,8,9
 505 483 505 483 332.5 477 c 128,-1,10
 160 471 160 471 74 471 c 0,11,12
 47 471 47 471 47 498 c 256,13,14
 47 525 47 525 66 592 c 1,15,16
 67 626 67 626 78 686 c 0,17,18
 84 702 84 702 109 702 c 0,19,20
 181 702 181 702 325 699 c 128,-1,21
 469 696 469 696 541 696 c 0,22,23
 633 696 633 696 815.5 701.5 c 128,-1,24
 998 707 998 707 1090 707 c 0,25,26
 1111 707 1111 707 1111 689 c 0,0,1
EndSplineSet
EndChar
StartChar: emdash
Encoding: 8212 8212 217
Width: 1628
GlyphClass: 1
Flags: W
LayerCount: 2
Fore
SplineSet
1576 687 m 0,0,1
 1576 684 1576 684 1565 591 c 128,-1,2
 1554 498 1554 498 1552 492 c 0,3,4
 1550 479 1550 479 1532 479 c 0,5,6
 1417 479 1417 479 1188 481 c 128,-1,7
 959 483 959 483 844 483 c 0,8,9
 717 483 717 483 464.5 477 c 128,-1,10
 212 471 212 471 86 471 c 0,11,12
 57 471 57 471 57 498 c 0,13,14
 57 500 57 500 90 686 c 1,15,16
 97 702 97 702 123 702 c 0,17,18
 234 702 234 702 456.5 699 c 128,-1,19
 679 696 679 696 791 696 c 0,20,21
 917 696 917 696 1170.5 701.5 c 128,-1,22
 1424 707 1424 707 1550 707 c 0,23,24
 1576 707 1576 707 1576 687 c 0,0,1
EndSplineSet
EndChar
StartChar: quoteleft
Encoding: 8216 8216 218
Width: 424
GlyphClass: 1
Flags: W
LayerCount: 2
Fore
SplineSet
374 933 m 1,0,1
 374 924 374 924 302.5 858.5 c 128,-1,2
 231 793 231 793 225 793 c 0,3,4
 216 793 216 793 203 805 c 0,5,6
 80 911 80 911 80 1059 c 0,7,8
 80 1153 80 1153 128 1266.5 c 128,-1,9
 176 1380 176 1380 244 1444 c 0,10,11
 257 1456 257 1456 267 1456 c 0,12,13
 271 1456 271 1456 310 1420.5 c 128,-1,14
 349 1385 349 1385 349 1380 c 0,15,16
 349 1376 349 1376 344 1370 c 0,17,18
 266 1269 266 1269 266 1149 c 0,19,20
 266 1064 266 1064 320 998.5 c 128,-1,21
 374 933 374 933 374 933 c 1,0,1
EndSplineSet
EndChar
StartChar: quoteright
Encoding: 8217 8217 219
Width: 424
GlyphClass: 1
Flags: W
LayerCount: 2
Fore
SplineSet
344 1184 m 0,0,1
 344 974 344 974 178 799 c 0,2,3
 164 784 164 784 157 784 c 0,4,5
 152 784 152 784 143 793 c 0,6,7
 74 860 74 860 74 860 c 2,8,9
 74 864 74 864 80 872 c 0,10,11
 152 971 152 971 152 1092 c 0,12,13
 152 1157 152 1157 124 1209 c 0,14,15
 107 1242 107 1242 74 1275 c 0,16,17
 47 1302 47 1302 47 1308 c 0,18,19
 47 1311 47 1311 106 1365 c 0,20,21
 169 1421 169 1421 178.5 1435.5 c 128,-1,22
 188 1450 188 1450 196 1450 c 0,23,24
 205 1450 205 1450 221 1436 c 0,25,26
 344 1327 344 1327 344 1184 c 0,0,1
EndSplineSet
EndChar
StartChar: quotesinglbase
Encoding: 8218 8218 220
Width: 424
GlyphClass: 1
Flags: W
LayerCount: 2
Fore
SplineSet
342 71 m 0,0,1
 342 -16 342 -16 292.5 -126 c 128,-1,2
 243 -236 243 -236 178 -297 c 0,3,4
 165 -310 165 -310 155 -310 c 0,5,6
 152 -310 152 -310 113.5 -274 c 128,-1,7
 75 -238 75 -238 75 -234 c 1,8,9
 75 -246 75 -246 121.5 -161.5 c 128,-1,10
 168 -77 168 -77 168 -2 c 0,11,12
 168 76 168 76 108 144 c 128,-1,13
 48 212 48 212 48 211 c 1,14,15
 48 222 48 222 122 289 c 0,16,17
 193 354 193 354 199 354 c 0,18,19
 207 354 207 354 221 342 c 0,20,21
 342 233 342 233 342 71 c 0,0,1
EndSplineSet
EndChar
StartChar: quotedblleft
Encoding: 8220 8220 221
Width: 776
GlyphClass: 1
Flags: W
LayerCount: 2
Fore
SplineSet
716 927 m 1,0,1
 716 915 716 915 647 850.5 c 128,-1,2
 578 786 578 786 568 786 c 0,3,4
 559 786 559 786 545 801 c 0,5,6
 423 924 423 924 423 1052 c 0,7,8
 423 1144 423 1144 467 1247 c 128,-1,9
 511 1350 511 1350 578 1417 c 0,10,11
 593 1433 593 1433 601 1433 c 0,12,13
 606 1433 606 1433 612 1425 c 0,14,15
 685 1344 685 1344 685 1350 c 0,16,17
 685 1360 685 1360 641.5 1282 c 128,-1,18
 598 1204 598 1204 598 1141 c 0,19,20
 598 1060 598 1060 657 993.5 c 128,-1,21
 716 927 716 927 716 927 c 1,0,1
358 952 m 0,22,23
 358 942 358 942 289 877 c 128,-1,24
 220 812 220 812 214 812 c 0,25,26
 187 812 187 812 109 924 c 0,27,28
 69 979 69 979 69 1077 c 0,29,30
 69 1291 69 1291 233 1462 c 0,31,32
 247 1477 247 1477 256 1477 c 0,33,34
 259 1477 259 1477 298 1441 c 128,-1,35
 337 1405 337 1405 337 1399 c 1,36,37
 337 1411 337 1411 290.5 1328 c 128,-1,38
 244 1245 244 1245 244 1169 c 0,39,40
 244 1107 244 1107 273 1056 c 0,41,42
 292 1025 292 1025 329 989 c 0,43,44
 358 961 358 961 358 952 c 0,22,23
EndSplineSet
EndChar
StartChar: quotedblright
Encoding: 8221 8221 222
Width: 776
GlyphClass: 1
Flags: W
LayerCount: 2
Fore
SplineSet
705 1205 m 0,0,1
 705 991 705 991 541 819 c 0,2,3
 527 805 527 805 519 805 c 0,4,5
 516 805 516 805 477 841 c 128,-1,6
 438 877 438 877 438 882 c 1,7,8
 438 871 438 871 484 954 c 128,-1,9
 530 1037 530 1037 530 1112 c 0,10,11
 530 1175 530 1175 501 1226 c 0,12,13
 483 1257 483 1257 445 1292 c 0,14,15
 416 1320 416 1320 416 1329 c 0,16,17
 416 1340 416 1340 485 1404.5 c 128,-1,18
 554 1469 554 1469 560 1469 c 0,19,20
 587 1469 587 1469 666 1358 c 0,21,22
 705 1302 705 1302 705 1205 c 0,0,1
351 1148 m 0,23,24
 351 1055 351 1055 307 952.5 c 128,-1,25
 263 850 263 850 197 782 c 0,26,27
 181 767 181 767 173 767 c 0,28,29
 168 767 168 767 162 774 c 0,30,31
 89 856 89 856 89 850 c 0,32,33
 89 840 89 840 132.5 918 c 128,-1,34
 176 996 176 996 176 1059 c 0,35,36
 176 1140 176 1140 117 1206.5 c 128,-1,37
 58 1273 58 1273 58 1272 c 1,38,39
 58 1284 58 1284 127 1348.5 c 128,-1,40
 196 1413 196 1413 207 1413 c 0,41,42
 215 1413 215 1413 229 1399 c 0,43,44
 351 1276 351 1276 351 1148 c 0,23,24
EndSplineSet
EndChar
StartChar: quotedblbase
Encoding: 8222 8222 223
Width: 776
GlyphClass: 1
Flags: W
LayerCount: 2
Fore
SplineSet
660 167 m 0,0,1
 660 -48 660 -48 496 -219 c 0,2,3
 482 -234 482 -234 474 -234 c 0,4,5
 471 -234 471 -234 432 -198 c 128,-1,6
 393 -162 393 -162 393 -156 c 1,7,8
 393 -168 393 -168 439 -85 c 128,-1,9
 485 -2 485 -2 485 74 c 0,10,11
 485 137 485 137 456 187 c 0,12,13
 438 218 438 218 400 254 c 0,14,15
 371 282 371 282 371 291 c 0,16,17
 371 301 371 301 440 366 c 128,-1,18
 509 431 509 431 515 431 c 0,19,20
 542 431 542 431 621 319 c 0,21,22
 660 264 660 264 660 167 c 0,0,1
335 87 m 0,23,24
 335 -8 335 -8 290 -110 c 0,25,26
 247 -208 247 -208 178 -279 c 0,27,28
 163 -294 163 -294 155 -294 c 0,29,30
 150 -294 150 -294 143 -287 c 0,31,32
 73 -207 73 -207 73 -211 c 0,33,34
 73 -221 73 -221 116.5 -143 c 128,-1,35
 160 -65 160 -65 160 -2 c 0,36,37
 160 79 160 79 100.5 146 c 128,-1,38
 41 213 41 213 41 212 c 1,39,40
 41 223 41 223 110.5 287.5 c 128,-1,41
 180 352 180 352 190 352 c 0,42,43
 199 352 199 352 213 338 c 0,44,45
 335 216 335 216 335 87 c 0,23,24
EndSplineSet
EndChar
StartChar: dagger
Encoding: 8224 8224 224
Width: 856
GlyphClass: 1
Flags: W
LayerCount: 2
Fore
SplineSet
821 940 m 0,0,1
 821 911 821 911 820 854 c 128,-1,2
 819 797 819 797 819 768 c 0,3,4
 819 743 819 743 788 743 c 0,5,6
 786 743 786 743 537 756 c 1,7,8
 537 729 537 729 536 671.5 c 128,-1,9
 535 614 535 614 535 586 c 0,10,11
 535 471 535 471 537 242 c 128,-1,12
 539 13 539 13 539 -101 c 0,13,14
 539 -188 539 -188 518 -188 c 2,15,-1
 334 -188 l 2,16,17
 313 -188 313 -188 309 -174 c 0,18,19
 309 -172 309 -172 309 -141 c 0,20,21
 309 -22 309 -22 314 216.5 c 128,-1,22
 319 455 319 455 319 573 c 2,23,-1
 319 754 l 1,24,25
 299 753 299 753 194 747 c 0,26,27
 116 743 116 743 68 743 c 0,28,29
 39 743 39 743 39 766 c 0,30,31
 39 795 39 795 38 852 c 128,-1,32
 37 909 37 909 37 938 c 0,33,34
 37 961 37 961 57 961 c 0,35,36
 105 961 105 961 184 958 c 0,37,38
 280 955 280 955 311 954 c 1,39,-1
 307 1395 l 2,40,41
 307 1432 307 1432 330 1432 c 2,42,-1
 530 1432 l 2,43,44
 549 1432 549 1432 549 1399 c 0,45,46
 549 1195 549 1195 543 954 c 1,47,48
 574 955 574 955 669 958 c 0,49,50
 748 961 748 961 795 961 c 0,51,52
 821 961 821 961 821 940 c 0,0,1
EndSplineSet
EndChar
StartChar: daggerdbl
Encoding: 8225 8225 225
Width: 895
GlyphClass: 1
Flags: W
LayerCount: 2
Fore
SplineSet
840 940 m 0,0,1
 840 913 840 913 839 858.5 c 128,-1,2
 838 804 838 804 838 777 c 128,-1,3
 838 750 838 750 809 750 c 0,4,5
 798 750 798 750 549 762 c 1,6,7
 549 728 549 728 546 657 c 128,-1,8
 543 586 543 586 543 551 c 1,9,10
 543 579 543 579 547 346 c 1,11,12
 785 354 785 354 811 354 c 0,13,14
 830 354 830 354 836 333 c 0,15,16
 841 318 841 318 839 289 c 0,17,18
 836 246 836 246 836 252 c 0,19,20
 836 256 836 256 839 212 c 0,21,22
 841 182 841 182 837 167 c 0,23,24
 830 145 830 145 809 145 c 0,25,26
 790 145 790 145 553 154 c 1,27,28
 554 91 554 91 558 -67 c 0,29,30
 561 -207 561 -207 561 -287 c 0,31,32
 561 -334 561 -334 541 -334 c 2,33,-1
 348 -334 l 2,34,35
 329 -334 329 -334 325 -324 c 0,36,37
 323 -320 323 -320 323 -296 c 0,38,39
 323 -209 323 -209 328 -71 c 0,40,41
 333 112 333 112 334 154 c 1,42,43
 299 153 299 153 209 149 c 0,44,45
 130 145 130 145 84 145 c 0,46,47
 63 145 63 145 56 167 c 0,48,49
 51 182 51 182 54 212 c 0,50,51
 57 255 57 255 57 252 c 0,52,53
 57 247 57 247 55 289 c 0,54,55
 53 318 53 318 56 333 c 0,56,57
 61 354 61 354 76 354 c 0,58,59
 123 354 123 354 209 350 c 0,60,61
 303 345 303 345 342 344 c 1,62,63
 342 361 342 361 344 439 c 0,64,65
 346 497 346 497 346 533 c 2,66,-1
 346 760 l 1,67,68
 326 759 326 759 217 754 c 0,69,70
 138 750 138 750 88 750 c 0,71,72
 57 750 57 750 57 772 c 0,73,74
 57 800 57 800 56 855 c 128,-1,75
 55 910 55 910 55 938 c 0,76,77
 55 961 55 961 76 961 c 0,78,79
 124 961 124 961 205 958 c 0,80,81
 302 955 302 955 334 954 c 1,82,83
 333 1009 333 1009 329 1175 c 0,84,85
 326 1312 326 1312 326 1395 c 0,86,87
 326 1432 326 1432 348 1432 c 2,88,-1
 549 1432 l 2,89,90
 567 1432 567 1432 567 1410 c 0,91,92
 567 1276 567 1276 559 954 c 1,93,94
 590 955 590 955 687 958 c 0,95,96
 767 961 767 961 815 961 c 0,97,98
 840 961 840 961 840 940 c 0,0,1
EndSplineSet
EndChar
StartChar: bullet
Encoding: 8226 8226 226
Width: 924
GlyphClass: 1
Flags: W
LayerCount: 2
Fore
SplineSet
844 594 m 0,0,1
 844 417 844 417 741 298 c 0,2,3
 633 174 633 174 459 174 c 256,4,5
 285 174 285 174 178 299 c 0,6,7
 76 418 76 418 76 594 c 256,8,9
 76 770 76 770 178 888 c 0,10,11
 285 1012 285 1012 459 1012 c 256,12,13
 633 1012 633 1012 741 888 c 0,14,15
 844 770 844 770 844 594 c 0,0,1
EndSplineSet
EndChar
StartChar: ellipsis
Encoding: 8230 8230 227
Width: 1321
GlyphClass: 1
Flags: W
LayerCount: 2
Fore
SplineSet
1253 147 m 256,0,1
 1253 81 1253 81 1209 31.5 c 128,-1,2
 1165 -18 1165 -18 1100 -18 c 256,3,4
 1035 -18 1035 -18 990 33 c 0,5,6
 948 81 948 81 948 147 c 0,7,8
 948 214 948 214 991 261.5 c 128,-1,9
 1034 309 1034 309 1100 309 c 0,10,11
 1165 309 1165 309 1209 261 c 128,-1,12
 1253 213 1253 213 1253 147 c 256,0,1
813 147 m 256,13,14
 813 81 813 81 769 31.5 c 128,-1,15
 725 -18 725 -18 659 -18 c 0,16,17
 594 -18 594 -18 550 33 c 0,18,19
 508 81 508 81 508 147 c 0,20,21
 508 214 508 214 551 261.5 c 128,-1,22
 594 309 594 309 659 309 c 0,23,24
 725 309 725 309 769 261 c 128,-1,25
 813 213 813 213 813 147 c 256,13,14
373 147 m 256,26,27
 373 81 373 81 328.5 31.5 c 128,-1,28
 284 -18 284 -18 219 -18 c 256,29,30
 154 -18 154 -18 110 33 c 0,31,32
 68 81 68 81 68 147 c 0,33,34
 68 214 68 214 111 261.5 c 128,-1,35
 154 309 154 309 219 309 c 0,36,37
 285 309 285 309 329 261 c 128,-1,38
 373 213 373 213 373 147 c 256,26,27
EndSplineSet
EndChar
StartChar: perthousand
Encoding: 8240 8240 228
Width: 2245
GlyphClass: 1
Flags: W
LayerCount: 2
Fore
SplineSet
2198 373 m 256,0,1
 2198 225 2198 225 2113 112 c 0,2,3
 2021 -12 2021 -12 1878 -12 c 256,4,5
 1735 -12 1735 -12 1642 112 c 0,6,7
 1556 225 1556 225 1556 373 c 256,8,9
 1556 521 1556 521 1642 635 c 0,10,11
 1735 760 1735 760 1878 760 c 256,12,13
 2021 760 2021 760 2113 635 c 0,14,15
 2198 521 2198 521 2198 373 c 256,0,1
1460 373 m 256,16,17
 1460 225 1460 225 1376 112 c 0,18,19
 1284 -12 1284 -12 1141 -12 c 0,20,21
 997 -12 997 -12 904 112 c 0,22,23
 819 225 819 225 819 373 c 256,24,25
 819 521 819 521 904 635 c 0,26,27
 998 760 998 760 1141 760 c 256,28,29
 1284 760 1284 760 1376 635 c 0,30,31
 1460 521 1460 521 1460 373 c 256,16,17
1058 1198 m 0,32,33
 1058 1189 1058 1189 1051 1174 c 0,34,35
 961 986 961 986 786 608 c 0,36,37
 706 430 706 430 545 -2 c 0,38,39
 534 -30 534 -30 525 -30 c 0,40,41
 511 -30 511 -30 473.5 -6 c 128,-1,42
 436 18 436 18 436 30 c 0,43,44
 436 40 436 40 446 59 c 0,45,46
 504 166 504 166 586 344 c 0,47,48
 692 572 692 572 721 631 c 0,49,50
 772 735 772 735 844 925 c 0,51,52
 900 1077 900 1077 956 1229 c 0,53,54
 966 1254 966 1254 976 1254 c 0,55,56
 989 1254 989 1254 1023.5 1232 c 128,-1,57
 1058 1210 1058 1210 1058 1198 c 0,32,33
688 860 m 0,58,59
 688 712 688 712 604 599 c 0,60,61
 512 475 512 475 369 475 c 0,62,63
 225 475 225 475 132 599 c 0,64,65
 47 712 47 712 47 860 c 0,66,67
 47 1009 47 1009 132 1122 c 0,68,69
 225 1247 225 1247 369 1247 c 0,70,71
 512 1247 512 1247 604 1122 c 0,72,73
 688 1009 688 1009 688 860 c 0,58,59
2032 373 m 256,74,75
 2032 454 2032 454 1996 517 c 0,76,77
 1953 594 1953 594 1878 594 c 256,78,79
 1803 594 1803 594 1759 517 c 0,80,81
 1722 454 1722 454 1722 373 c 0,82,83
 1722 296 1722 296 1761 231 c 0,84,85
 1806 154 1806 154 1878 154 c 0,86,87
 1953 154 1953 154 1996 229 c 0,88,89
 2032 292 2032 292 2032 373 c 256,74,75
1294 373 m 256,90,91
 1294 454 1294 454 1259 517 c 0,92,93
 1216 594 1216 594 1141 594 c 0,94,95
 1065 594 1065 594 1022 517 c 0,96,97
 985 454 985 454 985 373 c 0,98,99
 985 296 985 296 1024 231 c 0,100,101
 1069 154 1069 154 1141 154 c 0,102,103
 1215 154 1215 154 1258 229 c 0,104,105
 1294 292 1294 292 1294 373 c 256,90,91
522 860 m 0,106,107
 522 941 522 941 487 1005 c 0,108,109
 444 1081 444 1081 369 1081 c 256,110,111
 294 1081 294 1081 250 1004 c 0,112,113
 213 940 213 940 213 860 c 0,114,115
 213 785 213 785 252 718 c 0,116,117
 298 641 298 641 369 641 c 0,118,119
 443 641 443 641 486 717 c 0,120,121
 522 780 522 780 522 860 c 0,106,107
EndSplineSet
EndChar
StartChar: guilsinglleft
Encoding: 8249 8249 229
Width: 598
GlyphClass: 1
Flags: W
LayerCount: 2
Fore
SplineSet
561 773 m 0,0,1
 561 738 561 738 305 572 c 1,2,3
 307 569 307 569 436 487 c 0,4,5
 551 414 551 414 551 377 c 0,6,7
 551 371 551 371 523 303 c 0,8,9
 492 228 492 228 490 220 c 128,-1,10
 488 212 488 212 479 205 c 1,11,12
 395 269 395 269 281 352 c 0,13,14
 229 387 229 387 74 467 c 0,15,16
 55 476 55 476 55 499 c 128,-1,17
 55 522 55 522 54 570.5 c 128,-1,18
 53 619 53 619 53 643 c 0,19,20
 53 664 53 664 72 674 c 0,21,22
 269 778 269 778 465 926 c 0,23,24
 470 930 470 930 483 935 c 1,25,26
 489 932 489 932 494 922 c 0,27,28
 512 877 512 877 555 788 c 0,29,30
 561 778 561 778 561 773 c 0,0,1
EndSplineSet
EndChar
StartChar: guilsinglright
Encoding: 8250 8250 230
Width: 598
GlyphClass: 1
Flags: W
LayerCount: 2
Fore
SplineSet
545 498 m 2,0,1
 545 477 545 477 526 467 c 0,2,3
 286 340 286 340 141 219 c 0,4,5
 134 213 134 213 119 205 c 1,6,7
 113 209 113 209 109 219 c 0,8,9
 89 267 89 267 43 362 c 0,10,11
 39 369 39 369 39 372 c 0,12,13
 39 404 39 404 153 478 c 0,14,15
 250 541 250 541 299 559 c 0,16,17
 307 561 307 561 314 570 c 1,18,19
 243 614 243 614 172 658 c 0,20,21
 36 742 36 742 36 773 c 0,22,23
 36 774 36 774 69 839 c 128,-1,24
 102 904 102 904 106 922 c 0,25,26
 110 935 110 935 117 935 c 0,27,28
 122 935 122 935 135 926 c 0,29,30
 194 880 194 880 315 793 c 0,31,32
 390 744 390 744 526 674 c 0,33,34
 545 664 545 664 545 643 c 2,35,-1
 545 498 l 2,0,1
EndSplineSet
EndChar
StartChar: fraction
Encoding: 8260 8260 231
AltUni2: 002215.ffffffff.0 002215.ffffffff.0
Width: 625
GlyphClass: 1
Flags: W
LayerCount: 2
Fore
SplineSet
730 1164 m 0,0,1
 730 1159 730 1159 723 1145 c 0,2,3
 609 952 609 952 389 560 c 1,4,5
 285 351 285 351 65 -60 c 0,6,7
 55 -78 55 -78 47 -78 c 0,8,9
 42 -78 42 -78 -24 -26 c 128,-1,10
 -90 26 -90 26 -90 32 c 256,11,12
 -90 38 -90 38 -85 47 c 0,13,14
 341 774 341 774 582 1255 c 0,15,16
 589 1268 589 1268 596 1268 c 0,17,18
 611 1268 611 1268 670.5 1222.5 c 128,-1,19
 730 1177 730 1177 730 1164 c 0,0,1
EndSplineSet
EndChar
StartChar: foursuperior
Encoding: 8308 8308 232
Width: 814
GlyphClass: 1
Flags: W
LayerCount: 2
Fore
SplineSet
776 559 m 0,0,1
 776 548 776 548 689 548 c 0,2,3
 663 548 663 548 663 527 c 0,4,5
 663 507 663 507 667 466 c 128,-1,6
 671 425 671 425 671 404 c 0,7,8
 671 382 671 382 554 382 c 0,9,10
 428 382 428 382 428 397 c 0,11,12
 428 419 428 419 436 464.5 c 128,-1,13
 444 510 444 510 444 533 c 0,14,15
 444 548 444 548 432 548 c 0,16,17
 374 548 374 548 257.5 544.5 c 128,-1,18
 141 541 141 541 83 541 c 0,19,20
 49 541 49 541 41 579 c 0,21,22
 38 591 38 591 38 645 c 0,23,24
 38 712 38 712 52 727 c 0,25,26
 142 825 142 825 252 972 c 0,27,28
 345 1099 345 1099 438 1226 c 0,29,30
 449 1241 449 1241 461 1241 c 0,31,32
 541 1241 541 1241 650 1205 c 0,33,34
 674 1198 674 1198 674 1180 c 0,35,36
 674 1145 674 1145 668.5 1075.5 c 128,-1,37
 663 1006 663 1006 663 971 c 0,38,39
 663 941 663 941 662 869 c 0,40,41
 661 804 661 804 661 767 c 2,42,-1
 661 713 l 1,43,44
 678 713 678 713 712 716 c 128,-1,45
 746 719 746 719 762 719 c 0,46,47
 775 719 775 719 775 708 c 0,48,49
 775 683 775 683 775 633 c 0,50,51
 776 584 776 584 776 559 c 0,0,1
468 1034 m 2,52,-1
 468 1038 l 1,53,54
 446 1000 446 1000 330 853 c 0,55,56
 275 784 275 784 220 714 c 1,57,58
 224 707 224 707 283 707 c 0,59,60
 387 707 387 707 451 710 c 1,61,62
 452 752 452 752 461 847 c 0,63,64
 470 935 470 935 470 983 c 0,65,66
 470 1010 470 1010 468 1034 c 2,52,-1
EndSplineSet
EndChar
StartChar: Euro
Encoding: 8364 8364 233
Width: 946
GlyphClass: 1
Flags: W
LayerCount: 2
Fore
SplineSet
877 6 m 0,0,1
 877 -16 877 -16 859 -22 c 0,2,3
 827 -33 827 -33 768 -33 c 0,4,5
 571 -33 571 -33 417 75 c 128,-1,6
 263 183 263 183 199 370 c 1,7,8
 131 367 131 367 84 367 c 0,9,10
 65 367 65 367 65 382 c 0,11,12
 65 493 65 493 74 529 c 0,13,14
 77 543 77 543 92 543 c 0,15,16
 125 543 125 543 164 542 c 1,17,18
 162 572 162 572 162 603 c 0,19,20
 162 635 162 635 165 667 c 1,21,22
 120 666 120 666 84 666 c 0,23,24
 64 666 64 666 64 687 c 0,25,26
 64 793 64 793 74 834 c 0,27,28
 77 850 77 850 94 850 c 0,29,30
 141 850 141 850 206 848 c 1,31,32
 275 1025 275 1025 431 1130 c 0,33,34
 584 1232 584 1232 771 1232 c 0,35,36
 809 1232 809 1232 849 1225 c 0,37,38
 867 1221 867 1221 867 1209 c 2,39,40
 867 1209 867 1209 865 1174.5 c 128,-1,41
 863 1140 863 1140 863 1118 c 0,42,43
 863 1103 863 1103 864 1069.5 c 128,-1,44
 865 1036 865 1036 865 1032 c 0,45,46
 865 1011 865 1011 847 1014 c 0,47,48
 779 1023 779 1023 771 1023 c 0,49,50
 553 1023 553 1023 445 840 c 1,51,52
 506 840 506 840 628 843 c 128,-1,53
 750 846 750 846 811 846 c 0,54,55
 828 846 828 846 828 829 c 0,56,57
 828 750 828 750 817 676 c 0,58,59
 815 663 815 663 806 663 c 0,60,61
 742 663 742 663 610.5 668.5 c 128,-1,62
 479 674 479 674 412 674 c 2,63,-1
 390 674 l 1,64,65
 385 639 385 639 385 603 c 0,66,67
 385 568 385 568 389 535 c 1,68,69
 419 535 419 535 444 535 c 0,70,71
 506 535 506 535 629.5 538 c 128,-1,72
 753 541 753 541 815 541 c 0,73,74
 830 541 830 541 830 525 c 0,75,76
 830 512 830 512 819 377 c 0,77,78
 816 366 816 366 807 366 c 2,79,-1
 797 367 l 1,80,81
 606 377 606 377 437 377 c 1,82,83
 544 174 544 174 780 174 c 0,84,85
 829 174 829 174 865 183 c 0,86,87
 877 186 877 186 877 169 c 0,88,89
 877 163 877 163 875.5 131.5 c 128,-1,90
 874 100 874 100 874 89 c 0,91,92
 874 79 874 79 875.5 47 c 128,-1,93
 877 15 877 15 877 6 c 0,0,1
EndSplineSet
EndChar
StartChar: trademark
Encoding: 8482 8482 234
Width: 1284
GlyphClass: 1
Flags: W
LayerCount: 2
Fore
SplineSet
1233 799 m 0,0,1
 1234 786 1234 786 1229 786 c 2,2,-1
 1077 786 l 2,3,4
 1065 786 1065 786 1065 803 c 0,5,6
 1065 849 1065 849 1067 940.5 c 128,-1,7
 1069 1032 1069 1032 1069 1077 c 0,8,9
 1069 1090 1069 1090 1064 1090 c 0,10,11
 1049 1083 1049 1083 1021 951 c 0,12,13
 991 810 991 810 979 791 c 0,14,15
 977 787 977 787 960 787 c 2,16,-1
 852 787 l 2,17,18
 841 787 841 787 831 791 c 1,19,20
 812 836 812 836 791.5 937 c 128,-1,21
 771 1038 771 1038 752 1083 c 0,22,23
 750 1087 750 1087 746 1090 c 1,24,25
 741 1087 741 1087 741 1077 c 0,26,27
 741 1031 741 1031 744.5 940 c 128,-1,28
 748 849 748 849 748 803 c 0,29,30
 748 786 748 786 733 786 c 0,31,32
 722 786 722 786 699.5 788.5 c 128,-1,33
 677 791 677 791 666 791 c 0,34,35
 652 791 652 791 624.5 788.5 c 128,-1,36
 597 786 597 786 583 786 c 0,37,38
 578 786 578 786 578 799 c 0,39,40
 578 847 578 847 582 944 c 128,-1,41
 586 1041 586 1041 586 1090 c 0,42,43
 586 1140 586 1140 583 1241 c 128,-1,44
 580 1342 580 1342 580 1393 c 0,45,46
 580 1407 580 1407 592 1407 c 0,47,48
 618 1407 618 1407 670.5 1411.5 c 128,-1,49
 723 1416 723 1416 748 1416 c 0,50,51
 763 1416 763 1416 819 1311 c 0,52,53
 870 1216 870 1216 880 1185 c 128,-1,54
 890 1154 890 1154 907 1122 c 1,55,56
 944 1203 944 1203 982 1285 c 0,57,58
 1045 1414 1045 1414 1070 1414 c 0,59,60
 1094 1414 1094 1414 1144 1411.5 c 128,-1,61
 1194 1409 1194 1409 1219 1409 c 0,62,63
 1231 1410 1231 1410 1231 1404 c 0,64,65
 1231 1352 1231 1352 1229 1247 c 128,-1,66
 1227 1142 1227 1142 1227 1090 c 0,67,68
 1227 1041 1227 1041 1230 944 c 128,-1,69
 1233 847 1233 847 1233 799 c 0,0,1
530 1348 m 0,70,71
 530 1215 530 1215 511.5 1214.5 c 128,-1,72
 493 1214 493 1214 441 1213 c 0,73,74
 397 1212 397 1212 371 1212 c 1,75,76
 369 1176 369 1176 369 1106 c 2,77,-1
 369 1030 l 2,78,79
 369 991 369 991 373 914 c 128,-1,80
 377 837 377 837 377 799 c 0,81,82
 377 786 377 786 362 786 c 2,83,-1
 165 786 l 2,84,85
 162 787 162 787 161 791 c 0,86,87
 161 832 161 832 165.5 914 c 128,-1,88
 170 996 170 996 170 1037 c 2,89,-1
 170 1206 l 1,90,91
 67 1198 67 1198 14 1198 c 0,92,93
 7 1198 7 1198 7 1203 c 0,94,95
 7 1219 7 1219 14 1296 c 0,96,97
 22 1377 22 1377 25 1384.5 c 128,-1,98
 28 1392 28 1392 47 1392 c 0,99,100
 123 1392 123 1392 275.5 1399.5 c 128,-1,101
 428 1407 428 1407 504 1407 c 0,102,103
 530 1407 530 1407 530 1348 c 0,70,71
EndSplineSet
EndChar
StartChar: partialdiff
Encoding: 8706 8706 235
Width: 868
GlyphClass: 1
Flags: W
LayerCount: 2
Fore
SplineSet
745 859 m 1,0,-1
 745 111 l 2,1,2
 745 62 745 62 714 31 c 128,-1,3
 683 0 683 0 634 0 c 2,4,-1
 235 0 l 2,5,6
 186 0 186 0 155 31 c 128,-1,7
 124 62 124 62 124 111 c 2,8,-1
 124 752 l 2,9,10
 124 801 124 801 155 831.5 c 128,-1,11
 186 862 186 862 235 862 c 2,12,-1
 592 862 l 1,13,-1
 265 1565 l 1,14,-1
 416 1565 l 1,15,-1
 745 859 l 1,0,-1
605 123 m 1,16,-1
 605 741 l 1,17,-1
 263 741 l 1,18,-1
 263 123 l 1,19,-1
 605 123 l 1,16,-1
EndSplineSet
EndChar
StartChar: product
Encoding: 8719 8719 236
Width: 804
GlyphClass: 1
Flags: W
LayerCount: 2
Fore
SplineSet
764 1442 m 1,0,-1
 616 1442 l 1,1,-1
 616 0 l 1,2,-1
 481 0 l 1,3,-1
 481 1442 l 1,4,-1
 318 1442 l 1,5,-1
 318 0 l 1,6,-1
 183 0 l 1,7,-1
 183 1442 l 1,8,-1
 39 1442 l 1,9,-1
 39 1565 l 1,10,-1
 764 1565 l 1,11,-1
 764 1442 l 1,0,-1
EndSplineSet
EndChar
StartChar: summation
Encoding: 8721 8721 237
Width: 731
GlyphClass: 1
Flags: W
LayerCount: 2
Fore
SplineSet
649 0 m 1,0,-1
 85 0 l 1,1,-1
 85 108 l 1,2,-1
 467 796 l 1,3,-1
 85 1440 l 1,4,-1
 85 1565 l 1,5,-1
 643 1565 l 1,6,-1
 643 1442 l 1,7,-1
 223 1442 l 1,8,-1
 580 855 l 1,9,-1
 580 736 l 1,10,-1
 224 123 l 1,11,-1
 649 123 l 1,12,-1
 649 0 l 1,0,-1
EndSplineSet
EndChar
StartChar: radical
Encoding: 8730 8730 238
Width: 1946
GlyphClass: 1
Flags: W
LayerCount: 2
Fore
SplineSet
1925 1356 m 0,0,1
 1932 1331 1932 1331 1932 1321 c 0,2,3
 1932 1306 1932 1306 1912 1302 c 0,4,5
 1852 1292 1852 1292 1847 1290 c 0,6,7
 1789 1274 1789 1274 1676 1183 c 128,-1,8
 1563 1092 1563 1092 1493 1006 c 0,9,10
 1361 842 1361 842 1229 583 c 0,11,12
 1085 302 1085 302 1044 102 c 0,13,14
 1042 89 1042 89 1021 -77 c 0,15,16
 1009 -163 1009 -163 985 -174 c 0,17,18
 903 -211 903 -211 860 -211 c 0,19,20
 843 -211 843 -211 837 -172 c 0,21,22
 826 -103 826 -103 815 -74 c 0,23,24
 730 162 730 162 506 358 c 0,25,26
 400 451 400 451 347 480 c 0,27,28
 319 495 319 495 194 540 c 0,29,30
 158 553 158 553 158 589 c 0,31,32
 158 608 158 608 171 620 c 0,33,34
 204 660 204 660 277 747 c 0,35,36
 321 799 321 799 363 834 c 0,37,38
 385 853 385 853 401 853 c 0,39,40
 412 853 412 853 445 837 c 0,41,42
 553 785 553 785 675 672.5 c 128,-1,43
 797 560 797 560 841 466 c 0,44,45
 867 408 867 408 887 408 c 0,46,47
 911 408 911 408 946 494 c 0,48,49
 979 575 979 575 1114 777 c 128,-1,50
 1249 979 1249 979 1339 1083 c 0,51,52
 1658 1451 1658 1451 1806 1544 c 0,53,54
 1822 1554 1822 1554 1835 1554 c 0,55,56
 1860 1554 1860 1554 1884 1493 c 0,57,58
 1898 1459 1898 1459 1925 1356 c 0,0,1
EndSplineSet
EndChar
StartChar: infinity
Encoding: 8734 8734 239
Width: 1270
GlyphClass: 1
Flags: W
LayerCount: 2
Fore
SplineSet
1236 252 m 2,0,1
 1236 139 1236 139 1123 139 c 2,2,-1
 872 139 l 2,3,4
 808 139 808 139 734 252 c 2,5,-1
 635 403 l 1,6,-1
 537 250 l 2,7,8
 495 185 495 185 474 166 c 0,9,10
 445 140 445 140 402 139 c 2,11,-1
 149 139 l 2,12,13
 36 139 36 139 36 252 c 2,14,-1
 36 760 l 2,15,16
 36 873 36 873 149 873 c 2,17,-1
 402 873 l 2,18,19
 468 872 468 872 540 760 c 2,20,-1
 637 609 l 1,21,-1
 735 760 l 2,22,23
 808 873 808 873 872 873 c 2,24,-1
 1123 873 l 2,25,26
 1235 873 1235 873 1236 760 c 2,27,-1
 1236 252 l 2,0,1
1102 256 m 1,28,-1
 1102 756 l 1,29,-1
 864 756 l 1,30,-1
 703 507 l 1,31,-1
 865 256 l 1,32,-1
 1102 256 l 1,28,-1
569 504 m 1,33,-1
 404 756 l 1,34,-1
 169 756 l 1,35,-1
 169 256 l 1,36,-1
 409 256 l 1,37,-1
 569 504 l 1,33,-1
EndSplineSet
EndChar
StartChar: integral
Encoding: 8747 8747 240
Width: 487
GlyphClass: 1
Flags: W
LayerCount: 2
Fore
SplineSet
477 1448 m 1,0,-1
 289 1448 l 1,1,-1
 289 -289 l 2,2,3
 289 -333 289 -333 263 -364 c 0,4,5
 233 -400 233 -400 181 -400 c 2,6,-1
 -32 -401 l 1,7,-1
 -32 -284 l 1,8,-1
 157 -284 l 1,9,-1
 158 1452 l 2,10,11
 158 1565 158 1565 270 1565 c 2,12,-1
 477 1565 l 1,13,-1
 477 1448 l 1,0,-1
EndSplineSet
EndChar
StartChar: approxequal
Encoding: 8776 8776 241
Width: 1034
GlyphClass: 1
Flags: W
LayerCount: 2
Fore
SplineSet
864 804 m 2,0,1
 864 718 864 718 782 718 c 0,2,3
 732 718 732 718 678 738 c 2,4,-1
 301 882 l 1,5,-1
 301 724 l 1,6,-1
 170 724 l 1,7,-1
 170 933 l 2,8,9
 170 1019 170 1019 252 1019 c 0,10,11
 303 1019 303 1019 356 998 c 2,12,-1
 733 855 l 1,13,-1
 733 1013 l 1,14,-1
 864 1013 l 1,15,-1
 864 804 l 2,0,1
864 409 m 2,16,17
 864 323 864 323 782 323 c 0,18,19
 732 323 732 323 678 343 c 2,20,-1
 301 487 l 1,21,-1
 301 329 l 1,22,-1
 170 329 l 1,23,-1
 170 538 l 2,24,25
 170 624 170 624 252 624 c 0,26,27
 303 624 303 624 356 603 c 2,28,-1
 733 460 l 1,29,-1
 733 618 l 1,30,-1
 864 618 l 1,31,-1
 864 409 l 2,16,17
EndSplineSet
EndChar
StartChar: notequal
Encoding: 8800 8800 242
Width: 903
GlyphClass: 1
Flags: W
LayerCount: 2
Fore
SplineSet
801 391 m 1,0,-1
 454 391 l 1,1,-1
 374 69 l 1,2,-1
 257 98 l 1,3,-1
 329 391 l 1,4,-1
 102 391 l 1,5,-1
 102 510 l 1,6,-1
 359 510 l 1,7,-1
 420 756 l 1,8,-1
 102 756 l 1,9,-1
 102 877 l 1,10,-1
 450 877 l 1,11,-1
 529 1197 l 1,12,-1
 646 1168 l 1,13,-1
 574 877 l 1,14,-1
 801 877 l 1,15,-1
 801 756 l 1,16,-1
 544 756 l 1,17,-1
 483 510 l 1,18,-1
 801 510 l 1,19,-1
 801 391 l 1,0,-1
EndSplineSet
EndChar
StartChar: lessequal
Encoding: 8804 8804 243
Width: 698
GlyphClass: 1
Flags: W
LayerCount: 2
Fore
SplineSet
584 302 m 1,0,-1
 578 302 l 1,1,-1
 76 648 l 1,2,-1
 76 720 l 1,3,-1
 584 1069 l 1,4,-1
 584 930 l 1,5,-1
 213 685 l 1,6,-1
 584 441 l 1,7,-1
 584 302 l 1,0,-1
584 145 m 1,8,-1
 76 145 l 1,9,-1
 76 264 l 1,10,-1
 584 264 l 1,11,-1
 584 145 l 1,8,-1
EndSplineSet
EndChar
StartChar: greaterequal
Encoding: 8805 8805 244
Width: 698
GlyphClass: 1
Flags: W
LayerCount: 2
Fore
SplineSet
604 648 m 1,0,-1
 96 302 l 1,1,-1
 96 441 l 1,2,-1
 466 685 l 1,3,-1
 96 930 l 1,4,-1
 96 1069 l 1,5,-1
 102 1069 l 1,6,-1
 604 720 l 1,7,-1
 604 648 l 1,0,-1
603 145 m 1,8,-1
 96 145 l 1,9,-1
 96 264 l 1,10,-1
 603 264 l 1,11,-1
 603 145 l 1,8,-1
EndSplineSet
EndChar
StartChar: lozenge
Encoding: 9674 9674 245
Width: 826
GlyphClass: 1
Flags: W
LayerCount: 2
Fore
SplineSet
798 574 m 1,0,-1
 451 66 l 1,1,-1
 379 66 l 1,2,-1
 30 574 l 1,3,-1
 379 1082 l 1,4,-1
 451 1082 l 1,5,-1
 798 574 l 1,0,-1
659 574 m 1,6,-1
 414 945 l 1,7,-1
 169 574 l 1,8,-1
 414 203 l 1,9,-1
 659 574 l 1,6,-1
EndSplineSet
EndChar
StartChar: fi
Encoding: 61441 61441 246
AltUni2: 00fb01.ffffffff.0 00fb01.ffffffff.0
Width: 1040
GlyphClass: 1
Flags: W
LayerCount: 2
Fore
SplineSet
949 929 m 0,0,1
 949 851 949 851 939.5 694 c 128,-1,2
 930 537 930 537 930 459 c 0,3,4
 930 386 930 386 935 241.5 c 128,-1,5
 940 97 940 97 940 25 c 0,6,7
 940 2 940 2 922 2 c 2,8,-1
 731 2 l 2,9,10
 707 2 707 2 707 35 c 0,11,12
 707 94 707 94 711 210.5 c 128,-1,13
 715 327 715 327 715 385 c 0,14,15
 715 440 715 440 714 549 c 128,-1,16
 713 658 713 658 713 713 c 0,17,18
 713 743 713 743 682 745 c 0,19,20
 577 744 577 744 369 752 c 1,21,22
 369 633 369 633 376 390.5 c 128,-1,23
 383 148 383 148 383 27 c 0,24,25
 383 0 383 0 362 0 c 2,26,-1
 182 0 l 2,27,28
 156 0 156 0 156 31 c 2,29,-1
 156 721 l 2,30,31
 156 738 156 738 136 743 c 0,32,33
 123 747 123 747 96 744 c 0,34,35
 60 741 60 741 63 741 c 1,36,37
 27 741 27 741 25 752 c 0,38,39
 18 774 18 774 18 913 c 0,40,41
 18 929 18 929 74 936 c 0,42,43
 110 938 110 938 145 940 c 1,44,45
 142 1016 142 1016 142 1055 c 0,46,47
 142 1450 142 1450 544 1450 c 0,48,49
 682 1450 682 1450 819 1386 c 0,50,51
 834 1380 834 1380 834 1370 c 0,52,53
 834 1342 834 1342 819 1272 c 0,54,55
 802 1190 802 1190 786 1190 c 0,56,57
 778 1190 778 1190 696 1225 c 128,-1,58
 614 1260 614 1260 567 1260 c 0,59,60
 444 1260 444 1260 397 1193 c 0,61,62
 358 1138 358 1138 358 1009 c 0,63,64
 358 979 358 979 360 944 c 1,65,66
 415 944 415 944 538 941 c 0,67,68
 655 938 655 938 715 938 c 0,69,70
 786 938 786 938 821 940 c 0,71,72
 836 941 836 941 878 946 c 0,73,74
 914 951 914 951 934 951 c 0,75,76
 949 951 949 951 949 929 c 0,0,1
EndSplineSet
EndChar
